<?xml version="1.0" encoding="UTF-8"?><svg id="_レイヤー_1" xmlns="http://www.w3.org/2000/svg" viewBox="0 0 435.85 443.21"><path d="M222.85,266.76c-.48-.08-.81-.17-1.14-.18-7.85-.21-15.25-2.46-22.52-5.18-1.69-.63-3.31-1.67-4.7-2.84-1.81-1.52-2.3-3.64-1.72-5.97.79-3.21,2.51-5.91,4.62-8.38,2.96-3.47,6.26-6.51,10.49-8.41,2.84-1.27,5.79-2.06,8.86-2.52,1.96-.29,3.93-.6,5.86-1.04,1.83-.41,2.08-.78,2.21-2.67.12-1.78.28-3.56.23-5.34-.38-13.29-.82-26.58-1.23-39.87-.25-8.08-.49-16.17-.7-24.25-.12-4.73-.16-9.45-.25-14.18-.11-5.68,1.37-10.95,3.94-15.97,3-5.88,7.78-9.82,13.63-12.58,4.9-2.31,10.14-3.44,15.5-3.7,7.25-.35,14.53-.63,21.79-.53,9.07.12,15.73,4.46,20.03,12.46,2.55,4.74,3.6,9.87,4.26,15.13.95,7.59,1.04,15.16-.03,22.75-.59,4.17-2.01,7.96-5.24,11.18,2.89,1.65,5.41,3.57,7.15,6.71.33-.68.61-1.1.74-1.57,2.19-7.58,3.98-15.22,4.21-23.18.31-10.9-1.04-21.6-3.53-32.18-1.32-5.61-3.13-11.08-5.71-16.25-4.34-8.71-10.88-15.36-19.31-20.18-9.15-5.24-19.15-8.07-29.36-10.24-10.61-2.25-21.32-3.88-32.15-4.35-6.08-.26-12.2-.04-18.28.28-8.23.44-16.3,1.96-24.23,4.27-7.26,2.12-13.8,5.65-19.96,9.92-3.71,2.57-7.46,5.13-10.89,8.05-8.21,7-14.94,15.2-19.57,25.06-2.35,5-2.48,10.18-2.02,15.48.15,1.71.42,3.4.57,5.11.39,4.42-.67,8.3-4.29,11.19-2.09,1.67-3.08,3.87-2.83,6.49.2,2.04.69,4.04,1.09,6.06.55,2.82,1.18,5.62,1.67,8.44.15.86.05,1.78-.07,2.66-.25,1.91-1.6,3.28-3.5,3.47-1.29.13-2.6.1-3.9.09-2.12-.02-4.25-.17-6.37-.13-2.51.06-3.21.6-4,3.04-.99,3.09-.71,6.24-.14,9.35.71,3.86,2.15,7.49,3.62,11.11,1.24,3.04,2.5,6.08,3.66,9.15,1.87,4.98,2.73,10.17,3.21,15.44.23,2.52.5,5.04.8,7.56.1.8.36,1.57.57,2.45.93-.28,1.7-.59,2.49-.73,1.07-.19,2.19-.44,3.25-.32,3.27.38,6.51,1.06,9.42,2.68,1.18.66,2.36,1.5,3.18,2.53.82,1.03,1.63,1.56,2.91,1.45.51-.04,1.03,0,1.82,0-1.24-1.79-2.29-3.45-3.49-5.01-2.79-3.62-4.69-7.61-4.76-12.23-.06-4.28-.85-8.44-1.55-12.63-.33-1.95-.82-3.88-.25-5.9.78-2.8,2.59-4.29,5.51-4.23,1.08.02,2.2.15,3.24.45,4.76,1.35,9.57,2.28,14.52,2.69,6.62.55,13.21,1.52,19.83,2.09,4.76.41,9.49-.27,13.91-2.1,5.02-2.07,8.66-5.72,10.64-10.84.76-1.96.63-4-.11-6.01-2.08-5.61-5.8-9.88-10.75-13.11-2.06-1.34-4.24-2.53-6.44-3.62-1.14-.57-2.44-.91-3.71-1.12-7.12-1.17-14.3-1.73-21.51-1.33-3.34.18-6.68.59-10,1.09-3.79.57-7.55,1.36-11.33,2.02-2.19.38-3.34-.26-4.13-2.38-1.8-4.88-1.38-9.7.58-14.42,2.67-6.43,7.09-11.53,12.53-15.74,3.84-2.97,7.85-5.73,11.78-8.58.22-.16.42-.35.62-.53,1.67-1.58,3-1.76,4.92-.39,3.18,2.26,6.3,4.62,9.42,6.95.49.37.93.81,1.35,1.26,1.98,2.12,1.49,4.47-1.26,5.48-1.4.51-2.91.78-4.4,1-5.69.84-11.38,1.76-17.09,2.39-5.91.66-9.45,4.19-11.97,9.15-1.11,2.19-.88,4.46-.36,6.97,2.85-.74,5.5-1.39,8.12-2.12,5.71-1.59,11.49-2.51,17.45-2.32,6.79.22,13.28,1.85,19.6,4.2,4.19,1.56,8.15,3.56,11.84,6.1,7.02,4.82,11.01,11.54,11.25,19.98.24,8.52-3.47,15.09-11.2,19.3-5.19,2.83-10.62,4.46-16.5,4.24-6.09-.22-12.18-.66-18.25-1.13s-12.03-2.04-18.17-1.9c-1.09.02-2.18,0-3.24,0-.14.29-.3.47-.3.65-.19,7.76,1.84,14.78,7.02,20.7,3.64,4.15,8.02,7.43,12.66,10.37,4.34,2.74,8.71,5.44,12.97,8.3,3.96,2.65,7.33,5.96,9.88,10.03,2.95,4.7,3.62,9.81,2.71,15.22-1.09,6.46-3.41,12.54-5.6,18.66-1.75,4.9-3.65,9.79-4.2,15-.34,3.18-.24,6.42-.12,9.63.29,7.67.65,15.34,1.1,23,.56,9.44,1.24,18.87,1.87,28.3.07,1.09.22,2.19.16,3.28-.09,1.83-1.06,2.86-2.56,2.93-1.42.06-2.55-.97-2.73-2.76-.44-4.43-.92-8.86-1.16-13.31-.86-15.53-1.68-31.07-2.4-46.61-.27-5.82-.18-11.65-.32-17.48-.19-7.88-.34-15.76-.7-23.63-.18-3.89-.79-7.76-2.07-11.49-1.33-3.89-3.52-7.12-7.05-9.31-2.85-1.77-5.77-3.41-8.74-5.15-2.56,2.77-5.79,1.63-9.03,1.67-.1.78-.2,1.49-.29,2.21-.39,3.18-1.67,5.93-4.02,8.12-3.61,3.35-9.22,3.81-13.53,1.05-4.13-2.64-6.59-6.48-7.62-11.25-.43-1.99-.28-3.94.15-5.91.12-.55.16-1.27-.09-1.73-1.41-2.54-1.66-5.33-2.01-8.12-.54-4.35-1-8.71-1.68-13.03-.61-3.87-2.09-7.5-3.57-11.12-1.63-3.99-3.19-8.02-4.61-12.09-1.27-3.65-1.9-7.46-1.58-11.33.18-2.09.58-4.24,1.32-6.19,1.28-3.34,3.88-5.3,7.52-5.45,2.59-.11,5.2.08,7.8.15.53,0,1.05.08,1.71.12.19-1.86-.35-3.49-.69-5.14-.68-3.28-1.52-6.54-1.93-9.86-.5-4.03.65-7.75,3.87-10.33,2.77-2.22,3.45-4.92,3.07-8.18-.23-1.97-.36-3.96-.61-5.93-.95-7.54,1.13-14.36,4.77-20.85,3.99-7.11,9.04-13.36,14.91-18.99,8.07-7.75,17.19-14,27.16-19,7.41-3.72,15.45-5.55,23.58-6.9,6.7-1.11,13.47-1.77,20.26-1.74,5.61.02,11.24.21,16.84.64,9.37.71,18.63,2.28,27.81,4.28,9.53,2.07,18.84,4.84,27.5,9.44,13.27,7.05,22.21,17.75,26.91,32.03,2.26,6.85,3.85,13.84,4.95,20.96,1.21,7.89,1.58,15.81,1.26,23.77-.18,4.54-.99,8.98-1.97,13.4-.69,3.14-1.37,6.29-1.87,9.47-.28,1.81-.24,3.68-.26,5.53-.01,1.1.37,2.08.99,3.06,2.25,3.61,3.09,7.72,3.87,11.84.96,5.02,1.14,10.09.77,15.15-.25,3.4-.88,6.79-1.56,10.14-1.34,6.58-2.96,13.09-5.36,19.38-3.3,8.63-7.55,16.72-13.75,23.66-6.23,6.97-12.93,13.41-20.9,18.39-5.44,3.4-11.39,5.65-17.49,7.55-2.35.73-4.63,1.69-6.98,2.42-1.29.4-1.73,1.17-1.72,2.41.05,4.52-.19,9.06.19,13.56.88,10.38,1.69,20.76,1.83,31.19.11,8.15.51,16.3.69,24.45.09,4.1-1.32,7.69-4.39,10.47-3.83,3.47-8.42,5.31-13.53,5.9-.47.05-.96.05-1.44.02-3.04-.17-4.88-1.77-5.17-4.8-.32-3.34-.52-6.7-.6-10.05-.28-11.58-.36-23.17-.74-34.74-.32-9.59-.94-19.16-1.43-28.74-.25-4.93-.54-9.85-.79-14.78-.22-4.49.42-8.88,1.66-13.19.32-1.12.65-2.27.7-3.41.04-1.13.03-2.44-.5-3.37-1.23-2.18-1.62-4.47-1.61-7.1l.03.02ZM231.6,381.6c2.45-.26,4.57-.79,6.52-1.77,3.05-1.54,5.29-3.66,4.6-7.53-.09-.53-.05-1.09-.07-1.64-.16-6.17-.27-12.33-.47-18.5-.46-14.18-1.01-28.35-1.41-42.53-.08-2.93.24-5.88.6-8.8.41-3.27,2.29-5.49,5.42-6.62.39-.14.77-.3,1.15-.43,4.01-1.38,8.03-2.74,12.04-4.13,5.34-1.85,10.36-4.32,14.9-7.7,4.57-3.4,8.68-7.32,12.73-11.32,7.5-7.42,12.66-16.29,16.25-26.11,3.07-8.39,5.02-17.06,6.32-25.89.9-6.08-.04-11.88-2.21-17.53-1.07-2.78-2.84-5.08-5.42-7.11-.57.66-1.02,1.26-1.55,1.78-2.84,2.78-5.61,5.62-8.56,8.27-4.7,4.25-10.27,5.69-16.56,4.99-9.19-1.02-15.23-7.99-16.86-15.93-.44-2.16-.25-4.44-.36-6.81-.32-.03-.78-.11-1.25-.1-4.93.03-9.87.11-14.8.11-3.32,0-6.57-.41-9.52-2.12-.22-.12-.5-.14-.81-.22.26,10.29.52,20.47.79,30.65.42.05.62.13.81.1,2.08-.42,4.18-.77,6.23-1.31,2.81-.74,4.29-2.97,4.06-5.87-.09-1.16-.31-2.31-.4-3.47-.16-2.03.45-3.19,1.87-3.68,1.32-.46,2.51.04,3.69,1.55.21.27.42.54.6.83,2.39,3.87,3.11,7.95,1.86,12.4-1.05,3.72-3.13,6.13-7.15,6.64-3.22.4-6.23,1.57-9.21,2.81-.75.32-1.51.65-1.6,1.67-.17,1.9-.39,3.79-.59,5.75.38.15.74.32,1.12.44,6.73,2.15,12.89,5.35,18.22,10.02,2.01,1.76,3.77,3.79,4.88,6.28,1.37,3.06.77,6.37-1.72,8.42-1.36,1.12-2.89,2.1-4.48,2.85-4.18,1.96-8.69,2.87-13.13,4.02-2.71.7-5.41,1.49-8.05,2.44-1.82.65-2.15,1.84-1.35,3.61.17.37.41.72.58,1.09,1.16,2.49,1.66,5.06.96,7.79-.25.99-.54,1.98-.73,2.99-.57,3.02-1.44,6.03-1.58,9.07-.17,3.75.23,7.53.47,11.29.44,7.11,1.13,14.21,1.37,21.33.42,12.46.55,24.94.86,37.41.15,6.03.43,12.05.67,18.08.03.79.17,1.58.27,2.46v-.02ZM230.47,157.68c.21,4.52.29,8.22.59,11.91.14,1.68.55,3.39,1.09,4.99,1.34,3.93,4.23,6.09,8.34,6.15,7.06.1,14.12-.02,21.18-.11.69,0,1.53-.29,2.05-.73,4.42-3.74,9.65-5.3,15.28-5.9,3.74-.4,7.5-.68,11.09-1.98,1.34-.49,2.15-1.28,2.74-2.55,1.32-2.84,2.17-5.83,2.34-8.9.31-5.61.44-11.23.36-16.84-.04-2.92-.59-5.85-1.07-8.75-.91-5.53-4.07-9.2-9.49-10.71-3.09-.86-6.24-1.74-9.42-2-5.25-.43-10.54-.38-15.81-.5-4.22-.1-8.34.6-12.37,1.77-2.89.84-5.69,1.89-7.96,4.07-4.78,4.6-7.03,10.41-7.91,16.76-.65,4.67-.74,9.42-1.03,13.32h0Z"/><path d="M32.48,271.8c.34.03.69.15,1,.07,1.99-.5,3.97-1.03,5.95-1.56,1.01-.27,1.71-.77,1.68-1.97,0-.59.09-1.27,1.17-1.4.62,2.46,1.26,4.96,1.86,7.46.05.19-.21.45-.39.82-.29-.26-.54-.38-.65-.58-.55-1.08-1.43-1.42-2.57-1.17-2.27.48-4.55.94-6.8,1.49-3.52.85-7.03,1.77-10.54,2.67-.59.15-1.17.37-1.76.55-1.1.33-1.82.88-1.54,2.22.07.31-.26.7-.52,1.33-1.63-1.51-2.15-3.47-3.5-4.96.69-.54,1.15-.9,1.68-1.31-.35-.38-.6-.7-.9-.97-3.72-3.41-2.86-8.79.83-11.35,2.77-1.92,5.91-2.61,9.2-1.98,4.88.93,6.82,5.49,6.18,8.78-.12.6-.24,1.19-.37,1.88v-.02ZM31.58,268.89c.04-2.2-1.23-3.83-3.55-4.37-3.46-.8-6.63-.05-9.47,2.04-1.77,1.3-2.37,3.57-1.55,5.47.87,2.02,2.71,3.11,4.98,2.67,2.2-.43,4.39-1,6.53-1.68,2.03-.65,3.03-2.16,3.07-4.13h-.01Z"/><path d="M237.83,7.3c1.83-1.35,3.85-.88,5.79-1.43.24.67.46,1.27.71,1.96.68-.28,1.34-.61,2.04-.82,3.11-.91,7.59.36,8.96,4.8,1.31,4.23-.15,9.67-3.38,12.14-2.81,2.15-6.49,2.18-9.32.08-.31-.23-.62-.48-1.25-.97-.32,2.58-.62,4.84-.88,7.11-.14,1.23.06,2.32,1.51,2.73.22.06.36.37.82.86-.87.06-1.48.27-1.98.11-2.11-.64-4.46-.27-6.56-1.28.18-.3.21-.41.25-.41,2.36-.29,2.7-2.12,3-3.96.47-2.83.93-5.67,1.36-8.51.44-2.84.84-5.68,1.28-8.52.35-2.26.35-2.28-1.66-3.32-.17-.09-.3-.25-.7-.57h.01ZM252.42,14.67c-.13-.81-.19-1.78-.44-2.69-.49-1.8-2.09-3.16-3.75-3.3-2.06-.18-4.24.68-4.61,2.28-.69,2.97-1.22,6.01-1.42,9.05-.11,1.68,1.07,3.05,2.8,3.65,1.69.59,3.17.29,4.51-.99,2.26-2.16,2.67-4.96,2.92-7.99h0Z"/><path d="M406.64,195.35c-.48-.15-.74-.32-.98-.29-2.04.21-4.07.46-6.11.68-1.18.12-1.89.65-1.96,1.93-.02.33-.36.64-.59,1.02-.74-1.17-1.35-6.37-1.01-8.21,1.03,0,.9,1.06,1.47,1.6,2.36,0,4.82.14,7.26-.03,4.1-.28,8.18-.75,12.27-1.14.07,0,.14,0,.2-.02,2.87-.27,3.04-.41,3.69-3.08,1.14.38,1.55,1.06,2.99,5-.5.28-1.02.56-1.67.93.3.46.55.93.88,1.32,2.27,2.65,1.71,6.88-.4,9.03-.62.63-1.31,1.25-2.09,1.64-3.5,1.71-7.14,1.98-10.69.33-3.58-1.67-5.1-5.84-3.76-9.58.11-.31.27-.61.49-1.12h.01ZM416.48,194.06v-.03c-.82.04-1.64.05-2.46.14-.95.1-1.89.26-2.84.39-2.18.31-3.72,1.75-4.03,3.75-.3,2.02.55,3.65,2.66,4.56,3.32,1.43,6.66,1.23,9.89-.35.59-.29,1.11-.8,1.57-1.3,1.24-1.33,1.46-2.93.8-4.56s-1.82-2.72-3.76-2.61c-.61.03-1.23,0-1.84,0h0Z"/><path d="M220.99,415.33c.1-.69.24-1.21.23-1.72-.07-1.85-.2-3.69-.29-5.53-.04-.91-.33-1.55-1.36-1.75-.45-.08-.83-.48-1.42-.84,1.76-.71,5.71-.72,8.31-.17-.02.13,0,.35-.07.37-1.88.54-2.11,1.94-2.07,3.64.12,5.95.14,11.9.24,17.85.03,2.08.08,2.07,2.17,2.76.22.07.39.31.74.61-1.65,1.33-3.7,1.2-5.37,2.35-.33-.76-.57-1.28-.85-1.93-.49.27-.97.5-1.42.77-2.3,1.38-4.67,1.35-7.05.29-1.56-.7-2.73-1.94-3.34-3.47-1.2-3.07-1.45-6.24-.18-9.4,1.71-4.26,6.21-6.14,10.48-4.34.36.15.72.29,1.26.51h0ZM221.58,425.1c-.14-1.83-.26-3.32-.37-4.82-.02-.2,0-.41-.03-.61-.19-2-1.61-3.67-3.45-4.1-1.59-.37-3.45.53-4.51,2.14-1.27,1.92-1.55,4.11-1.39,6.27.11,1.58.68,3.2,1.37,4.65.89,1.85,2.49,2.43,4.67,2.09,1.77-.27,3.03-1.43,3.45-3.31.19-.86.21-1.75.27-2.31h-.01Z"/><path d="M24.84,139.74c-.02-.3,0-.5-.04-.68-1.39-5.21,2.13-9.5,7.55-9.21,2.77.15,5.21,1.16,7.35,2.86,3.06,2.42,3.91,6.86,1.91,10.2-.61,1.02-1.64,1.79-2.61,2.8,1.62,1.11,3.55,1.54,5.3,2.34.31.14.67.17.97.32,1.24.6,2.23.43,2.96-.82.15-.25.48-.41,1.06-.88.16,1.84-.78,2.99-1.21,4.25-.44,1.28-1.01,2.51-1.64,4.04-.29-.46-.53-.66-.52-.85.06-1.75-1.07-2.54-2.48-3.11-5.71-2.31-11.41-4.64-17.13-6.92-1.86-.74-1.88-.68-2.85,1.08-.08.15-.32.23-.49.33-.04.02-.12-.03-.4-.1,0-1.54-.06-3.14.02-4.74.04-.81.55-1.22,1.43-.9.22.08.49,0,.8,0l.02-.02ZM36.42,144.5c1.85-.07,3.15-.92,4.08-2.44.91-1.49.55-2.92-.31-4.25-.48-.73-1.1-1.39-1.75-1.98-1.85-1.64-4.14-2.37-6.52-2.79-2.42-.43-4.97,1.15-5.71,3.39-.67,2.03.55,4.39,2.91,5.44,1.68.75,3.4,1.43,5.13,2.08.69.26,1.45.36,2.17.53v.02Z"/><path d="M97.45,391.92c-1.27-.5-2.47-.97-3.67-1.44-1.07-.41-1.43-1.23-1.1-2.46-.39-.09-.76-.22-1.15-.25-5.15-.42-8.48-5.95-5.7-11.21.57-1.08,1.33-2.08,2.14-2.99,3.69-4.13,10.85-3.41,13.4,1.63.21.4.5.76.95,1.44,1.79-2.31,3.43-4.44,5.07-6.57-.12-1.14-1.6-1.57-1.03-3,2.33,1.69,4.46,3.35,6.48,5.29-.34.2-.49.34-.56.31-1.75-.68-2.89,0-3.99,1.42-2.72,3.52-5.59,6.91-8.4,10.36-.73.9-1.5,1.78-2.2,2.71-1.13,1.52-1.12,1.89-.08,3.57.1.16.14.39.15.58,0,.12-.11.23-.31.6h0ZM92.95,386.06c1.04.05,2.03-.38,2.76-1.28,1.29-1.59,2.56-3.19,3.78-4.83.73-.98.89-2.11.59-3.31-.68-2.66-3-4.15-5.62-3.31-3.43,1.1-5.58,3.48-6.38,7.05-.71,3.19,1.83,5.83,4.88,5.68h0Z"/><path d="M338.32,370.67c-1.72-2.02-3.19-3.8-4.72-5.53-.54-.61-1.23-.78-2.03-.34-.39.21-.87.26-1.53.45.26-1.86,1.91-2.19,2.82-3.13.97-1,2.18-1.78,3.65-2.95-.15.85-.09,1.3-.29,1.54-.89,1.08-.55,1.96.24,2.91,3.82,4.65,7.59,9.35,11.43,13.99,1.32,1.6,1.55,1.56,4.08.41-.01,2.46-1.94,3.66-2.75,5.6-.74-.49-1.17-.78-1.68-1.12-.16.4-.31.7-.41,1.02-1.43,4.5-6.19,6.51-10.4,4.37-3.88-1.97-6.24-6.25-5.6-10.52.39-2.6,1.95-4.47,4.35-5.58.8-.37,1.64-.64,2.85-1.11h0ZM345.89,381.26c-.06-.29-.02-1.02-.36-1.46-1.63-2.09-3.24-4.23-5.12-6.1-1.27-1.26-3.1-1.11-4.62-.31-1.63.87-2.51,2.41-2.25,4.28.46,3.23,2.15,5.84,4.93,7.46,4,2.33,7.23-.28,7.4-3.88h.02Z"/><path d="M359.96,66.35c2.08.5,3.55,1.68,5.24,2.62-.29.72-.52,1.26-.73,1.79.1.11.18.29.27.29,5.02.16,8.65,6.65,4.65,11.8-2.2,2.83-4.83,4.73-8.68,4.54-2.78-.14-6.31-2.72-6.78-5.65-.05-.33-.21-.64-.35-1.05-.32.07-.63.05-.79.2-1.53,1.37-3.04,2.75-4.53,4.16-.96.91-1.57,1.91-.61,3.22.15.2.02.6.02,1.42-2.43-2.05-3.99-4.28-6.24-6.48.8,0,1.15-.11,1.31.02,1.46,1.13,2.57.31,3.63-.63,2.76-2.45,5.49-4.93,8.23-7.41,1.52-1.38,3.02-2.77,4.54-4.15,1.76-1.59,1.81-1.81.78-3.93-.05-.1,0-.26.04-.78v.02ZM368.15,76.77c-.02-1.56-.71-2.91-2.25-3.71-1.55-.8-3.19-1.08-4.62.13-1.72,1.45-3.38,2.99-4.94,4.61-1.28,1.34-1.08,3.11-.56,4.66.51,1.53,1.87,2.42,3.5,2.42,1.13,0,2.33-.24,3.36-.67,1.72-.72,3.1-1.97,4.24-3.47.86-1.14,1.26-2.41,1.28-3.96h0Z"/><path d="M394.09,326.47c-.11.87-.17,1.76-.34,2.62-.77,4.01-4.24,6.55-8.26,5.9-3.24-.52-5.92-2.08-7.69-4.94-2.06-3.32-1.21-7.94,1.86-10.38.45-.36.89-.74,1.62-1.33-2.34-1.33-4.37-2.55-6.48-3.63-.41-.21-1.15.06-1.66.27-.45.19-.81.61-1.33,1.02-.03-1.74,2.5-6.05,4-7.09.09.09.28.21.26.27-.52,1.68.24,2.65,1.66,3.49,4.77,2.8,9.49,5.71,14.24,8.55.87.52,1.83.88,2.78,1.33.67-.62,1.26-1.15,2.14-1.96,0,.92.08,1.5-.02,2.05-.14.8-.39,1.59-.61,2.38-.41,1.47-.42,1.47-2.16,1.45h-.01ZM383.6,320.25c-3.55-.06-5.5,2.52-4.66,5.63.48,1.77,1.67,2.97,3.05,3.98,1.92,1.41,4.02,2.34,6.5,1.93,1.98-.32,3.15-1.52,3.62-3.42.48-1.91-.08-3.51-1.77-4.62-1.65-1.08-3.38-2.07-5.11-3.02-.58-.32-1.29-.39-1.63-.48Z"/><path d="M106.18,39.85c.29-.42.54-.86.87-1.24.58-.67,1.23-1.29,1.81-1.96,1.03-1.18,1.02-1.19,2.53-.1.22-.32.47-.62.65-.96,2.16-4.03,7.5-5.28,11.08-2.41,2.52,2.02,4.04,4.64,4.18,7.9.17,3.93-2.57,7.34-6.42,8.13-.59.12-1.19.22-2.08.38.78,1.44,1.48,2.74,2.19,4.03.1.18.26.32.37.49,1.05,1.64,2.46,2.4,4.22,2.27-.13.52-1.12,1.35-2.99,2.48-1.16.7-2.33,1.39-3.82,1.87.13-.37.17-.82.42-1.08.76-.82.86-1.59.28-2.58-3.02-5.12-5.99-10.27-8.98-15.41-.28-.47-.61-.91-.93-1.35-.51-.7-1.11-.96-1.93-.45-.32.2-.72.26-1.09.38-.11-.13-.23-.26-.34-.39h-.02ZM117.45,34.09c-3.32,0-5.53,3.51-4.03,6.45.87,1.71,1.84,3.36,2.86,4.99,1.25,1.98,3.29,2.68,5.32,1.93,2.02-.74,3.22-2.86,2.9-5.11-.28-1.93-1.01-3.7-2.18-5.25-1.23-1.63-2.75-2.86-4.86-3.01h-.01Z"/><path d="M33.29,308.09c-6.55.4-10.1-5.64-8.23-10.6,1.34-3.57,4.2-5.49,7.85-6.2,1.89-.37,3.85-.38,5.65.46,2.82,1.32,4.53,3.53,4.81,6.66.29,3.21-1.04,5.76-3.59,7.62-1.97,1.44-4.18,2.38-6.49,2.05h0ZM36.29,294.26c-3.36.2-6.57,1.47-9.03,4.31-1.13,1.31-1.21,2.85-.51,4.41.7,1.55,1.98,2.15,3.61,2.21,3.67.13,6.75-1.34,9.57-3.51.32-.25.58-.58.82-.91.99-1.32,1.07-2.84.5-4.28s-1.81-2.17-3.41-2.15c-.41,0-.82-.04-1.56-.09h.01Z"/><path d="M299.4,40.04c-2.28,1.5-4.19.69-5.27-2.18-.41.03-.89-.02-1.32.1-1.95.53-3.66-.13-5.25-1.11-1.35-.83-2.29-2.07-2.04-3.74.28-1.84,1.19-3.43,3.04-4.06,1.05-.36,2.26-.34,3.4-.35,1.43,0,2.88.26,4.3.15,2.13-.17,3.9-4.03,2.76-5.84-.71-1.15-3.1-1.34-4.24-.31-.35.32-.55.82-.93,1.08-.54.38-1.17.86-1.76.86s-1.36-.4-1.67-.88c-.2-.31.13-1.21.49-1.59.55-.57,1.28-1.15,2.02-1.3,2.45-.49,4.89-.53,7.11.95,2.14,1.42,2.75,2.84,1.82,5.24-.98,2.54-2.16,5.01-3.26,7.51-.27.63-.58,1.24-.83,1.87-.86,2.18-.69,2.58,1.62,3.59h.01ZM296.91,30.16c-1.76.1-3.38.16-5,.3-1.68.14-2.68,1.1-2.89,2.64-.24,1.77.23,2.73,1.64,3.34,1.45.63,3.22.32,4.05-.94,1.04-1.57,1.87-3.28,2.2-5.35h0Z"/><path d="M119.16,407.11c-3.17.1-7.59-2.6-7.8-7.68-.19-4.63,3.43-9.71,7.77-10.87,2.83-.76,7.36.77,9.02,4.1,3.11,6.25-2.67,14.53-8.98,14.46h0ZM126.14,395.65c.06-3.69-1.14-5.33-3.54-5.38-.97-.02-2.13.22-2.9.77-3.35,2.37-5.2,5.74-5.68,9.79-.2,1.68.55,3.03,2.05,3.96,1.54.95,3.13.81,4.43-.18,3.23-2.45,5.18-5.72,5.63-8.95h0Z"/><path d="M257.23,422.07c-.23,1.76-.64,3.33-1.45,4.79-2.92,5.26-9.96,5.75-13.46.91-2.43-3.36-2.87-7.06-1.31-10.85,1.33-3.22,3.94-4.78,7.42-4.83s5.84,1.82,7.29,4.74c.79,1.61,1.03,3.49,1.52,5.24h0ZM243.31,419.47c.23,2.8.7,5.14,1.79,7.31,1.02,2.05,2.78,2.99,4.84,2.68,1.88-.28,3.04-1.5,3.46-3.78.56-3.05.09-5.99-1.14-8.82-.27-.62-.66-1.2-1.09-1.73-2.46-3.04-6.22-1.5-7.19,1.31-.38,1.08-.51,2.25-.67,3.02h0Z"/><path d="M174.34,26.27c-.99,2-2.22,2.67-4.19,2-1.13-.38-1.73-.19-2.46.63-1.03,1.15-2.42,1.75-3.93,2.07-1.86.39-3.57-.27-4.46-1.72-.96-1.56-.86-3.84.3-5.19.49-.56,1.09-1.04,1.68-1.49.76-.59,1.52-1.17,2.34-1.66,2.95-1.75,2.33-4.21,1.11-6.35-.58-1.02-1.44-1.39-2.59-1.16-1.16.23-2,1-2.21,2.13-.07.4.04.83-.05,1.22-.11.52-.19,1.18-.54,1.47-.53.44-1.33.92-1.93.83-.89-.13-.95-1.17-.77-1.87.22-.9.57-1.86,1.16-2.55,1.67-1.97,3.86-2.97,6.5-2.96,1.79,0,3.06.77,3.62,2.46.75,2.27,1.37,4.58,2.03,6.87.28.98.5,1.99.8,2.97.73,2.4,1.04,2.6,3.59,2.3h0ZM166.49,20.26c-1.17.98-2.11,1.73-3,2.54-.54.49-1.11,1.02-1.47,1.64-.66,1.14-.41,2.73.44,3.62.91.95,2.06,1.08,3.21.65,1.21-.45,2.04-1.27,2.12-2.71.1-1.89-.51-3.6-1.3-5.74Z"/><path d="M405.17,255.33c-1.73-2.18-1.62-3.01.44-5.59-.2-1.92-.59-3.67-.51-5.39.12-2.49,1.65-4.03,3.7-4.21,2.26-.2,4.31,1.12,5.01,3.39.48,1.56.76,3.19,1.15,4.78.64,2.6,3.95,3.92,6.17,2.47.84-.55,1.03-1.4.95-2.34-.09-1.07-.33-2.07-1.5-2.45-.97-.31-1.84-.73-1.93-1.85-.04-.56.03-1.38.39-1.66.35-.28,1.24-.24,1.68.02.67.4,1.34,1.01,1.7,1.7,1.3,2.49,1.41,5.08.36,7.72-.57,1.45-1.65,2.15-3.14,2.23-.95.05-1.92,0-2.87-.12-2.71-.36-5.42-.78-8.13-1.16-2.46-.34-2.83-.09-3.48,2.46h0ZM414.26,250.35c-.69-1.99-1.13-3.64-1.82-5.17-.62-1.37-2.24-1.91-3.87-1.6-1.04.2-1.71.75-1.91,1.85-.31,1.68.14,3.46,1.37,3.98,1.86.78,3.87,1.11,6.23.95h0Z"/><path d="M161.81,408.47c1.92-1.5,3.62-1.09,5.69,1.26.4-.08.86-.14,1.31-.27,1.72-.48,3.4-.3,5.04.29,1.61.58,2.66,1.99,2.61,3.58-.05,1.81-.6,3.49-2.47,4.12-1.4.47-2.93.58-4.41.82-1.01.17-2.03.27-3.04.44-.9.15-1.49.69-1.7,1.57-.21.93-.46,1.87-.52,2.81-.08,1.37.37,2,1.48,2.4,1.14.41,2.51.13,3.2-.69.3-.37.46-.88.81-1.17.5-.42,1.09-.88,1.7-.97.51-.08,1.33.18,1.59.57.25.36.11,1.2-.16,1.64-.34.54-.93,1.01-1.51,1.31-2.6,1.35-5.26,1.31-7.88.04-1.78-.86-2.51-2.09-2.14-4.2.46-2.62,1.18-5.19,1.81-7.78.22-.93.54-1.84.74-2.77.33-1.59.11-1.93-1.49-2.58-.18-.07-.34-.2-.68-.4l.02-.02ZM165.66,416.96c1.85.23,4.81-.15,5.79-.65,1.8-.91,2.3-3.26,1-4.66-1.56-1.68-4.63-1.26-5.51.86-.57,1.37-.83,2.85-1.28,4.45Z"/><path d="M409.72,298.6c-.08,4.26-3.75,7.29-6.85,7.59-4.06.38-7.42-.82-9.99-3.97-1.86-2.29-2.29-4.97-1.27-7.72,1.11-2.99,3.4-4.7,6.56-5.2,3.67-.58,9.54,1.92,10.96,6.52.28.9.4,1.85.59,2.78h0ZM403.53,303.36c.6-.11,1.53-.12,2.33-.46,2.31-.98,2.98-4.24,1.18-6.27-2.63-2.98-6.12-4.32-10.03-4.43-1.73-.05-3.24.71-3.93,2.45-.73,1.84-.35,3.51,1.1,4.88,2.55,2.39,5.57,3.66,9.35,3.82h0Z"/><path d="M386.4,128.05c.59.82.94,1.3,1.29,1.79-.75.91-1.38.25-1.95-.15-1.67-1.17-1.32-2.82-.95-4.58-.5-.28-1.02-.57-1.54-.86-1.44-.81-2.4-2.01-2.93-3.55-.67-1.93-.2-3.73,1.22-4.81,1.65-1.26,3.73-1.42,5.35-.25,1.27.91,2.43,1.98,3.63,3.01,2.28,1.96,4.94,1.61,6.62-.89.6-.9.5-1.81-.03-2.7-.64-1.09-1.7-1.65-2.95-1.29-1.06.31-1.92.19-2.59-.62-.31-.37-.58-1.05-.44-1.44.14-.41.76-.81,1.23-.91.57-.12,1.24-.02,1.8.17,2.81.96,4.5,3.02,5.36,5.78.58,1.87.13,3.28-1.66,4.42-2.18,1.39-4.51,2.57-6.78,3.82-.84.46-1.73.83-2.53,1.35-.72.47-1.35,1.08-2.14,1.73v-.02ZM391.44,121.15c-1.61-1.32-2.86-2.91-4.85-3.32-.85-.17-1.89.07-2.7.44-1.07.49-1.57,1.97-1.26,2.94.55,1.77,2.36,2.93,4.16,2.44,1.62-.44,3.12-1.21,4.66-2.51h0Z"/><path d="M60.53,333.12c1.95.78,3.15,1.91,3.39,3.75.13.95.62,1.36,1.34,1.85,1.1.76,2.18,1.64,3.03,2.67,1.44,1.76,1.43,4.06.2,5.47-1.29,1.49-4.04,2.08-5.86,1.13-1.45-.76-2.81-1.69-4.2-2.55-2.26-1.38-3.95-.99-5.38,1.26-.55.86-.87,1.75-.08,2.63.77.86,1.52,1.84,2.91,1.51.4-.09.77-.27,1.16-.41.99-.36,1.75.1,2.39.75.69.71.54,1.6-.38,2-.53.23-1.21.35-1.77.24-3.3-.62-5.45-2.68-6.7-5.71-.57-1.4-.28-2.73.85-3.75,1.17-1.05,2.42-2,3.65-2.96,1.24-.97,2.52-1.87,3.75-2.85,2.41-1.9,2.4-1.92,1.69-5.04h.01ZM57.29,343.19c1.36.79,2.35,1.38,3.36,1.94.48.26.98.49,1.5.66,1.5.51,3.08-.09,3.91-1.44.65-1.07.54-2.55-.27-3.44-1.2-1.32-3.17-1.66-4.67-.67-1.24.82-2.36,1.8-3.83,2.95h0Z"/><path d="M408.2,175.34c-4.44,0-8.16-3.41-8.41-8.11-.12-2.2.77-4.19,2.35-5.72,3.06-2.95,6.76-3.86,10.79-2.57,3.35,1.08,5.3,3.59,5.58,7.13.27,3.4-1.42,5.89-4.19,7.68-1.77,1.14-3.79,1.5-6.12,1.58h0ZM406.75,172.21c3.29-.36,6.14-.97,8.59-2.79,1.48-1.1,1.92-2.61,1.63-4.35-.27-1.65-1.34-2.56-2.9-3.09-2.5-.84-4.86-.18-7.23.47-1.59.44-3.07,1.14-4.26,2.34-2.12,2.15-1.49,5.64,1.31,6.75,1,.4,2.11.5,2.87.67h0Z"/><path d="M287.03,402.24c.98-2.81,2.26-3.37,5.43-2.48.33-.47.71-.94,1.03-1.46,1.1-1.75,2.82-2.6,4.73-2.94,2.78-.5,5.31,2.64,4.28,5.38-.42,1.11-1.26,2.09-2.03,3.02-.83.99-1.81,1.85-2.74,2.76-1.02.99-1.17,2.11-.51,3.35.26.48.49.98.79,1.43.83,1.23,1.97,1.63,3.15,1.17,1.38-.54,2.14-1.59,1.82-3.03-.3-1.32.2-2.11,1.18-2.76.85-.56,1.68-.29,1.87.71.13.7.1,1.55-.19,2.18-1.29,2.78-3.5,4.49-6.53,5.03-1.82.32-3.25-.34-4.07-2.02-1.22-2.52-2.37-5.07-3.55-7.61-.12-.25-.2-.51-.32-.75-1.25-2.56-1.57-2.72-4.32-1.98h-.02ZM295.57,406.55c1.72-1.34,3.09-2.59,3.84-4.27.35-.77.32-1.9.04-2.73-.5-1.44-1.94-1.88-3.61-1.4-1.44.42-2.52,1.99-2.12,3.52.42,1.61,1.17,3.14,1.84,4.88h0Z"/><path d="M25.47,212.43c1.68,1.57,1.67,3.4,0,5.64.41.82.89,1.65,1.24,2.53.27.69.44,1.45.51,2.19.23,2.38-.85,4.27-2.66,4.77-2.64.73-4.77-.1-5.88-2.4-.71-1.48-1.31-3.01-1.92-4.53-.39-.98-.82-1.97-1.98-2.15-1.5-.23-3.08-.26-4.35.69-1.48,1.1-.66,3.97,1.31,4.57,1.07.32,1.88.74,2.23,1.85.39,1.22-.33,2.11-1.57,1.76-.69-.2-1.39-.63-1.88-1.15-2.17-2.3-2.5-5.11-1.85-8.06.36-1.64,1.67-2.51,3.72-2.62,3.08-.16,6.16-.26,9.24-.38.48-.02.96-.02,1.44-.05,1.6-.11,1.64-.16,2.06-1.69.09-.32.22-.62.35-.97h-.01ZM17.2,218.46c.92,1.77,1.61,3.39,2.55,4.85.85,1.32,2.58,1.65,4.02,1.04,1.25-.53,1.81-1.54,1.63-2.95-.19-1.52-1.15-2.82-2.43-2.91-1.81-.12-3.63-.03-5.77-.03Z"/><path d="M84.08,57.73c-.14-3.18,1.49-5.55,4.23-7.07,2.74-1.52,5.55-1.16,8.19.47,2.87,1.78,4.65,4.45,4.8,7.73.23,5.1-3.87,8.83-8.62,8.6-4.27-.21-8.97-4.93-8.6-9.72h0ZM98.63,61.07c.41-3.28-4.08-8.5-7.07-9.04-.13-.02-.27-.07-.4-.09-2.91-.41-5.38,2.28-4.68,5.11.82,3.28,2.8,5.73,5.6,7.51,1.47.93,3.1,1.09,4.65.17,1.4-.83,2.09-2.12,1.9-3.66Z"/><path d="M347.05,56.56c.37,4.37-4.06,9.28-9.03,9.33-4.36.05-8.48-4.18-8.3-8.44.21-4.94,4.49-9.15,9.49-9.11,4.15.03,8.19,3.61,7.83,8.22h.01ZM340.29,50.33c-.94.34-1.98.53-2.8,1.06-2.6,1.7-4.37,4.09-5.15,7.11-.43,1.65.15,3.1,1.47,4.2,1.59,1.33,3.68,1.37,5.7.04,2.05-1.34,3.55-3.2,4.55-5.41.35-.78.5-1.71.52-2.58.04-2.6-1.6-4.19-4.28-4.42h-.01Z"/><path d="M207.19,13.39c-.18-3.66,1.19-6.43,4.16-8.3,2.93-1.84,8.65-1.64,10.91,3.1,1.84,3.87,1.73,7.75-.75,11.48-2.49,3.75-10.35,4.91-13.45-1.44-.78-1.59-.97-3.26-.87-4.84h0ZM210.32,13.72c.23,1.16.44,2.87.94,4.49.56,1.84,1.92,3.04,3.9,3.12,1.9.08,3.22-.99,3.97-2.71,1.64-3.75,1.44-7.51-.34-11.1-1.39-2.81-5.43-2.76-7.07-.07-1.08,1.77-1.18,3.75-1.4,6.27Z"/><path d="M24.35,178.04c-3.54-.02-6.47-1.11-8.63-4.01-3.15-4.24-1.16-10.25,3.49-12.15,4.7-1.92,11.03.64,12.98,5.27,1.86,4.43-1.13,10.61-6.87,10.84-.34,0-.68.04-.96.05h0ZM20.78,164.4c-.65.15-1.85.25-2.87.71-2.67,1.21-3.31,4.75-1.09,6.65,3.11,2.65,6.85,3.6,10.88,2.97,1.76-.28,3.15-1.31,3.5-3.27.33-1.87-.37-3.31-1.86-4.44-2.39-1.81-5.18-2.32-8.56-2.63h0Z"/><path d="M68.44,94.23c-.05,2.44-1.27,3.76-3.4,4.35-.3,1.03-.5,2.04-.88,2.98-.33.81-.8,1.59-1.34,2.28-1.25,1.63-2.85,2.19-4.48,1.66-2.01-.65-3.42-2.38-3.32-4.43.06-1.28.46-2.54.74-3.81.15-.66.35-1.32.55-1.97.88-2.89-.98-4.07-3.28-4.6-1.62-.37-3.35,2.04-2.69,3.62.18.43.54.79.75,1.21.21.41.46.87.47,1.31.02.9-.84,1.97-1.49,1.97-1.06,0-1.33-.84-1.56-1.63-.87-2.95,1.35-7.57,4.19-8.83.81-.36,1.57-.49,2.35-.05,1.01.56,2.05,1.08,2.99,1.74,2.07,1.45,4.09,2.98,6.13,4.48,1.14.84,2.27,1.31,3.39-.06.13-.15.47-.13.86-.23h.02ZM57.88,93.95c-.27,1.95-.63,3.68-.71,5.43-.07,1.59.89,2.66,2.27,3.01,1.25.31,2.4-.09,3.08-1.08.74-1.09.87-3.23.02-4.05-1.3-1.27-2.71-2.44-4.66-3.31Z"/><path d="M344.61,366c.24-2.64,1.22-3.59,4.17-4.2.28-.76.53-1.61.9-2.39.82-1.71,1.93-3.16,3.87-3.7,3.19-.88,5.95,1.86,5.05,5.07-.31,1.11-.87,2.15-1.34,3.22-.38.88-.87,1.71-1.19,2.61-.78,2.17,1.51,4.84,3.77,4.45,1.57-.27,2.74-2.36,2.06-4.04-.48-1.18-.41-2.1.46-2.99.67-.69,1.42-.65,1.81.2.27.6.46,1.34.37,1.97-.47,3.28-2.34,5.6-5.2,7.19-.85.47-1.72.49-2.52-.03-.92-.59-1.86-1.18-2.63-1.93-1.52-1.47-2.93-3.06-4.4-4.59-.33-.34-.71-.64-1.09-.94-1.59-1.25-1.62-1.24-3.36-.13-.16.1-.38.12-.74.22h.01ZM353.93,367.23c.22-.1.44-.2.66-.3.59-1.65,1.24-3.28,1.73-4.95.33-1.14-.14-2.19-1.03-2.92-.85-.69-1.92-.7-2.91-.29-1.81.74-2.51,3.57-1.25,5.25.85,1.13,1.85,2.15,2.79,3.22h0Z"/><path d="M28.08,237.47c-.2,3.89-1.79,6.4-4.95,7.85-4.23,1.94-8.3,1.71-11.88-1.38-2.85-2.46-3.55-6.63-1.88-10.15.54-1.14,1.86-1.62,2.95-1.24,1.39.48,1.69,1.6.72,2.71-.27.31-.6.56-.89.85-2.13,2.07-1.65,4.82,1.11,5.81,2.95,1.06,5.92.91,8.79-.36.61-.27,1.2-.67,1.7-1.12,2.74-2.47,1.97-5.24-.19-7.49-.28-.29-.74-.43-.97-.74-.2-.27-.4-.83-.26-1.02.17-.24.75-.43,1.04-.32,1.74.63,3.08,1.84,3.86,3.48.51,1.09.65,2.35.86,3.14v-.02Z"/><path d="M20.93,209.47c.68-.59,1.06-.91,1.43-1.24.9-.82,1.95-1.53,2.66-2.48.82-1.1.85-2.42.07-3.67-.77-1.24-1.96-1.37-3.24-1.24-.98.1-1.58.69-2.06,1.51-.94,1.59-1.8,3.25-2.95,4.68-2.24,2.78-6.96,2.09-8.09-1.22-.44-1.29-.3-2.84-.19-4.25.09-1.14.55-2.24.89-3.51h4.69c.02,1.08-.65,1.27-1.39,1.52-1.51.5-2.64,1.41-2.92,3.11-.21,1.29.33,2.39,1.45,2.87,1.13.49,2.02.29,2.88-.79.5-.64.88-1.38,1.31-2.08.64-1.05,1.22-2.15,1.94-3.14,2.5-3.46,8.14-2.05,9.32,1.27.9,2.53.62,4.99-.34,7.41-.29.73-.86,1.19-1.7,1.32-1.06.17-2.11.56-3.75-.06h-.01Z"/><path d="M318.14,33.01c-.17,1.39-.76,2.69-2.1,4.37-.14-.7-.24-1.16-.32-1.63-.18-.99-.23-2.03-.56-2.98-.46-1.32-1.63-1.81-2.93-1.85-1.72-.05-2.78,1.64-2.09,3.33.31.75.81,1.42,1.26,2.1.5.74,1.08,1.42,1.57,2.16,1.67,2.54,1.62,4.87-.1,7-1.63,2.01-4.05,2.73-6.64,1.58-1.52-.68-2.85-1.84-4.18-2.88-.61-.48-.81-1.28-.46-2.06.41-.92.22-2.19,1.62-2.89.16.75.22,1.33.41,1.88.37,1.09.65,2.25,1.26,3.2.94,1.45,2.98,1.8,4.38.96,1.43-.85,1.93-2.66,1.07-4.3-.47-.9-1.14-1.7-1.7-2.55-.52-.8-1.13-1.57-1.5-2.44-.82-1.93-.51-3.79.89-5.34,1.42-1.56,3.21-2.06,5.22-1.3.82.31,1.6.78,2.3,1.31.91.7,1.71,1.53,2.59,2.34h0Z"/><path d="M35.92,314.95c-.32.55-.62,1.12-.96,1.66-.86,1.37-1.09,2.79-.29,4.25.52.95,1.25,1.68,2.43,1.56,1.2-.12,2.09-.77,2.35-1.96.2-.92.2-1.89.22-2.84.03-1.23-.02-2.45-.02-3.68,0-2.21,1.58-4.19,4.24-4.87,2.41-.61,4.84.17,6.14,2.22.79,1.25,1.32,2.68,1.85,4.08.49,1.28.26,2.4-1.05,3.17-.72.42-1.2,1.33-2.55,1,.34-.67.65-1.23.91-1.8.72-1.6,1.16-3.19.16-4.89-.71-1.21-1.77-1.74-3.04-1.7-1.6.05-2.75,1.06-3.01,2.59-.19,1.13-.12,2.31-.19,3.46-.07,1.22,0,2.48-.29,3.65-.5,2.11-2.31,3.52-4.41,3.71-2.14.19-4.29-1.01-5.12-3.04-.54-1.32-.89-2.72-1.24-4.1-.08-.32.06-.9.31-1.07.96-.7,2.01-1.28,3.02-1.9.17.17.34.34.51.51h.03Z"/><path d="M22.7,193.55c.91-.54,1.51-.92,2.13-1.26,1.31-.72,2.32-1.67,2.73-3.17s-.12-3.09-1.31-3.8c-1.32-.79-3-.56-4.11.67-.68.76-1.21,1.65-1.83,2.47-.62.82-1.19,1.68-1.91,2.4-1.62,1.65-3.64,1.94-5.64.92-1.7-.87-2.9-3.24-2.49-5.23.29-1.4.69-2.79,1.21-4.12.18-.45.87-.94,1.34-.96,1.12-.06,2.26.15,3.38.25,0,1.15-.72,1.15-1.27,1.32-1.07.33-2.03.83-2.7,1.76-.97,1.34-.83,3.24.3,4.09,1.18.9,2.97.61,4-.76,1.03-1.36,2.07-2.74,2.89-4.23,1.75-3.14,7.76-2.63,9.28,1.24,1.14,2.89.26,5.49-1.02,8.06-.11.22-.38.46-.61.5-1.32.23-2.65.56-4.39-.15h.02Z"/><path d="M305.06,396.59c-.1-.46-.24-.83-.24-1.19.05-4.76,4.8-8.21,9.53-6.95,5.13,1.35,9.1,8.33,7.25,13.41-1.33,3.63-4.75,5.29-7.85,5.75-.32.05-.69-.03-1.01-.14-.82-.28-1.71-1.79-1.41-2.48.43-.99,1.35-.78,2.14-.66.94.14,1.86.51,2.79.55,1.56.06,2.58-.88,2.83-2.38.73-4.45-1.96-9.1-5.39-10.93-2.84-1.51-6.28-.12-7.37,2.95-.25.72-.15,1.65-1.28,2.08h.01Z"/><path d="M200.63,5.9c.21,1.49.4,2.86.61,4.29-1.2.09-1.31-.72-1.65-1.25-.96-1.53-2.28-2.32-4.13-2.04-1.16.18-1.95.85-2.19,1.86-.25,1.04.24,2.23,1.26,2.79.72.39,1.51.64,2.27.94,1.15.44,2.35.77,3.44,1.33,3.59,1.81,3.93,6.9.62,9.21-2.32,1.62-4.93,1.54-7.5.96-1.56-.35-2.43-2.94-1.59-4.68.74.79,1.39,1.56,2.13,2.25,1.12,1.04,2.47,1.44,3.98,1.1,1.05-.24,1.98-.77,2.25-1.87.29-1.21.41-2.51-.81-3.35-.77-.54-1.62-.97-2.48-1.37-1.24-.57-2.55-.99-3.77-1.6-1.99-.98-2.52-2.74-2.35-4.82.16-1.96,1.44-3.07,3.06-3.77.85-.36,1.86-.44,2.8-.43,1.22.02,2.44.26,4.05.45Z"/><path d="M77.43,76.91c1.39.08,2.34.15,3.29.19,1.35.06,2.58-.29,3.6-1.2,1.04-.93,1.35-2.65.72-3.75-.71-1.22-1.82-1.66-3.36-1.19-1.7.52-3.34,1.25-5.05,1.67-2.7.66-4.85-.57-5.48-2.96-.4-1.5.01-2.88.92-4.05.79-1.02,1.76-1.9,2.68-2.83.52-.53,1.09-1.01,1.72-1.58,1.33.92,2.63,1.68,3.6,3.5-1.16-.1-1.93-.19-2.7-.24-1.41-.1-2.72.06-3.69,1.29-.72.92-.9,2.17-.35,3.04.53.84,1.5,1.16,2.73.78,1.04-.32,2.05-.77,3.08-1.13.77-.27,1.55-.54,2.34-.75,1.99-.53,3.66.04,4.96,1.61,1.37,1.66,1.37,3.54.58,5.41-.98,2.33-2.94,3.71-5.1,4.84-.23.12-.57.27-.77.19-1.35-.54-2.73-1.07-3.71-2.83h-.01Z"/><path d="M404.1,136.96c.38-.54.75-1.09,1.14-1.63.82-1.11,1.09-2.33.72-3.68-.39-1.42-1.22-2.06-2.65-2.05-1.38,0-2.06.51-2.41,2.01-.22.92-.27,1.89-.34,2.84s-.05,1.92-.11,2.87c-.12,2.13-1.25,3.74-3.15,4.43-1.88.68-3.94.73-5.64-.72-2.19-1.86-2.98-4.35-3.03-7.12,0-.31.07-.76.28-.93.98-.8,2.02-1.52,3.06-2.28.72,1.02.05,1.52-.28,2.05-.74,1.2-1.2,2.46-1.04,3.89.27,2.46,2.32,3.72,4.61,2.83,1.32-.51,1.76-1.66,1.89-2.94.16-1.56.3-3.13.35-4.7.1-3.21,2.65-4.57,4.59-4.61,2.48-.04,4.11,1.14,5.08,3.97.4,1.15.58,2.39.78,3.6.06.34-.08.94-.32,1.07-1.03.57-1.96,1.44-3.21,1.48-.1-.13-.21-.27-.31-.4v.02Z"/><path d="M64.24,73.61c1.48.62,2.78,1.39,3.92,3.09-.86.04-1.42.12-1.97.08-1.52-.12-2.86.2-3.86,1.43-.82,1.01-.94,2.25-.34,3.04.57.75,1.6.99,2.81.55.83-.3,1.6-.76,2.42-1.1,1.07-.44,2.13-.93,3.24-1.23,3.77-1.05,7.11,3.52,5.56,6.69-1.06,2.18-2.52,3.87-4.6,5.07-.71.41-1.48.49-2.14.02-.85-.61-2.3-.61-2.41-2.33.62.05,1.14.05,1.64.15,1.84.37,3.38-.27,4.72-1.43,1.13-.98,1.34-2.31.71-3.53-.64-1.23-1.76-1.7-3.33-1.26-.78.22-1.52.6-2.28.92-.75.32-1.49.69-2.25.99-2.39.93-4.4.45-5.7-1.31-1.08-1.46-.9-4.3.45-5.95,1.08-1.32,2.24-2.56,3.41-3.89Z"/><path d="M381.16,112.49c-2.88.54-5.54-.82-7.17-3.44-3.28-5.27-.06-11.14,5.47-12.79,5-1.5,9.86,1.08,11.2,7.53.28,1.33-.76,2.51-2.19,2.7-.87.12-1.37-.3-1.34-1.12.03-.74.23-1.48.43-2.2.78-2.87-1.4-5.18-4.35-4.58-2.35.47-4.35,1.56-6,3.32-2.74,2.94-1.93,7.37,1.71,9.1.49.23,1.07.3,1.53.56.29.17.45.56.72.92h0Z"/><path d="M409.18,152.49c.51-.72.72-1.16,1.05-1.45,1.3-1.17,1.27-2.67,1.07-4.18-.17-1.22-1.06-1.97-2.21-2.04-1.21-.07-2.1.49-2.36,1.79-.37,1.87-.59,3.78-.82,5.68-.54,4.42-5.73,5.35-8.21,3.52-1.37-1.01-2.22-2.41-2.67-4.03-.29-1.05-.49-2.15-.54-3.23-.02-.54.24-1.29.64-1.61.87-.71,1.92-1.2,2.84-1.75.85.81.22,1.21-.04,1.74-.57,1.14-1.31,2.28-1.5,3.5-.31,1.97,1.18,3.61,2.98,3.66,1.53.05,2.67-.68,3.08-2.18.29-1.05.36-2.15.53-3.23.16-1.01.26-2.04.52-3.02.52-1.97,2.04-2.86,3.9-3.17,1.78-.3,3.28.38,4.23,1.9.57.9.98,1.94,1.24,2.98.29,1.18.33,2.43.49,3.75-1.23.63-2.29,1.59-4.22,1.37h0Z"/><path d="M417.66,271.01c-1.4-.2-2.57-.36-3.83-.53.22-1.33,1.24-1.2,1.91-1.49,1.68-.72,2.56-1.88,2.58-3.58.01-.95-.28-1.74-1.15-2.25-.94-.55-1.89-.51-2.67.17-.71.62-1.26,1.42-1.89,2.14-.89,1.03-1.71,2.14-2.68,3.09-2.81,2.77-8.21.54-8.59-3.41-.24-2.43.46-4.6,1.65-6.65.19-.33.56-.7.9-.76,1.32-.24,2.67-.46,4.32.43-.76.41-1.28.64-1.74.95-1.01.67-2.17,1.23-2.95,2.12-1.39,1.58-1.15,3.56.3,4.75,1.36,1.11,3.46.8,4.75-.75.83-1,1.56-2.08,2.39-3.08,1.03-1.25,2.25-2.18,4-2.18,3.28-.01,5.58,2.68,4.77,5.93-.44,1.75-1.35,3.38-2.07,5.13v-.03Z"/><path d="M409.46,285.97c.73-.25,1.45-.49,2.18-.74,1.76-.62,2.59-1.76,2.62-3.5.02-.96-.22-1.79-1.1-2.27-.91-.49-1.89-.51-2.71.16-.79.64-1.5,1.4-2.21,2.13-.62.64-1.17,1.35-1.8,1.96-1.93,1.86-4.15,2.14-6.6.87-1.91-.99-3.08-3.42-2.66-5.77.17-.93.47-1.86.83-2.74,1.33-3.26,2.76-3.81,6.16-2.37-.35.84-1.21.79-1.86,1.03-1.53.58-2.83,1.37-3.47,2.97-.57,1.42-.27,2.78.85,3.71,1.05.87,2.72,1.04,3.83.24.82-.6,1.5-1.39,2.25-2.09.94-.89,1.79-1.91,2.85-2.63,2.88-1.94,6.65-.16,7.14,3.29.2,1.41-.02,2.72-.74,3.96-.34.59-.65,1.2-.96,1.81-.75,1.5-.81,1.55-2.56,1.16-.69-.16-1.36-.42-2.03-.64v-.53h-.01Z"/><path d="M176.29,22.25c1.17.12,1.58.91,2.15,1.44,1.32,1.21,2.83,1.61,4.55,1.18,1.25-.31,1.88-1.04,2.05-2.25.24-1.76-.08-2.71-1.37-3.32-1.04-.49-2.18-.78-3.29-1.14-.72-.23-1.46-.38-2.17-.62-2.11-.71-3.62-2.81-3.47-4.79.16-2.05,2.09-4.14,4.29-4.36,1.68-.17,3.4-.03,5.22-.03.41,1.26,1.25,2.4.44,4.42-.46-.69-.74-1.13-1.03-1.56-1.04-1.51-2.56-1.68-4.2-1.46-1.24.17-1.9.82-2.02,1.94-.14,1.27.32,2.23,1.44,2.66.89.34,1.84.53,2.76.78s1.87.43,2.77.75c2.07.74,3.22,2.23,3.38,4.43.17,2.24-.55,4.03-2.62,5.14-2,1.07-4.11,1.31-6.35,1-.94-.13-1.52-.53-1.8-1.39-.28-.87-.96-1.64-.76-2.84l.03.02Z"/><path d="M317.24,45.78c.09.97.17,1.75.23,2.52.13,1.65.65,3.09,2.18,3.94.46.26,1.01.44,1.53.48,2.21.19,3.37-1.12,2.87-3.3-.16-.71-.58-1.38-.94-2.03-.61-1.07-1.33-2.07-1.9-3.16-.9-1.71-.89-3.43.32-5,1.2-1.55,2.93-1.96,4.6-1.28,1.93.79,3.69,2.01,5.51,3.07.2.12.33.45.37.7.16.87-1.41,3.17-2.62,3.69-.12-1.05-.2-2.05-.36-3.05-.23-1.44-1.65-2.72-3.09-2.83-1.75-.13-2.8,1.07-2.19,2.71.4,1.07,1.14,2.01,1.71,3.01.57,1,1.17,2,1.69,3.03,1.45,2.89-1.4,6.4-4.24,6.42-3.37.03-5.59-1.85-7.51-4.31-.16-.2-.26-.49-.29-.75-.1-.9.89-2.81,2.11-3.88l.02.02Z"/><path d="M143.11,405.64c-.21-.9-.28-1.51-.5-2.06-.4-1.01-.75-2.08-1.38-2.94-1.06-1.45-3.35-1.77-4.61-.82-1.31.99-1.56,3.08-.45,4.63.64.89,1.44,1.65,2.14,2.49,1.1,1.34,2.01,2.74,1.81,4.63-.23,2.16-1.57,3.63-3.76,3.92-1.79.24-3.38-.15-4.78-1.33-.78-.65-1.63-1.23-2.56-1.93.26-1.34.39-2.79,1.91-4.13.19,1.17.29,2.01.46,2.84.37,1.77,1.54,2.87,3.16,3.05,1.88.2,3.21-1.48,2.42-3.18-.39-.85-1.05-1.59-1.65-2.33-.64-.8-1.42-1.5-2.01-2.33-1.35-1.91-1.43-3.99-.33-6.01,1.07-1.96,2.92-2.58,5.06-2.42,2.37.18,4.28,1.34,5.97,2.91.24.22.54.6.5.86-.19,1.31,0,2.75-1.41,4.15h0Z"/><path d="M40.78,330.83c2.15-2.11,2.69-2.43,4.19-2.44-.25.6-.47,1.14-.69,1.67-.63,1.51-.49,2.96.46,4.28.59.82,1.43,1.35,2.47,1.12,1.13-.25,1.47-1.18,1.43-2.21-.05-1.16-.21-2.31-.34-3.46-.09-.81-.31-1.62-.33-2.44-.03-2.18,1.01-3.74,2.91-4.52,1.88-.78,4.48-.4,5.68,1.14,1.08,1.38,1.87,2.99,2.7,4.54.68,1.27.34,2.38-.79,3.26-.61.47-1.24.93-1.86,1.4l-.36-.27c.07-.42.04-.9.23-1.26.72-1.36.58-2.81.45-4.23-.11-1.23-1.33-2.42-2.52-2.69-1.48-.34-2.92.65-2.99,2.28s.17,3.27.27,4.91c.03.54.07,1.09.08,1.63.03,1.98-1.07,3.19-2.81,3.87s-3.27.09-4.52-1.11c-1.6-1.53-2.56-3.51-3.69-5.49l.03.02Z"/><path d="M263.61,422.74c.56.44.97.68,1.27,1.03,1.13,1.29,2.58,1.45,4.13,1.2,1.23-.19,1.81-.83,1.95-2.01.16-1.38-.2-2.18-1.39-2.64-.89-.34-1.84-.51-2.77-.72-.87-.19-1.76-.28-2.62-.5-2.92-.76-4.31-2.43-4.36-5.18-.05-2.54,1.5-4.66,4.12-5.46,1.04-.32,2.14-.51,3.22-.57,2.71-.17,3.75.89,3.95,4.18-.57-.37-1.02-.58-1.36-.9-1.04-.99-2.25-1.53-3.67-1.61-2.13-.11-3.46.87-3.7,2.72-.21,1.56.95,3.16,2.72,3.61,1.32.34,2.69.51,4.01.83,1.77.43,3.39,1.12,4.05,3.05,1.07,3.16-.75,6.16-4.1,6.64-1.21.17-2.46.14-3.69.22-.7.04-1.24-.2-1.38-.92-.17-.88-1-1.65-.39-2.96h.01Z"/><path d="M179.12,415.59c-.55-1.05-.03-1.44.4-1.87,3.41-3.36,9.08-2.77,11.79,1.24,3.19,4.71,1.33,14.04-5.98,15.45-2.62.5-5.02-.41-7.07-2.02-.45-.36-.6-1.35-.54-2.02.04-.49.56-1.15,1.03-1.36.71-.32,1.29.23,1.66.86.28.47.5.98.78,1.44,1.13,1.85,2.95,2.26,4.72,1.03,1.74-1.21,2.52-3.05,2.97-5,.54-2.35.72-4.75-.37-7.03-1.38-2.9-4.74-3.81-7.45-2.04-.61.4-1.21.82-1.95,1.32h0Z"/><path d="M157.94,410.45c-.2-.6-.4-1.21-.59-1.81-.56-1.77-1.42-3.27-3.43-3.71-1.31-.29-2.44-.07-3.27,1.09-.91,1.26-.99,2.29-.05,3.58.6.82,1.37,1.52,2.05,2.28.72.82,1.52,1.59,2.13,2.49,2.03,2.98.18,6.84-3.4,7.08-.93.06-1.96-.06-2.8-.43-1.48-.67-2.84-1.59-4.35-2.47.68-1.31.31-2.82,1.8-3.97.19.77.39,1.32.45,1.88.16,1.51,1.03,2.5,2.28,3.22,1.14.66,2.43.53,3.21-.28.83-.85.89-2.31.07-3.38-.41-.54-.95-.98-1.42-1.47-.9-.93-1.9-1.8-2.69-2.82-1.88-2.42-1.01-6.46,1.7-7.81,1.67-.84,3.48-.58,5.22-.18.66.15,1.29.46,1.89.79,2.71,1.46,3.12,2.93,1.22,5.93h-.02Z"/><path d="M286.04,406.67c-.68-.45-1.24-.77-1.76-1.16-1.17-.89-2.5-1.07-3.9-.94-1.49.14-2.64,1.16-2.89,2.49-.27,1.46.48,2.83,1.97,3.42.62.25,1.31.34,1.98.44,1.29.18,2.6.23,3.87.48,2.47.49,3.7,1.96,3.8,4.38.09,2.27-1.32,4.35-3.53,4.92-1.38.36-2.82.54-4.25.71-.33.04-.92-.2-1.03-.46-.43-1.03-1.36-1.93-.96-3.57.57.42,1.07.69,1.44,1.08,1.2,1.26,2.69,1.25,4.2.95,1.13-.22,1.93-1.29,1.95-2.36.02-1.17-.79-2.19-2.09-2.41-1.42-.24-2.85-.33-4.28-.5-2.18-.27-4.26-.77-5.12-3.13-.9-2.46-.56-4.53,1.29-6.18,1.72-1.54,3.77-2.18,6.04-2.18,2.03,0,3.26,1.4,3.25,4l.02.02Z"/><path d="M283.65,21.38c-.34-.56-.74-1.09-1.02-1.67-.23-.49-.4-1.03-.48-1.56-.31-1.95-2.85-2.64-4.45-1.72-2.47,1.41-3.61,3.7-4.21,6.27-.29,1.23-.27,2.61-.1,3.87.46,3.32,3.7,5.19,6.9,4.1.68-.23,1.37-.44,2.04-.66.43,1.05-.25,1.33-.72,1.64-3.41,2.23-8.76.85-10.74-2.76-2.53-4.6-.4-11.3,4.33-13.61,3.06-1.49,7.62-.53,9.8,2.07,1.22,1.45.87,2.6-1.35,4.02h0Z"/><path d="M410.55,236.39c-.74.77-1.17.32-1.6,0-2.23-1.61-4.02-5.16-2.17-8.98,1.32-2.72,3.53-4.27,6.56-4.58,3.22-.32,6.21.06,8.89,2.2,3.39,2.7,3.06,8.34,1.36,10.88-.61.91-1.54,1.26-2.5.86-.46-.19-1.01-.62-1.11-1.03-.09-.38.3-.97.62-1.33.4-.45.97-.75,1.45-1.13,1.74-1.38,1.88-3.38.28-4.94-.48-.47-1.05-.92-1.67-1.17-2.71-1.12-5.47-1.64-8.39-.74-4.37,1.35-5.56,5.52-2.5,8.94.26.3.48.63.77,1.01h.01Z"/><path d="M64.51,357.21c.1,1.31.2,2.52.28,3.73.12,1.84,1.29,3.06,3.11,3.09,3.4.05,8.47-3.99,8.5-7.85.02-2.75-1.59-4.84-4.33-5.34-.76-.14-1.5-.32-2.23-.69,1.72-1.32,3.52-.94,5.14-.17,3.67,1.74,5.36,5.61,3.89,9.87-1.46,4.21-5.53,6.66-9.96,6.35-3.91-.28-6.42-3.71-7.22-6.4-.52-1.74.44-2.67,2.82-2.58h0Z"/><path d="M139.61,26.05c.1-5.73,4-9.61,10.01-8.72,1.24.18,2.11,1.9,1.58,3.02-.32.69-.9.84-1.54.54-.55-.26-1.04-.64-1.55-.99-2.47-1.66-4.61-.93-5.21,1.95-.82,3.99.38,7.49,3.39,10.17,2.75,2.45,6.53,1.49,8.21-1.85.06-.12.05-.32.14-.38.35-.22.73-.39,1.1-.58.07.37.27.77.18,1.09-1.21,4.36-6.39,6.73-10.54,4.81-4.01-1.86-5.28-5.44-5.77-9.07h0Z"/><path d="M54.85,106.9c.35.51.83.98,1.02,1.55,2,5.98-2.81,11-8.19,10.28-3.94-.53-7-2.49-8.29-6.39-1.43-4.32.55-7.76,3.68-10.02,1.21-.88,2.4-.59,3.2.58.59.86.43,1.57-.57,1.96-.69.27-1.46.33-2.2.45-2.05.34-3.15,2.06-2.57,4.04.98,3.34,5.37,6.45,8.8,6.25,3.65-.21,5.87-3.45,4.77-6.92-.15-.48-.2-.99-.29-1.49l.64-.28h0Z"/><path d="M360.22,354.52c-1.57-1.05-1.44-2.43-1.29-3.63.71-5.82,7.43-8.9,12.36-5.67,1.13.74,2.22,1.65,3.09,2.68,3.61,4.3,2.34,10.78-3.52,13.44-.48.22-1.32.16-1.74-.13-.49-.34-.92-1.06-.95-1.65-.02-.33.75-.82,1.26-1.04.48-.21,1.07-.17,1.62-.23,2.31-.28,3.41-1.62,3.12-3.92-.34-2.75-2.15-4.51-4.26-6-1.61-1.14-3.39-1.79-5.42-1.31-2.17.51-3.71,2.22-3.97,4.44-.11.93-.18,1.87-.29,3.02h0Z"/><path d="M27.94,247.53c.37.87.64,1.29.73,1.75.9,4.18.98,5.46.4,6.91-.27-.39-.52-.67-.66-1-.4-.89-1.11-1.19-2.01-1.06-3.38.52-6.75,1.04-10.12,1.62-1.2.21-1.98.87-1.77,2.29.04.29-.3.64-.55,1.14-1.65-1.62-2.02-3.68-3.44-5.59,2.02-.38,3.6-.7,5.19-.97,3.1-.52,6.21-1.03,9.32-1.48,1.39-.2,2.31-.73,2.33-2.29,0-.29.24-.57.58-1.33h0Z"/><path d="M369.78,337.18c-.93.6-1.56,1.02-2.2,1.43-.14-.14-.27-.28-.41-.42,1.09-2.49,2.87-4.52,4.44-6.69.16.04.32.08.48.12,0,.48.12.98,0,1.43-.26,1.1.15,1.85,1.01,2.46,2.34,1.65,4.65,3.36,7.03,4.97,2.03,1.38,2.09,1.33,4.08-.15.1-.07.26-.07.49-.13.12.18.43.46.38.6-.68,1.81-.92,3.8-2.24,5.61-4.36-3.26-8.57-6.48-13.08-9.24h.02Z"/><path d="M140.91,37.6c-1.74,1.58-6.14,3.53-7.52,3.44,0-.19-.08-.46,0-.55,1.31-1.16,1.17-2.44.46-3.86-1.16-2.32-2.2-4.71-3.36-7.03-1.15-2.3-1.22-2.3-3.73-1.97-.12.02-.25-.08-.56-.19.23-.39.38-.82.67-1.11.83-.81,1.71-1.57,2.6-2.32.94-.79,1.51-.71,2.09.42.93,1.83,1.74,3.71,2.62,5.57.88,1.85,1.82,3.68,2.63,5.56.56,1.3,1.41,1.95,2.84,1.84.31-.02.64.1,1.26.2h0Z"/><path d="M79.82,377.54c-2.05-.21-3.47-1.35-5.07-2.01-.62-.25-.61-.88-.24-1.39.28-.39.63-.72.96-1.06,2.66-2.75,5.28-5.53,8-8.21,1.19-1.17,1.64-2.29.74-3.79-.09-.14-.01-.39-.01-.74,1.59.34,2.24,1.71,3.25,2.58,1,.86,1.92,1.82,3.02,2.87-.52.18-.76.35-.86.29-1.78-1.05-3.02-.32-4.24,1.07-1.66,1.89-3.49,3.65-5.19,5.51-1.68,1.84-1.65,1.86-.52,3.99.09.17.08.38.17.88h0Z"/><path d="M198.46,432.08c.28-5.8,1.26-11.06,1.03-16.34-.75-.45-1.38-.82-2.06-1.22,1.31-.84,5.36-.62,7.62.33-.04.12-.05.35-.11.36-1.89.39-2.39,1.63-2.43,3.43-.05,2.25-.4,4.49-.59,6.74-.28,3.3-.27,3.3,2.57,4.78-.59,1.23-1.86.94-2.8,1.24s-1.94.42-3.23.69h0Z"/><path d="M32.26,124.51c-.53-1.47-.28-4.17.62-5.92.59.26,1.21.49,1.79.79,3.58,1.85,7.15,3.71,10.73,5.57.3.16.63.26.93.42.96.5,1.8.57,2.49-.47.2-.3.59-.47,1.02-.79.11.44.3.74.22.91-1.01,2.08-2.04,4.16-3.11,6.21-.09.17-.45.19-.8.33-.08-.37-.26-.67-.18-.86.66-1.66-.41-2.4-1.62-3.02-2.67-1.37-5.35-2.75-8.05-4.06-2.41-1.17-2.61-1.1-4.06.89h.02Z"/><path d="M260.89,11.17c2.37-.17,4.3-.31,6.56-.48-.32,1.4-.53,2.45-.79,3.48-.84,3.3-1.72,6.6-2.54,9.91-.5,2-.42,2.11,1.79,4.23-2.62.33-4.77-.96-7.07-1.21-.31-.03-.57-.4-.86-.62.18-.25.26-.45.34-.45,2.11.03,2.71-1.34,3.07-3.09.54-2.6,1.18-5.18,1.81-7.76.32-1.3.12-2.27-1.3-2.77-.32-.11-.52-.61-1.02-1.23h0Z"/><path d="M422.42,210.51c1.4,1.91,1.55,3.92,2.52,5.93-.9.11-1.54.24-2.18.25-3.84.07-7.68.11-11.52.15-1.54.02-3.11-.07-3.4,2.05-.02.18-.51.29-.99.54v-7.7c1.18.07.97,1.24,1.79,1.97,1.98.05,4.23.12,6.47.14,1.44,0,2.88-.04,4.32-.12,1.98-.1,2.11-.24,2.53-2.2.04-.19.16-.36.45-1.02h0Z"/><path d="M334.17,392.06c-1.09,2.15-2.5,3.49-3.87,5.25-.56-.71-1-1.19-1.36-1.72-2.25-3.27-4.51-6.52-6.69-9.83-.8-1.21-1.68-1.71-3.06-1.09-.22.1-.51.04-.92.06.42-1.7,1.99-1.91,2.99-2.68,1.02-.78,1.94-1.91,3.78-2.04-.48.95-.82,1.63-1.26,2.5.85,1.35,1.74,2.8,2.67,4.23.75,1.14,1.59,2.23,2.33,3.37,1.67,2.6,2.11,2.8,5.4,1.95h0Z"/><path d="M374.44,83.83c.59.13.96.12,1.21.29,1.14.76,2.25,1.57,3.37,2.35.66.46.7.98.12,1.52-.35.33-.75.59-1.14.88-2.79,2.1-5.59,4.19-8.37,6.29-.33.25-.59.58-.92.82-.92.68-1.44,1.44-.78,2.62.13.23.02.61-.18,1.01-1.92-1.72-3.51-3.65-4.94-6.14.57,0,.9-.1,1.03.02,1.26,1.07,2.4.63,3.52-.23,1.85-1.41,3.71-2.82,5.55-4.23,2.46-1.89,2.52-2.08,1.5-5.19h.03Z"/><path d="M70.98,382.47c.02,1.49-.92,2.48-2.39,2.5-1.22.02-2.08-.85-2.04-2.06.04-1.26,1.1-2.37,2.33-2.43,1.24-.06,2.08.73,2.09,1.98h.01Z"/><path d="M127.78,16.46c-.05,1.24-.91,2.17-2,2.17-1.17,0-2.43-1.24-2.39-2.38.03-1.05,1.12-2.17,2.1-2.18,1.23,0,2.34,1.15,2.29,2.38h0Z"/><path d="M24.35,118.28c-1.34.04-2.29-.91-2.29-2.32,0-1.23.59-1.81,1.93-1.87,1.45-.06,2.48.83,2.47,2.13-.01,1.19-.86,2.02-2.1,2.06h0Z"/><path d="M387.54,80.94c-.09,1.26-1.1,2.21-2.24,2.12-1.2-.09-2.17-1.19-2.06-2.33.12-1.18,1.2-2.06,2.39-1.95,1.28.13,1.99.93,1.9,2.15h0Z"/><path d="M391.32,347.98c1.13-.02,2.04.88,2.08,2.07.04,1.09-1.13,2.24-2.24,2.22-1.01-.02-1.93-1.09-1.93-2.24s.88-2.02,2.08-2.05h.01Z"/><path d="M267.99,4.12c-1.33.03-2.33-.85-2.35-2.05-.01-1.05,1-2.03,2.14-2.07,1.05-.04,2.16.96,2.21,2,.06,1.17-.82,2.1-2.01,2.12h.01Z"/><path d="M199.45,443.21c-1.2,0-2.08-.82-2.11-1.99-.03-1.12.89-2.13,1.98-2.18,1-.05,2.32,1.18,2.33,2.18,0,.94-1.14,1.98-2.2,1.99Z"/><path d="M4.15,256.79c0,1.24-.85,2.09-2.07,2.05-1.11-.03-2.07-1.03-2.08-2.14,0-1.15.93-2.05,2.12-2.03,1.2.02,2.02.88,2.02,2.12h0Z"/><path d="M338.65,403.5c.03,1.17-.88,2.21-1.94,2.23-1.11.02-2.19-.94-2.23-1.98-.05-1.21.77-2.12,1.97-2.18,1.21-.06,2.18.78,2.21,1.93h0Z"/><path d="M433.79,216.75c-1.2.03-2.13-.83-2.11-1.96.02-1.05,1.06-2.16,2.03-2.17,1,0,2.09,1.05,2.14,2.07.05,1.1-.88,2.02-2.05,2.05h-.01Z"/></svg>