<svg width="200" height="284" viewBox="0 0 200 284" fill="none" xmlns="http://www.w3.org/2000/svg">
<path d="M100.215 227.356V227.476C99.711 227.452 98.943 227.428 98.127 227.428C97.239 227.428 96.567 227.452 96.039 227.476V227.356C96.927 227.212 97.239 227.092 97.239 225.172V218.476C95.655 218.452 94.071 218.452 92.511 218.452C91.023 218.452 89.559 218.452 88.095 218.476V225.172C88.095 227.092 88.407 227.212 89.295 227.356V227.476C88.791 227.452 88.023 227.428 87.207 227.428C86.319 227.428 85.647 227.452 85.119 227.476V227.356C86.007 227.212 86.319 227.092 86.319 225.172V212.284C86.319 210.364 86.007 210.244 85.119 210.1V209.98C85.647 210.004 86.319 210.028 87.207 210.028C88.023 210.028 88.791 210.004 89.295 209.98V210.1C88.407 210.244 88.095 210.364 88.095 212.284V217.732C89.559 217.756 91.023 217.756 92.511 217.756C94.071 217.756 95.655 217.756 97.239 217.732V212.284C97.239 210.364 96.927 210.244 96.039 210.1V209.98C96.567 210.004 97.239 210.028 98.127 210.028C98.943 210.028 99.711 210.004 100.215 209.98V210.1C99.327 210.244 99.015 210.364 99.015 212.284V225.172C99.015 227.092 99.327 227.212 100.215 227.356ZM111.395 226.324L111.443 226.444C111.083 227.02 110.555 227.668 109.715 227.668C108.851 227.668 108.371 227.02 108.371 226.156C107.435 227.068 106.163 227.668 104.795 227.668C102.755 227.668 101.723 226.396 101.723 225.028C101.723 223.348 103.211 221.98 105.587 221.98C106.571 221.98 107.651 222.268 108.371 222.772V218.716C108.371 217.204 107.795 216.34 106.187 216.34C104.891 216.34 103.475 217.3 103.403 219.364H102.179C102.515 217.204 104.315 215.908 106.379 215.908C108.107 215.908 109.907 216.46 109.907 219.028V225.34C109.907 226.324 110.075 226.684 110.603 226.684C110.819 226.684 111.059 226.636 111.395 226.324ZM108.371 225.676V223.204C107.867 222.724 106.979 222.436 106.067 222.436C104.339 222.436 103.451 223.684 103.451 224.884C103.451 225.964 104.171 226.996 105.635 226.996C106.739 226.996 107.675 226.468 108.371 225.676ZM116.083 227.356V227.476C115.555 227.452 115.171 227.428 114.283 227.428C113.395 227.428 113.011 227.452 112.483 227.476V227.356C113.203 227.212 113.515 227.092 113.515 225.172V217.972C113.515 217.108 113.491 216.868 112.771 216.676V216.556C113.491 216.508 114.427 216.316 115.051 216.028V225.172C115.051 227.092 115.363 227.212 116.083 227.356ZM115.267 213.316C115.267 213.772 114.907 214.132 114.403 214.132C113.947 214.132 113.587 213.772 113.587 213.316C113.587 212.812 113.947 212.452 114.403 212.452C114.907 212.452 115.267 212.812 115.267 213.316ZM121.145 227.356V227.476C120.617 227.452 120.233 227.428 119.345 227.428C118.457 227.428 118.073 227.452 117.545 227.476V227.356C118.265 227.212 118.577 227.092 118.577 225.172V217.852C118.577 216.988 118.553 216.748 117.833 216.556V216.436C118.553 216.388 119.489 216.196 120.113 215.908V217.012C120.641 216.556 121.457 215.908 122.513 215.908C123.761 215.908 124.049 216.796 124.049 217.9H122.513C122.513 217.012 122.177 216.652 121.625 216.652C121.241 216.652 120.761 216.82 120.113 217.564V225.172C120.113 227.092 120.425 227.212 121.145 227.356ZM131.717 223.444H131.837C131.813 223.66 131.789 223.852 131.789 224.044C131.789 226.012 133.661 227.068 135.557 227.068C137.213 227.068 138.821 226.036 138.821 223.828C138.821 219.028 131.621 219.148 131.621 213.916C131.621 211.324 133.493 209.62 136.061 209.62C137.453 209.62 138.317 210.004 139.253 210.004C139.397 210.004 139.517 210.004 139.661 209.98C139.613 210.484 139.589 210.916 139.589 211.564C139.589 211.924 139.589 212.524 139.613 212.884H139.469C139.109 211.012 137.861 210.124 136.109 210.124C134.597 210.124 133.181 210.94 133.181 212.836C133.181 217.42 140.333 217.3 140.333 222.796C140.333 225.796 138.149 227.668 135.341 227.668C133.733 227.668 133.037 227.212 131.885 227.212C131.741 227.212 131.669 227.212 131.525 227.236C131.549 227.116 131.549 226.828 131.549 226.612C131.549 226.06 131.429 225.556 131.429 224.956C131.429 224.524 131.501 223.924 131.717 223.444ZM151.426 226.324L151.474 226.444C151.114 227.02 150.586 227.668 149.746 227.668C148.882 227.668 148.402 227.02 148.402 226.156C147.466 227.068 146.194 227.668 144.826 227.668C142.786 227.668 141.754 226.396 141.754 225.028C141.754 223.348 143.242 221.98 145.618 221.98C146.602 221.98 147.682 222.268 148.402 222.772V218.716C148.402 217.204 147.826 216.34 146.218 216.34C144.922 216.34 143.506 217.3 143.434 219.364H142.21C142.546 217.204 144.346 215.908 146.41 215.908C148.138 215.908 149.938 216.46 149.938 219.028V225.34C149.938 226.324 150.106 226.684 150.634 226.684C150.85 226.684 151.09 226.636 151.426 226.324ZM148.402 225.676V223.204C147.898 222.724 147.01 222.436 146.098 222.436C144.37 222.436 143.482 223.684 143.482 224.884C143.482 225.964 144.202 226.996 145.666 226.996C146.77 226.996 147.706 226.468 148.402 225.676ZM156.162 227.356V227.476C155.634 227.452 155.25 227.428 154.362 227.428C153.474 227.428 153.09 227.452 152.562 227.476V227.356C153.282 227.212 153.594 227.092 153.594 225.172V211.084C153.594 210.22 153.57 209.98 152.85 209.788V209.668C153.57 209.62 154.506 209.428 155.13 209.14V225.172C155.13 227.092 155.442 227.212 156.162 227.356ZM163.621 227.572C159.973 227.572 157.765 225.388 157.765 221.812C157.765 218.356 160.261 215.908 163.573 215.908C166.909 215.908 169.309 218.428 169.309 221.812C169.309 224.956 167.125 227.572 163.621 227.572ZM163.525 227.26C166.765 227.26 167.317 224.356 167.317 221.644C167.317 218.692 166.501 216.22 163.405 216.22C160.237 216.22 159.757 219.532 159.757 222.028C159.757 224.716 160.453 227.26 163.525 227.26ZM181.834 227.356V227.476C181.306 227.452 180.922 227.428 180.034 227.428C179.146 227.428 178.762 227.452 178.234 227.476V227.356C178.954 227.212 179.266 227.092 179.266 225.172V219.94C179.266 216.964 177.802 216.388 176.338 216.388C175.45 216.388 174.298 216.748 173.434 217.372V225.172C173.434 227.092 173.746 227.212 174.466 227.356V227.476C173.938 227.452 173.554 227.428 172.666 227.428C171.778 227.428 171.394 227.452 170.866 227.476V227.356C171.586 227.212 171.898 227.092 171.898 225.172V217.852C171.898 216.988 171.874 216.748 171.154 216.556V216.436C171.874 216.388 172.81 216.196 173.434 215.908V216.868C174.514 216.196 175.762 215.908 176.938 215.908C178.546 215.908 180.802 216.388 180.802 219.82V225.172C180.802 227.092 181.114 227.212 181.834 227.356Z" fill="white"/>
<path d="M11.036 282.338V282.648C9.672 282.586 8.68 282.524 6.386 282.524C4.092 282.524 3.1 282.586 1.736 282.648V282.338C3.596 281.966 4.402 281.656 4.402 276.696V243.836C4.402 241.604 4.216 240.922 1.674 240.488V240.178C3.534 240.054 6.634 239.744 8.37 238.814V241.79C11.966 239.31 15.128 238.814 17.608 238.814C26.226 238.814 31.62 245.882 31.62 254.19C31.62 263.552 24.366 268.946 16.802 268.946C13.454 268.946 10.788 268.016 8.37 266.404V276.696C8.37 281.656 9.176 281.966 11.036 282.338ZM8.37 243.402V264.854C9.92 266.28 12.586 267.644 16.182 267.644C20.398 267.644 26.35 265.288 26.35 254.252C26.35 246.874 22.258 240.364 15.686 240.364C13.578 240.364 11.222 240.86 8.37 243.402ZM44.6453 268.388V268.698C43.2813 268.636 42.2893 268.574 39.9953 268.574C37.7013 268.574 36.7093 268.636 35.3453 268.698V268.388C37.2053 268.016 38.0113 267.706 38.0113 262.746V244.146C38.0113 241.914 37.9493 241.294 36.0893 240.798V240.488C37.9493 240.364 40.3673 239.868 41.9793 239.124V262.746C41.9793 267.706 42.7853 268.016 44.6453 268.388ZM42.5373 232.118C42.5373 233.296 41.6073 234.226 40.3053 234.226C39.1273 234.226 38.1973 233.296 38.1973 232.118C38.1973 230.816 39.1273 229.886 40.3053 229.886C41.6073 229.886 42.5373 230.816 42.5373 232.118ZM72.9193 264.11L73.1673 264.358C70.8733 267.21 67.5253 269.194 62.8753 269.194C53.0173 269.194 48.1813 261.816 48.1813 254.314C48.1813 246.254 53.3273 238.814 63.6193 238.814C69.5713 238.814 73.2293 241.542 73.9733 244.952H69.5093C69.1373 242.782 67.7733 239.62 63.2473 239.62C56.1793 239.62 53.3273 246.626 53.3273 253.136C53.3273 262.188 57.8533 267.83 64.9213 267.83C68.0213 267.83 70.7493 266.466 72.9193 264.11ZM102.042 265.722L102.166 266.032C101.236 267.52 99.8723 269.194 97.7023 269.194C95.4703 269.194 94.2303 267.52 94.2303 265.288C91.8123 267.644 88.5263 269.194 84.9923 269.194C79.7223 269.194 77.0563 265.908 77.0563 262.374C77.0563 258.034 80.9003 254.5 87.0383 254.5C89.5803 254.5 92.3703 255.244 94.2303 256.546V246.068C94.2303 242.162 92.7423 239.93 88.5883 239.93C85.2403 239.93 81.5823 242.41 81.3963 247.742H78.2343C79.1023 242.162 83.7523 238.814 89.0843 238.814C93.5483 238.814 98.1983 240.24 98.1983 246.874V263.18C98.1983 265.722 98.6323 266.652 99.9963 266.652C100.554 266.652 101.174 266.528 102.042 265.722ZM94.2303 264.048V257.662C92.9283 256.422 90.6343 255.678 88.2783 255.678C83.8143 255.678 81.5203 258.902 81.5203 262.002C81.5203 264.792 83.3803 267.458 87.1623 267.458C90.0143 267.458 92.4323 266.094 94.2303 264.048ZM122.151 245.944H121.841C121.221 242.782 119.051 239.62 114.897 239.62C111.859 239.62 109.441 241.604 109.441 245.076C109.441 252.33 123.081 251.028 123.081 261.258C123.081 266.652 117.935 269.194 113.161 269.194C111.363 269.194 108.387 268.822 105.349 267.21C105.721 265.164 105.535 262.312 106.093 259.832H106.403C106.341 260.204 106.341 260.638 106.341 261.01C106.341 264.916 108.139 268.326 113.161 268.326C116.447 268.326 118.865 266.28 118.865 262.374C118.865 254.376 105.411 255.864 105.411 246.378C105.411 241.108 110.619 238.814 115.145 238.814C117.625 238.814 120.539 239.372 122.213 239.868C122.089 240.488 122.027 240.984 122.027 241.852C122.027 243.092 122.089 243.96 122.151 245.944ZM144.553 245.944H144.243C143.623 242.782 141.453 239.62 137.299 239.62C134.261 239.62 131.843 241.604 131.843 245.076C131.843 252.33 145.483 251.028 145.483 261.258C145.483 266.652 140.337 269.194 135.563 269.194C133.765 269.194 130.789 268.822 127.751 267.21C128.123 265.164 127.937 262.312 128.495 259.832H128.805C128.743 260.204 128.743 260.638 128.743 261.01C128.743 264.916 130.541 268.326 135.563 268.326C138.849 268.326 141.267 266.28 141.267 262.374C141.267 254.376 127.813 255.864 127.813 246.378C127.813 241.108 133.021 238.814 137.547 238.814C140.027 238.814 142.941 239.372 144.615 239.868C144.491 240.488 144.429 240.984 144.429 241.852C144.429 243.092 144.491 243.96 144.553 245.944ZM164.848 268.946C155.424 268.946 149.72 263.304 149.72 254.066C149.72 245.138 156.168 238.814 164.724 238.814C173.342 238.814 179.542 245.324 179.542 254.066C179.542 262.188 173.9 268.946 164.848 268.946ZM164.6 268.14C172.97 268.14 174.396 260.638 174.396 253.632C174.396 246.006 172.288 239.62 164.29 239.62C156.106 239.62 154.866 248.176 154.866 254.624C154.866 261.568 156.664 268.14 164.6 268.14Z" fill="white"/>
<path d="M102.286 122.836C102.068 122.8 101.919 122.76 101.769 122.755C98.204 122.66 94.8437 121.643 91.5424 120.414C90.7749 120.129 90.0393 119.659 89.4081 119.13C88.5862 118.443 88.3636 117.485 88.627 116.432C88.9858 114.981 89.7668 113.761 90.725 112.644C92.0691 111.076 93.5676 109.702 95.4885 108.843C96.7781 108.269 98.1177 107.912 99.5118 107.704C100.402 107.573 101.296 107.433 102.173 107.234C103.004 107.049 103.117 106.881 103.176 106.027C103.231 105.222 103.304 104.418 103.281 103.613C103.108 97.6065 102.909 91.5996 102.722 85.5927C102.609 81.9406 102.5 78.284 102.404 74.632C102.35 72.4941 102.332 70.3607 102.291 68.2228C102.241 65.6555 102.913 63.2735 104.08 61.0045C105.442 58.3469 107.613 56.566 110.27 55.3185C112.495 54.2745 114.874 53.7637 117.308 53.6462C120.6 53.488 123.906 53.3614 127.203 53.4066C131.322 53.4609 134.346 55.4225 136.299 59.0384C137.457 61.1808 137.933 63.4995 138.233 65.877C138.664 69.3076 138.705 72.7291 138.219 76.1597C137.952 78.0445 137.307 79.7575 135.84 81.2129C137.152 81.9587 138.297 82.8265 139.087 84.2457C139.237 83.9384 139.364 83.7486 139.423 83.5361C140.417 80.1101 141.23 76.6569 141.335 73.0591C141.475 68.1324 140.862 63.2961 139.732 58.5141C139.132 55.9785 138.31 53.5061 137.139 51.1693C135.168 47.2325 132.198 44.2268 128.37 42.0482C124.215 39.6798 119.674 38.4007 115.038 37.4198C110.22 36.4029 105.356 35.6661 100.438 35.4537C97.6773 35.3362 94.8982 35.4356 92.1372 35.5803C88.4 35.7791 84.7354 36.4661 81.1343 37.5102C77.8376 38.4685 74.8677 40.064 72.0705 41.994C70.3858 43.1556 68.6829 44.3127 67.1253 45.6325C63.3971 48.7964 60.341 52.5027 58.2385 56.9593C57.1714 59.2192 57.1124 61.5605 57.3213 63.956C57.3894 64.7289 57.512 65.4928 57.5801 66.2657C57.7572 68.2635 57.2758 70.0172 55.632 71.3234C54.6829 72.0782 54.2334 73.0726 54.3469 74.2568C54.4377 75.1789 54.6602 76.0829 54.8419 76.9959C55.0916 78.2705 55.3777 79.536 55.6002 80.8106C55.6683 81.1993 55.6229 81.6152 55.5684 82.0129C55.4549 82.8762 54.8419 83.4954 53.9791 83.5813C53.3933 83.6401 52.7984 83.6265 52.2081 83.622C51.2454 83.613 50.2781 83.5452 49.3154 83.5632C48.1756 83.5904 47.8578 83.8344 47.499 84.9373C47.0495 86.3339 47.1766 87.7577 47.4355 89.1634C47.7579 90.908 48.4118 92.5488 49.0793 94.1849C49.6424 95.559 50.2146 96.933 50.7413 98.3206C51.5905 100.572 51.981 102.917 52.199 105.299C52.3034 106.438 52.426 107.577 52.5623 108.716C52.6077 109.078 52.7257 109.426 52.8211 109.824C53.2434 109.697 53.5931 109.557 53.9518 109.494C54.4377 109.408 54.9463 109.295 55.4276 109.349C56.9126 109.521 58.3838 109.828 59.7053 110.56C60.2411 110.859 60.777 111.238 61.1493 111.704C61.5217 112.17 61.8895 112.409 62.4708 112.359C62.7024 112.341 62.9385 112.359 63.2972 112.359C62.7341 111.55 62.2573 110.8 61.7124 110.095C60.4455 108.459 59.5827 106.655 59.5509 104.567C59.5236 102.633 59.1649 100.752 58.847 98.8585C58.6972 97.9771 58.4747 97.1048 58.7335 96.1918C59.0877 94.9262 59.9096 94.2527 61.2356 94.2799C61.726 94.2889 62.2346 94.3477 62.7069 94.4833C64.8684 95.0934 67.0527 95.5138 69.3005 95.6991C72.3066 95.9477 75.2991 96.3861 78.3053 96.6438C80.4668 96.8291 82.6147 96.5217 84.6218 95.6946C86.9014 94.759 88.5544 93.1092 89.4535 90.795C89.7986 89.9091 89.7396 88.9871 89.4035 88.0786C88.459 85.5429 86.7698 83.613 84.5219 82.153C83.5865 81.5474 82.5966 81.0095 81.5975 80.5168C81.0799 80.2592 80.4895 80.1055 79.9128 80.0106C76.6796 79.4818 73.4192 79.2287 70.1451 79.4095C68.6284 79.4908 67.1117 79.6761 65.6041 79.9021C63.883 80.1598 62.1756 80.5168 60.4591 80.8152C59.4646 80.9869 58.9424 80.6976 58.5837 79.7394C57.7663 77.5337 57.957 75.3551 58.847 73.2218C60.0595 70.3155 62.0666 68.0104 64.5369 66.1075C66.2807 64.7651 68.1016 63.5176 69.8862 62.2294C69.9861 62.1571 70.077 62.0712 70.1678 61.9899C70.9261 61.2757 71.5301 61.1944 72.402 61.8136C73.846 62.8351 75.2628 63.9018 76.6796 64.9549C76.9021 65.1222 77.1019 65.321 77.2926 65.5244C78.1918 66.4826 77.9693 67.5448 76.7205 68.0013C76.0847 68.2318 75.399 68.3539 74.7224 68.4533C72.1386 68.833 69.5548 69.2488 66.9618 69.5336C64.2781 69.8319 62.6706 71.4274 61.5262 73.6692C61.0222 74.6591 61.1266 75.6851 61.3628 76.8196C62.6569 76.4851 63.8603 76.1913 65.0501 75.8614C67.643 75.1427 70.2677 74.7269 72.9741 74.8128C76.0575 74.9122 79.0046 75.6489 81.8745 76.7111C83.7772 77.4162 85.5755 78.3202 87.2511 79.4682C90.4389 81.6468 92.2508 84.6842 92.3597 88.4989C92.4687 92.3499 90.784 95.3194 87.2738 97.2223C84.917 98.5014 82.4512 99.2382 79.7811 99.1387C77.0156 99.0393 74.2502 98.8404 71.4938 98.628C68.7374 98.4156 66.0309 97.7059 63.2427 97.7692C62.7478 97.7782 62.2528 97.7692 61.7714 97.7692C61.7079 97.9003 61.6352 97.9816 61.6352 98.063C61.5489 101.57 62.4708 104.743 64.823 107.419C66.4759 109.295 68.4649 110.777 70.5719 112.106C72.5427 113.345 74.5272 114.565 76.4616 115.858C78.2599 117.056 79.7902 118.552 80.9482 120.391C82.2878 122.516 82.592 124.825 82.1788 127.27C81.6838 130.19 80.6303 132.938 79.6358 135.705C78.8411 137.919 77.9783 140.129 77.7286 142.484C77.5742 143.922 77.6196 145.386 77.6741 146.837C77.8058 150.304 77.9693 153.77 78.1736 157.233C78.4279 161.499 78.7367 165.762 79.0228 170.024C79.0546 170.517 79.1227 171.014 79.0954 171.506C79.0546 172.334 78.6141 172.799 77.9329 172.831C77.2881 172.858 76.775 172.392 76.6932 171.583C76.4934 169.581 76.2755 167.579 76.1665 165.567C75.7759 158.548 75.4036 151.524 75.0766 144.5C74.954 141.87 74.9949 139.235 74.9313 136.599C74.845 133.038 74.7769 129.476 74.6134 125.919C74.5317 124.161 74.2547 122.412 73.6735 120.726C73.0695 118.967 72.075 117.507 70.472 116.518C69.1778 115.718 67.8519 114.976 66.5032 114.19C65.3407 115.442 63.8739 114.927 62.4027 114.945C62.3572 115.297 62.3118 115.618 62.271 115.944C62.0939 117.381 61.5126 118.624 60.4455 119.614C58.8062 121.128 56.2587 121.336 54.3015 120.088C52.426 118.895 51.3089 117.159 50.8412 115.003C50.646 114.104 50.7141 113.223 50.9093 112.332C50.9638 112.084 50.982 111.758 50.8685 111.55C50.2282 110.402 50.1147 109.141 49.9557 107.88C49.7105 105.914 49.5016 103.943 49.1928 101.991C48.9158 100.242 48.2438 98.6009 47.5717 96.9647C46.8315 95.1612 46.1231 93.3397 45.4783 91.5001C44.9016 89.8504 44.6155 88.1283 44.7608 86.3791C44.8425 85.4345 45.0242 84.4627 45.3602 83.5813C45.9415 82.0717 47.1221 81.1858 48.7751 81.118C49.9512 81.0683 51.1364 81.1541 52.3171 81.1858C52.5577 81.1903 52.7939 81.2219 53.0936 81.24C53.1798 80.3993 52.9346 79.6626 52.7802 78.9168C52.4714 77.4343 52.09 75.9608 51.9038 74.4602C51.6768 72.6387 52.199 70.9573 53.6612 69.7912C54.9191 68.7878 55.2278 67.5674 55.0553 66.0939C54.9508 65.2035 54.8918 64.3041 54.7783 63.4136C54.3469 60.0057 55.2914 56.9231 56.9444 53.9897C58.7562 50.7761 61.0494 47.9511 63.715 45.4065C67.3796 41.9036 71.521 39.0786 76.0484 36.8187C79.4133 35.1373 83.0643 34.3102 86.7561 33.7C89.7986 33.1983 92.8729 32.9 95.9562 32.9135C98.5037 32.9226 101.06 33.0084 103.603 33.2028C107.858 33.5237 112.063 34.2333 116.232 35.1373C120.559 36.0729 124.787 37.3249 128.72 39.4041C134.746 42.5906 138.805 47.4268 140.94 53.8812C141.966 56.9773 142.688 60.1367 143.187 63.3549C143.737 66.9211 143.905 70.5008 143.76 74.0986C143.678 76.1507 143.31 78.1575 142.865 80.1553C142.552 81.5745 142.243 82.9983 142.016 84.4356C141.889 85.2537 141.907 86.0989 141.898 86.9351C141.893 87.4323 142.066 87.8752 142.347 88.3181C143.369 89.9498 143.75 91.8075 144.105 93.6697C144.541 95.9387 144.622 98.2302 144.454 100.517C144.341 102.054 144.055 103.586 143.746 105.1C143.137 108.075 142.402 111.017 141.312 113.86C139.813 117.761 137.883 121.417 135.068 124.554C132.239 127.704 129.196 130.615 125.577 132.866C123.107 134.403 120.405 135.42 117.635 136.279C116.568 136.608 115.533 137.042 114.465 137.372C113.88 137.553 113.68 137.901 113.684 138.462C113.707 140.505 113.598 142.557 113.771 144.591C114.17 149.282 114.538 153.974 114.602 158.688C114.652 162.372 114.833 166.055 114.915 169.739C114.956 171.592 114.316 173.215 112.921 174.471C111.182 176.04 109.098 176.872 106.777 177.138C106.564 177.161 106.342 177.161 106.124 177.147C104.743 177.07 103.908 176.347 103.776 174.978C103.631 173.468 103.54 171.949 103.503 170.435C103.376 165.201 103.34 159.963 103.167 154.733C103.022 150.399 102.741 146.073 102.518 141.743C102.404 139.515 102.273 137.291 102.159 135.063C102.059 133.033 102.35 131.049 102.913 129.101C103.058 128.595 103.208 128.075 103.231 127.56C103.249 127.049 103.245 126.457 103.004 126.036C102.445 125.051 102.268 124.016 102.273 122.827L102.286 122.836ZM106.26 174.743C107.372 174.625 108.335 174.386 109.221 173.943C110.606 173.247 111.623 172.288 111.309 170.539C111.269 170.3 111.287 170.047 111.278 169.798C111.205 167.009 111.155 164.225 111.064 161.436C110.855 155.027 110.606 148.622 110.424 142.213C110.388 140.889 110.533 139.555 110.696 138.236C110.883 136.758 111.736 135.754 113.158 135.243C113.335 135.18 113.507 135.108 113.68 135.049C115.501 134.425 117.326 133.811 119.147 133.182C121.572 132.346 123.852 131.23 125.913 129.702C127.989 128.165 129.855 126.394 131.694 124.586C135.1 121.232 137.443 117.223 139.073 112.784C140.467 108.992 141.353 105.073 141.943 101.082C142.352 98.3342 141.925 95.7127 140.94 93.1589C140.454 91.9024 139.65 90.8628 138.478 89.9453C138.219 90.2436 138.015 90.5148 137.774 90.7498C136.485 92.0064 135.227 93.29 133.887 94.4878C131.753 96.4087 129.224 97.0596 126.367 96.7432C122.194 96.2822 119.451 93.1318 118.711 89.543C118.511 88.5667 118.598 87.5362 118.548 86.465C118.402 86.4514 118.194 86.4153 117.98 86.4198C115.741 86.4334 113.498 86.4695 111.259 86.4695C109.752 86.4695 108.276 86.2842 106.936 85.5113C106.837 85.4571 106.709 85.448 106.569 85.4119C106.687 90.0628 106.805 94.6641 106.927 99.2653C107.118 99.2879 107.209 99.324 107.295 99.3105C108.24 99.1207 109.193 98.9625 110.124 98.7184C111.4 98.3839 112.072 97.376 111.968 96.0652C111.927 95.5409 111.827 95.0211 111.786 94.4968C111.714 93.5793 111.991 93.055 112.635 92.8335C113.235 92.6256 113.775 92.8516 114.311 93.5341C114.406 93.6561 114.502 93.7782 114.583 93.9092C115.669 95.6584 115.996 97.5025 115.428 99.5139C114.951 101.195 114.007 102.285 112.181 102.515C110.719 102.696 109.352 103.225 107.999 103.785C107.658 103.93 107.313 104.079 107.272 104.54C107.195 105.399 107.095 106.253 107.005 107.139C107.177 107.207 107.341 107.284 107.513 107.338C110.569 108.31 113.366 109.756 115.787 111.867C116.7 112.662 117.499 113.58 118.003 114.705C118.625 116.088 118.353 117.584 117.222 118.511C116.604 119.017 115.909 119.46 115.187 119.799C113.289 120.685 111.241 121.096 109.225 121.616C107.994 121.932 106.768 122.29 105.57 122.719C104.743 123.013 104.593 123.551 104.957 124.351C105.034 124.518 105.143 124.676 105.22 124.843C105.747 125.969 105.974 127.13 105.656 128.364C105.542 128.812 105.411 129.259 105.324 129.716C105.066 131.081 104.67 132.441 104.607 133.815C104.53 135.51 104.711 137.219 104.82 138.918C105.02 142.132 105.333 145.341 105.442 148.559C105.633 154.191 105.692 159.832 105.833 165.468C105.901 168.193 106.028 170.914 106.137 173.64C106.151 173.997 106.214 174.354 106.26 174.752V174.743ZM105.747 73.5336C105.842 75.5766 105.878 77.249 106.015 78.9168C106.078 79.6762 106.264 80.449 106.51 81.1722C107.118 82.9485 108.43 83.9248 110.297 83.952C113.503 83.9972 116.709 83.9429 119.915 83.9022C120.228 83.9022 120.609 83.7712 120.846 83.5723C122.853 81.8818 125.228 81.1767 127.784 80.9056C129.483 80.7248 131.19 80.5982 132.82 80.0106C133.429 79.7891 133.797 79.4321 134.064 78.8581C134.664 77.5744 135.05 76.223 135.127 74.8354C135.268 72.2997 135.327 69.7595 135.291 67.2239C135.272 65.9041 135.023 64.5798 134.805 63.269C134.391 60.7695 132.956 59.1107 130.495 58.4282C129.092 58.0395 127.662 57.6418 126.218 57.5242C123.834 57.3299 121.431 57.3525 119.038 57.2982C117.122 57.253 115.251 57.5694 113.421 58.0983C112.109 58.4779 110.837 58.9525 109.806 59.9379C107.636 62.017 106.614 64.643 106.214 67.5132C105.919 69.6239 105.878 71.7709 105.747 73.5336Z" fill="white"/>
<path d="M15.8391 125.115C15.9935 125.128 16.1524 125.183 16.2932 125.146C17.1969 124.92 18.096 124.681 18.9951 124.441C19.4538 124.319 19.7716 124.093 19.758 123.551C19.7535 123.284 19.7989 122.977 20.2893 122.918C20.5709 124.03 20.8615 125.16 21.1339 126.29C21.1566 126.376 21.0386 126.493 20.9568 126.661C20.8252 126.543 20.7116 126.489 20.6617 126.398C20.4119 125.91 20.0123 125.757 19.4946 125.87C18.4638 126.087 17.4285 126.294 16.4067 126.543C14.8083 126.927 13.2144 127.343 11.6205 127.75C11.3526 127.818 11.0892 127.917 10.8213 127.998C10.3218 128.148 9.99482 128.396 10.122 129.002C10.1538 129.142 10.0039 129.318 9.88584 129.603C9.14565 128.92 8.90952 128.035 8.29648 127.361C8.60981 127.117 8.8187 126.954 9.05937 126.769C8.90044 126.597 8.78691 126.453 8.65068 126.331C6.96142 124.789 7.35195 122.358 9.02759 121.201C10.2854 120.333 11.7113 120.021 13.2053 120.306C15.4213 120.726 16.3023 122.787 16.0117 124.274C15.9572 124.545 15.9027 124.812 15.8437 125.124L15.8391 125.115ZM15.4304 123.799C15.4486 122.805 14.8719 122.068 13.8184 121.824C12.2472 121.463 10.8077 121.802 9.51802 122.746C8.71426 123.334 8.4418 124.36 8.81416 125.219C9.20923 126.132 10.0448 126.624 11.0756 126.426C12.0746 126.231 13.0691 125.974 14.0409 125.666C14.9627 125.372 15.4168 124.69 15.435 123.799H15.4304Z" fill="white"/>
<path d="M109.089 5.56382C109.92 4.95364 110.837 5.16607 111.718 4.91748C111.827 5.22031 111.927 5.4915 112.041 5.80338C112.349 5.67682 112.649 5.52766 112.967 5.43275C114.379 5.02144 116.414 5.59546 117.036 7.60229C117.63 9.51419 116.968 11.973 115.501 13.0894C114.225 14.0612 112.554 14.0747 111.269 13.1256C111.128 13.0216 110.987 12.9086 110.701 12.6871C110.556 13.8533 110.419 14.8748 110.301 15.9008C110.238 16.4567 110.329 16.9494 110.987 17.1347C111.087 17.1618 111.15 17.3019 111.359 17.5234C110.964 17.5505 110.687 17.6454 110.46 17.5731C109.502 17.2839 108.435 17.4511 107.481 16.9946C107.563 16.859 107.577 16.8093 107.595 16.8093C108.667 16.6782 108.821 15.8511 108.957 15.0194C109.171 13.7403 109.379 12.4566 109.575 11.173C109.775 9.88934 109.956 8.6057 110.156 7.32205C110.315 6.30056 110.315 6.29152 109.402 5.82146C109.325 5.78078 109.266 5.70846 109.084 5.56382H109.089ZM115.714 8.89497C115.655 8.52886 115.628 8.09043 115.514 7.67912C115.292 6.86555 114.565 6.25084 113.812 6.18756C112.876 6.10621 111.886 6.49492 111.718 7.2181C111.405 8.5605 111.164 9.93454 111.073 11.3086C111.023 12.0679 111.559 12.6871 112.345 12.9583C113.112 13.225 113.784 13.0894 114.393 12.5109C115.419 11.5346 115.605 10.269 115.719 8.89949L115.714 8.89497Z" fill="white"/>
<path d="M185.746 90.5603C185.528 90.4925 185.41 90.4157 185.301 90.4293C184.374 90.5242 183.453 90.6372 182.526 90.7366C181.99 90.7908 181.668 91.0304 181.636 91.6089C181.627 91.7581 181.473 91.8982 181.368 92.07C181.032 91.5411 180.755 89.1908 180.91 88.3591C181.377 88.3591 181.318 88.8383 181.577 89.0823C182.649 89.0823 183.766 89.1456 184.874 89.0688C186.736 88.9422 188.588 88.7298 190.446 88.5535C190.478 88.5535 190.509 88.5535 190.537 88.5445C191.84 88.4224 191.917 88.3592 192.212 87.1523C192.73 87.3241 192.916 87.6315 193.57 89.4123C193.343 89.5388 193.107 89.6654 192.812 89.8326C192.948 90.0405 193.061 90.253 193.211 90.4293C194.242 91.627 193.988 93.5389 193.03 94.5107C192.748 94.7954 192.435 95.0757 192.08 95.252C190.491 96.0249 188.838 96.1469 187.226 95.4011C185.6 94.6463 184.91 92.7615 185.519 91.0711C185.569 90.931 185.641 90.7954 185.741 90.5648L185.746 90.5603ZM190.214 89.9773C190.214 89.9773 190.214 89.9682 190.214 89.9637C189.842 89.9818 189.469 89.9863 189.097 90.027C188.666 90.0722 188.239 90.1445 187.807 90.2033C186.817 90.3434 186.118 90.9942 185.977 91.8982C185.841 92.8112 186.227 93.548 187.185 93.9593C188.693 94.6056 190.21 94.5152 191.676 93.8011C191.944 93.67 192.18 93.4395 192.389 93.2135C192.952 92.6123 193.052 91.8892 192.753 91.1524C192.453 90.4157 191.926 89.923 191.045 89.9727C190.768 89.9863 190.487 89.9727 190.21 89.9727L190.214 89.9773Z" fill="white"/>
<path d="M101.442 189.988C101.487 189.676 101.551 189.441 101.546 189.211C101.514 188.375 101.455 187.543 101.415 186.711C101.396 186.3 101.265 186.011 100.797 185.92C100.593 185.884 100.42 185.703 100.152 185.541C100.951 185.22 102.745 185.215 103.926 185.464C103.917 185.523 103.921 185.622 103.894 185.631C103.04 185.875 102.936 186.508 102.954 187.276C103.008 189.966 103.018 192.655 103.063 195.344C103.077 196.284 103.099 196.28 104.048 196.592C104.148 196.623 104.225 196.732 104.384 196.867C103.635 197.469 102.704 197.41 101.946 197.93C101.796 197.586 101.687 197.351 101.56 197.057C101.337 197.179 101.119 197.283 100.915 197.405C99.8706 198.029 98.7944 198.016 97.7136 197.536C97.0052 197.22 96.4739 196.66 96.1969 195.968C95.652 194.58 95.5385 193.148 96.1152 191.719C96.8917 189.794 98.9352 188.944 100.874 189.758C101.038 189.826 101.201 189.889 101.446 189.988H101.442ZM101.71 194.404C101.646 193.577 101.592 192.904 101.542 192.226C101.533 192.135 101.537 192.04 101.528 191.95C101.442 191.046 100.797 190.291 99.9615 190.097C99.2394 189.929 98.3948 190.336 97.9134 191.064C97.3367 191.932 97.2096 192.922 97.2822 193.898C97.3322 194.612 97.591 195.344 97.9044 196C98.3085 196.836 99.0351 197.098 100.025 196.944C100.829 196.822 101.401 196.298 101.592 195.448C101.678 195.06 101.687 194.657 101.714 194.404H101.71Z" fill="white"/>
<path d="M12.3697 65.4252C12.3606 65.2896 12.3697 65.1992 12.3516 65.1178C11.7204 62.763 13.3188 60.8239 15.78 60.955C17.0379 61.0228 18.1459 61.4793 19.1177 62.2477C20.5072 63.3415 20.8932 65.3483 19.985 66.858C19.708 67.319 19.2403 67.667 18.7998 68.1235C19.5354 68.6252 20.4119 68.8196 21.2065 69.1812C21.3473 69.2445 21.5108 69.258 21.647 69.3258C22.2101 69.597 22.6597 69.5202 22.9912 68.9552C23.0593 68.8422 23.2091 68.7699 23.4725 68.5574C23.5452 69.3891 23.1183 69.9089 22.923 70.4784C22.7232 71.0569 22.4644 71.6129 22.1783 72.3044C22.0466 72.0965 21.9376 72.0061 21.9422 71.9202C21.9694 71.1292 21.4563 70.7722 20.816 70.5145C18.2231 69.4704 15.6347 68.4173 13.0373 67.3868C12.1926 67.0523 12.1835 67.0794 11.7431 67.8749C11.7067 67.9427 11.5977 67.9789 11.5206 68.0241C11.5024 68.0331 11.4661 68.0105 11.3389 67.9789C11.3389 67.2828 11.3117 66.5597 11.348 65.8365C11.3662 65.4704 11.5977 65.285 11.9974 65.4297C12.0973 65.4658 12.2199 65.4342 12.3606 65.4342L12.3697 65.4252ZM17.6282 67.5766C18.4683 67.545 19.0586 67.1608 19.481 66.4738C19.8942 65.8003 19.7307 65.154 19.3402 64.5528C19.1222 64.2229 18.8407 63.9246 18.5455 63.6579C17.7054 62.9166 16.6655 62.5867 15.5848 62.3968C14.4858 62.2025 13.3279 62.9166 12.9918 63.9291C12.6876 64.8466 13.2416 65.9133 14.3133 66.3879C15.0762 66.7269 15.8572 67.0342 16.6428 67.328C16.9561 67.4456 17.3013 67.4907 17.6282 67.5676V67.5766Z" fill="white"/>
<path d="M45.3421 179.407C44.7654 179.181 44.2204 178.969 43.6755 178.756C43.1911 178.569 43.0246 178.199 43.176 177.644C42.9989 177.604 42.8309 177.545 42.6538 177.531C40.3152 177.342 38.803 174.842 40.0654 172.465C40.3243 171.977 40.6694 171.525 41.0372 171.113C42.7128 169.247 45.9642 169.572 47.1221 171.85C47.2175 172.031 47.3492 172.193 47.5535 172.501C48.3664 171.457 49.1111 170.494 49.8558 169.531C49.8014 169.016 49.1293 168.822 49.3881 168.175C50.4462 168.939 51.4134 169.689 52.3307 170.566C52.1763 170.657 52.1082 170.72 52.0764 170.706C51.2817 170.399 50.764 170.706 50.2645 171.348C49.0294 172.939 47.7261 174.471 46.4501 176.031C46.1186 176.438 45.7689 176.835 45.4511 177.256C44.9379 177.943 44.9425 178.11 45.4147 178.869C45.4601 178.942 45.4783 179.046 45.4828 179.131C45.4828 179.186 45.4329 179.235 45.3421 179.403V179.407ZM43.2986 176.759C43.7709 176.781 44.2204 176.587 44.5519 176.18C45.1377 175.461 45.7144 174.738 46.2684 173.997C46.5999 173.554 46.6726 173.043 46.5364 172.501C46.2276 171.299 45.1741 170.625 43.9843 171.005C42.4267 171.502 41.4504 172.578 41.0871 174.191C40.7647 175.633 41.9181 176.826 43.3032 176.759H43.2986Z" fill="white"/>
<path d="M154.722 169.803C153.94 168.89 153.273 168.085 152.578 167.303C152.333 167.028 152.02 166.951 151.656 167.15C151.479 167.245 151.261 167.267 150.962 167.353C151.08 166.512 151.829 166.363 152.242 165.938C152.683 165.486 153.232 165.134 153.9 164.605C153.831 164.989 153.859 165.193 153.768 165.301C153.364 165.789 153.518 166.187 153.877 166.616C155.612 168.718 157.324 170.842 159.067 172.94C159.667 173.663 159.771 173.645 160.92 173.125C160.915 174.237 160.039 174.779 159.671 175.656C159.335 175.435 159.14 175.304 158.908 175.15C158.836 175.331 158.768 175.466 158.722 175.611C158.073 177.645 155.911 178.553 153.999 177.586C152.238 176.696 151.166 174.761 151.457 172.831C151.634 171.656 152.342 170.811 153.432 170.309C153.795 170.142 154.177 170.02 154.726 169.807L154.722 169.803ZM158.159 174.589C158.132 174.458 158.15 174.128 157.996 173.929C157.255 172.985 156.524 172.018 155.671 171.172C155.094 170.603 154.263 170.671 153.573 171.032C152.832 171.425 152.433 172.122 152.551 172.967C152.76 174.427 153.527 175.606 154.79 176.339C156.606 177.392 158.073 176.212 158.15 174.585L158.159 174.589Z" fill="white"/>
<path d="M164.548 32.2537C165.493 32.4797 166.16 33.013 166.928 33.4379C166.796 33.7633 166.692 34.0074 166.596 34.2469C166.642 34.2967 166.678 34.378 166.719 34.378C168.999 34.4503 170.647 37.3837 168.83 39.7115C167.831 40.9906 166.637 41.8494 164.889 41.7635C163.626 41.7002 162.023 40.5341 161.81 39.2098C161.787 39.0606 161.715 38.9205 161.651 38.7352C161.506 38.7668 161.365 38.7578 161.292 38.8256C160.598 39.4448 159.912 40.0685 159.235 40.7058C158.799 41.1171 158.522 41.5691 158.958 42.1612C159.026 42.2516 158.967 42.4324 158.967 42.8031C157.864 41.8765 157.156 40.8686 156.134 39.8742C156.497 39.8742 156.656 39.8245 156.729 39.8832C157.392 40.394 157.896 40.0233 158.377 39.5985C159.63 38.4911 160.87 37.3702 162.114 36.2492C162.805 35.6255 163.486 34.9972 164.176 34.3735C164.975 33.6548 164.998 33.5554 164.53 32.5972C164.507 32.552 164.53 32.4797 164.548 32.2446V32.2537ZM168.267 36.9634C168.258 36.2583 167.945 35.6481 167.246 35.2865C166.542 34.9249 165.797 34.7984 165.148 35.3453C164.367 36.0006 163.613 36.6967 162.904 37.4289C162.323 38.0346 162.414 38.8346 162.65 39.5352C162.882 40.2267 163.499 40.629 164.24 40.629C164.753 40.629 165.298 40.5205 165.765 40.3262C166.546 40.0007 167.173 39.4358 167.691 38.7578C168.081 38.2425 168.263 37.6685 168.272 36.9679L168.267 36.9634Z" fill="white"/>
<path d="M180.047 149.825C179.997 150.218 179.97 150.62 179.892 151.009C179.543 152.821 177.967 153.969 176.141 153.676C174.67 153.44 173.453 152.735 172.649 151.443C171.714 149.942 172.1 147.854 173.494 146.751C173.698 146.588 173.898 146.417 174.23 146.15C173.167 145.549 172.245 144.997 171.287 144.509C171.101 144.414 170.765 144.536 170.533 144.631C170.329 144.717 170.165 144.907 169.929 145.092C169.916 144.306 171.065 142.358 171.746 141.888C171.787 141.928 171.873 141.983 171.864 142.01C171.628 142.769 171.973 143.207 172.618 143.587C174.784 144.853 176.927 146.168 179.084 147.452C179.479 147.687 179.915 147.849 180.346 148.053C180.651 147.773 180.919 147.533 181.318 147.167C181.318 147.583 181.355 147.845 181.309 148.093C181.246 148.455 181.132 148.812 181.032 149.169C180.846 149.834 180.841 149.834 180.051 149.825H180.047ZM175.283 147.013C173.671 146.986 172.786 148.152 173.167 149.558C173.385 150.358 173.925 150.9 174.552 151.357C175.424 151.994 176.378 152.414 177.504 152.229C178.403 152.085 178.934 151.542 179.148 150.683C179.366 149.82 179.111 149.097 178.344 148.595C177.595 148.107 176.809 147.66 176.023 147.23C175.76 147.086 175.438 147.054 175.283 147.013Z" fill="white"/>
<path d="M49.3064 20.2762C49.4381 20.0864 49.5516 19.8875 49.7015 19.7157C49.9648 19.4129 50.26 19.1327 50.5234 18.8298C50.9911 18.2965 50.9866 18.292 51.6723 18.7846C51.7722 18.64 51.8857 18.5044 51.9674 18.3507C52.9483 16.5292 55.3732 15.9642 56.9989 17.2614C58.1432 18.1745 58.8334 19.3587 58.897 20.8321C58.9742 22.6085 57.73 24.1497 55.9817 24.5068C55.7138 24.561 55.4413 24.6062 55.0372 24.6786C55.3914 25.3294 55.7092 25.917 56.0316 26.5001C56.0771 26.5814 56.1497 26.6447 56.1997 26.7215C56.678 27.4628 57.3168 27.8048 58.116 27.7475C58.0585 27.9826 57.6059 28.3562 56.7582 28.8685C56.2314 29.1849 55.7001 29.4967 55.0235 29.7137C55.0826 29.5465 55.1007 29.3431 55.2143 29.2255C55.5594 28.8549 55.6048 28.5069 55.3414 28.0594C53.97 25.7452 52.6213 23.4175 51.2636 21.0943C51.1364 20.8819 50.9866 20.683 50.8413 20.4841C50.6097 20.1677 50.3372 20.0502 49.9648 20.2807C49.8195 20.3711 49.6379 20.3982 49.4699 20.4525C49.4199 20.3937 49.3654 20.335 49.3155 20.2762H49.3064ZM54.4241 17.6727C52.9165 17.6727 51.9129 19.2592 52.5941 20.5881C52.9892 21.361 53.4296 22.1067 53.8928 22.8435C54.4604 23.7384 55.3868 24.0548 56.3086 23.7158C57.2259 23.3814 57.7709 22.4231 57.6255 21.4062C57.4984 20.5338 57.1669 19.7338 56.6356 19.0332C56.0771 18.2965 55.3868 17.7405 54.4287 17.6727H54.4241Z" fill="white"/>
<path d="M16.2069 141.517C13.2325 141.698 11.6205 138.968 12.4696 136.726C13.0781 135.113 14.3769 134.245 16.0343 133.924C16.8926 133.757 17.7826 133.752 18.6 134.132C19.8806 134.728 20.6571 135.727 20.7842 137.142C20.9159 138.593 20.312 139.745 19.154 140.586C18.2594 141.237 17.2559 141.662 16.2069 141.513V141.517ZM17.5692 135.266C16.0434 135.357 14.5857 135.931 13.4687 137.214C12.9555 137.806 12.9192 138.502 13.2371 139.208C13.5549 139.908 14.1362 140.179 14.8764 140.206C16.5429 140.265 17.9416 139.601 19.2221 138.62C19.3674 138.507 19.4855 138.358 19.5945 138.209C20.044 137.612 20.0804 136.925 19.8215 136.274C19.5627 135.623 18.9996 135.293 18.273 135.302C18.0869 135.302 17.9007 135.284 17.5646 135.262L17.5692 135.266Z" fill="white"/>
<path d="M137.048 20.362C136.013 21.04 135.145 20.6739 134.655 19.3767C134.469 19.3902 134.251 19.3676 134.055 19.4219C133.17 19.6614 132.393 19.3631 131.671 18.9202C131.058 18.545 130.631 17.9846 130.745 17.2297C130.872 16.3981 131.285 15.6794 132.125 15.3947C132.602 15.232 133.152 15.241 133.669 15.2365C134.319 15.232 134.977 15.354 135.622 15.3043C136.589 15.2274 137.393 13.4828 136.875 12.6647C136.553 12.1449 135.468 12.059 134.95 12.5246C134.791 12.6692 134.7 12.8952 134.528 13.0127C134.282 13.1845 133.996 13.4014 133.728 13.4014C133.465 13.4014 133.111 13.2206 132.97 13.0037C132.879 12.8635 133.029 12.4568 133.193 12.285C133.442 12.0274 133.774 11.7652 134.11 11.6974C135.222 11.4759 136.33 11.4579 137.339 12.1268C138.31 12.7686 138.587 13.4105 138.165 14.4952C137.72 15.6433 137.184 16.7597 136.685 17.8896C136.562 18.1744 136.421 18.4501 136.308 18.7349C135.917 19.7202 135.994 19.901 137.043 20.3575L137.048 20.362ZM135.917 15.8964C135.118 15.9416 134.382 15.9687 133.647 16.032C132.884 16.0953 132.43 16.5292 132.334 17.2252C132.225 18.0252 132.439 18.4592 133.079 18.7349C133.738 19.0196 134.541 18.8795 134.918 18.31C135.39 17.6004 135.767 16.8275 135.917 15.8919V15.8964Z" fill="white"/>
<path d="M55.2006 186.273C53.7611 186.318 51.754 185.098 51.6586 182.802C51.5724 180.709 53.2162 178.413 55.187 177.889C56.4721 177.545 58.5292 178.237 59.283 179.742C60.6953 182.567 58.0706 186.309 55.2052 186.278L55.2006 186.273ZM58.3703 181.093C58.3975 179.426 57.8526 178.684 56.7627 178.662C56.3223 178.653 55.7955 178.761 55.4459 179.01C53.9246 180.081 53.0845 181.604 52.8666 183.435C52.7757 184.194 53.1163 184.804 53.7975 185.225C54.4968 185.654 55.2188 185.591 55.8091 185.143C57.2759 184.036 58.1614 182.558 58.3657 181.098L58.3703 181.093Z" fill="white"/>
<path d="M117.898 193.035C117.794 193.83 117.608 194.54 117.24 195.2C115.914 197.577 112.717 197.799 111.128 195.611C110.024 194.092 109.824 192.42 110.533 190.707C111.137 189.252 112.322 188.546 113.902 188.524C115.483 188.501 116.554 189.346 117.213 190.666C117.571 191.394 117.68 192.244 117.903 193.035H117.898ZM111.577 191.86C111.682 193.125 111.895 194.183 112.39 195.164C112.853 196.09 113.653 196.515 114.588 196.375C115.442 196.248 115.968 195.697 116.159 194.666C116.413 193.288 116.2 191.959 115.641 190.68C115.519 190.4 115.342 190.137 115.147 189.898C114.029 188.524 112.322 189.22 111.882 190.49C111.709 190.978 111.65 191.507 111.577 191.855V191.86Z" fill="white"/>
<path d="M80.258 14.1381C79.8084 15.0421 79.2499 15.3449 78.3553 15.0421C77.8422 14.8703 77.5697 14.9562 77.2382 15.3268C76.7705 15.8466 76.1393 16.1178 75.4536 16.2625C74.609 16.4387 73.8324 16.1404 73.4283 15.485C72.9923 14.7799 73.0378 13.7494 73.5645 13.1392C73.787 12.8861 74.0595 12.6692 74.3274 12.4658C74.6725 12.1991 75.0176 11.9369 75.39 11.7155C76.7296 10.9245 76.4481 9.81259 75.8941 8.84534C75.6307 8.38431 75.2401 8.21708 74.7179 8.32103C74.1912 8.42499 73.8097 8.77302 73.7144 9.28377C73.6826 9.46456 73.7325 9.65892 73.6917 9.83519C73.6417 10.0702 73.6054 10.3685 73.4465 10.4996C73.2058 10.6985 72.8425 10.9154 72.57 10.8748C72.1659 10.816 72.1386 10.3459 72.2204 10.0295C72.3203 9.62276 72.4792 9.18885 72.7471 8.87698C73.5055 7.98656 74.5 7.53458 75.6988 7.5391C76.5116 7.5391 77.0883 7.88713 77.3426 8.65098C77.6832 9.677 77.9648 10.7211 78.2645 11.7561C78.3916 12.1991 78.4915 12.6556 78.6277 13.0985C78.9592 14.1833 79.1 14.2737 80.258 14.1381ZM76.6933 11.4217C76.162 11.8646 75.7351 12.2036 75.331 12.5697C75.0858 12.7912 74.8269 13.0307 74.6634 13.311C74.3637 13.8262 74.4773 14.5449 74.8632 14.9472C75.2765 15.3766 75.7987 15.4353 76.3209 15.241C76.8704 15.0376 77.2473 14.6669 77.2836 14.0161C77.329 13.1618 77.052 12.3889 76.6933 11.4217Z" fill="white"/>
<path d="M185.078 117.671C184.293 116.685 184.343 116.31 185.278 115.144C185.187 114.276 185.01 113.485 185.046 112.708C185.101 111.582 185.796 110.886 186.727 110.805C187.753 110.714 188.684 111.311 189.002 112.337C189.22 113.042 189.347 113.779 189.524 114.498C189.814 115.673 191.318 116.269 192.326 115.614C192.707 115.365 192.793 114.981 192.757 114.556C192.716 114.073 192.607 113.621 192.076 113.449C191.635 113.309 191.24 113.119 191.199 112.613C191.181 112.36 191.213 111.989 191.377 111.863C191.536 111.736 191.94 111.754 192.139 111.872C192.444 112.052 192.748 112.328 192.911 112.64C193.502 113.765 193.552 114.936 193.075 116.129C192.816 116.785 192.326 117.101 191.649 117.137C191.218 117.16 190.777 117.137 190.346 117.083C189.115 116.92 187.885 116.73 186.654 116.559C185.537 116.405 185.369 116.518 185.074 117.671H185.078ZM189.206 115.42C188.893 114.52 188.693 113.774 188.38 113.083C188.098 112.464 187.362 112.22 186.622 112.36C186.15 112.45 185.846 112.699 185.755 113.196C185.614 113.955 185.818 114.76 186.377 114.995C187.222 115.347 188.134 115.497 189.206 115.424V115.42Z" fill="white"/>
<path d="M74.568 186.888C75.4399 186.21 76.2119 186.395 77.1518 187.457C77.3335 187.421 77.5424 187.394 77.7467 187.335C78.5278 187.118 79.2907 187.2 80.0354 187.466C80.7665 187.728 81.2433 188.366 81.2206 189.084C81.1979 189.903 80.9481 190.662 80.099 190.947C79.4632 191.159 78.7684 191.209 78.0964 191.317C77.6377 191.394 77.1746 191.439 76.7159 191.516C76.3072 191.584 76.0393 191.828 75.9439 192.226C75.8486 192.646 75.7351 193.071 75.7078 193.496C75.6715 194.115 75.8758 194.4 76.3799 194.581C76.8975 194.766 77.5197 194.639 77.833 194.269C77.9692 194.101 78.0419 193.871 78.2008 193.74C78.4279 193.55 78.6958 193.342 78.9728 193.301C79.2044 193.265 79.5768 193.383 79.6948 193.559C79.8083 193.722 79.7448 194.101 79.6222 194.3C79.4678 194.544 79.1998 194.757 78.9365 194.892C77.7558 195.503 76.5479 195.485 75.3581 194.911C74.5498 194.522 74.2183 193.966 74.3864 193.012C74.5953 191.828 74.9222 190.666 75.2083 189.496C75.3082 189.075 75.4535 188.664 75.5443 188.244C75.6942 187.525 75.5943 187.371 74.8677 187.078C74.786 187.046 74.7133 186.987 74.5589 186.897L74.568 186.888ZM76.3163 190.725C77.1564 190.829 78.5005 190.657 78.9456 190.431C79.7629 190.02 79.99 188.958 79.3997 188.325C78.6913 187.566 77.2972 187.756 76.8975 188.714C76.6387 189.333 76.5206 190.002 76.3163 190.725Z" fill="white"/>
<path d="M187.144 137.228C187.108 139.153 185.442 140.523 184.034 140.658C182.19 140.83 180.664 140.288 179.497 138.864C178.653 137.829 178.457 136.618 178.921 135.375C179.425 134.023 180.465 133.25 181.9 133.024C183.566 132.762 186.232 133.892 186.877 135.971C187.004 136.378 187.058 136.807 187.144 137.228ZM184.334 139.379C184.606 139.329 185.028 139.325 185.392 139.171C186.441 138.728 186.745 137.255 185.927 136.337C184.733 134.99 183.148 134.385 181.373 134.335C180.587 134.312 179.902 134.656 179.588 135.442C179.257 136.274 179.429 137.029 180.088 137.648C181.246 138.728 182.617 139.302 184.334 139.375V139.379Z" fill="white"/>
<path d="M176.555 60.1416C176.823 60.5123 176.982 60.7292 177.141 60.9507C176.8 61.362 176.514 61.0637 176.255 60.8829C175.497 60.3541 175.656 59.6083 175.824 58.8128C175.597 58.6862 175.361 58.5551 175.124 58.4241C174.47 58.058 174.035 57.5156 173.794 56.8195C173.49 55.9472 173.703 55.1336 174.348 54.6455C175.097 54.076 176.042 54.0036 176.777 54.5325C177.354 54.9438 177.881 55.4274 178.426 55.8929C179.461 56.7788 180.669 56.6206 181.432 55.4907C181.704 55.0839 181.659 54.6726 181.418 54.2703C181.128 53.7776 180.646 53.5245 180.079 53.6872C179.597 53.8274 179.207 53.7731 178.902 53.407C178.762 53.2398 178.639 52.9324 178.703 52.7562C178.766 52.5708 179.048 52.39 179.261 52.3448C179.52 52.2906 179.824 52.3358 180.079 52.4217C181.355 52.8556 182.122 53.7867 182.513 55.0342C182.776 55.8794 182.572 56.5167 181.759 57.032C180.769 57.6602 179.711 58.1936 178.68 58.7585C178.299 58.9665 177.894 59.1337 177.531 59.3687C177.204 59.5812 176.918 59.8569 176.559 60.1507L176.555 60.1416ZM178.843 57.0229C178.112 56.4263 177.545 55.7076 176.641 55.5223C176.255 55.4455 175.783 55.554 175.415 55.7212C174.929 55.9427 174.702 56.6116 174.843 57.05C175.093 57.85 175.915 58.3744 176.732 58.1529C177.468 57.954 178.149 57.606 178.848 57.0184L178.843 57.0229Z" fill="white"/>
<path d="M28.5766 152.831C29.4621 153.183 30.0071 153.694 30.116 154.526C30.1751 154.955 30.3976 155.14 30.7245 155.362C31.224 155.705 31.7145 156.103 32.1005 156.569C32.7544 157.364 32.7498 158.404 32.1913 159.041C31.6055 159.714 30.3567 159.981 29.5302 159.552C28.8718 159.208 28.2542 158.788 27.623 158.399C26.5967 157.775 25.8293 157.952 25.18 158.969C24.9302 159.357 24.7849 159.76 25.1436 160.157C25.4933 160.546 25.8339 160.989 26.4651 160.84C26.6467 160.799 26.8147 160.718 26.9918 160.655C27.4414 160.492 27.7865 160.7 28.0771 160.994C28.3905 161.314 28.3223 161.717 27.9046 161.898C27.6639 162.002 27.3551 162.056 27.1008 162.006C25.6023 161.726 24.6259 160.795 24.0583 159.425C23.7995 158.792 23.9312 158.191 24.4443 157.73C24.9756 157.256 25.5432 156.826 26.1018 156.392C26.6649 155.954 27.2461 155.547 27.8047 155.104C28.899 154.245 28.8945 154.236 28.5721 152.826L28.5766 152.831ZM27.1053 157.382C27.7229 157.739 28.1725 158.006 28.6311 158.259C28.8491 158.377 29.0761 158.481 29.3123 158.557C29.9934 158.788 30.7109 158.517 31.0878 157.907C31.383 157.423 31.333 156.754 30.9652 156.352C30.4203 155.755 29.5257 155.601 28.8446 156.049C28.2815 156.419 27.7729 156.862 27.1053 157.382Z" fill="white"/>
<path d="M186.454 81.5161C184.438 81.5161 182.749 79.9748 182.635 77.8505C182.581 76.8561 182.985 75.9566 183.702 75.2651C185.092 73.9317 186.772 73.5204 188.602 74.1035C190.123 74.5916 191.009 75.7261 191.136 77.3262C191.259 78.8629 190.491 79.9884 189.233 80.7974C188.429 81.3127 187.512 81.4754 186.454 81.5116V81.5161ZM185.796 80.1014C187.29 79.9386 188.584 79.6629 189.696 78.8403C190.368 78.3431 190.568 77.6606 190.437 76.8742C190.314 76.1284 189.828 75.7171 189.12 75.4775C187.984 75.0979 186.913 75.3962 185.837 75.69C185.115 75.8888 184.442 76.2052 183.902 76.7476C182.939 77.7194 183.225 79.2968 184.497 79.7985C184.951 79.9793 185.455 80.0245 185.8 80.1014H185.796Z" fill="white"/>
<path d="M131.431 184.072C131.876 182.802 132.457 182.549 133.896 182.951C134.046 182.739 134.219 182.526 134.364 182.291C134.864 181.5 135.645 181.116 136.512 180.962C137.774 180.736 138.923 182.156 138.456 183.394C138.265 183.896 137.883 184.339 137.534 184.759C137.157 185.207 136.712 185.595 136.29 186.007C135.826 186.454 135.758 186.96 136.058 187.521C136.176 187.738 136.28 187.964 136.417 188.167C136.794 188.723 137.311 188.904 137.847 188.696C138.474 188.452 138.819 187.977 138.674 187.326C138.537 186.73 138.764 186.373 139.209 186.079C139.595 185.826 139.972 185.948 140.059 186.4C140.118 186.716 140.104 187.1 139.972 187.385C139.387 188.642 138.383 189.415 137.007 189.659C136.181 189.803 135.531 189.505 135.159 188.746C134.605 187.607 134.083 186.454 133.547 185.306C133.492 185.193 133.456 185.075 133.401 184.967C132.834 183.81 132.689 183.738 131.44 184.072H131.431ZM135.309 186.02C136.09 185.414 136.712 184.849 137.052 184.09C137.211 183.742 137.198 183.231 137.071 182.856C136.844 182.205 136.19 182.006 135.431 182.223C134.777 182.413 134.287 183.123 134.469 183.814C134.659 184.542 135 185.234 135.304 186.02H135.309Z" fill="white"/>
<path d="M12.6558 98.2803C13.4187 98.9899 13.4141 99.817 12.6558 100.829C12.842 101.2 13.0599 101.575 13.2189 101.973C13.3415 102.285 13.4187 102.628 13.4504 102.963C13.5549 104.039 13.0645 104.893 12.2425 105.119C11.0437 105.449 10.0765 105.074 9.57242 104.034C9.25001 103.365 8.97755 102.674 8.70054 101.987C8.52344 101.544 8.32818 101.096 7.80142 101.015C7.12027 100.911 6.40279 100.897 5.82608 101.327C5.15401 101.824 5.52637 103.121 6.42095 103.392C6.90684 103.537 7.27466 103.727 7.4336 104.228C7.6107 104.78 7.28375 105.182 6.72066 105.024C6.40733 104.934 6.08946 104.739 5.86695 104.504C4.88155 103.465 4.73169 102.194 5.02686 100.861C5.19034 100.12 5.78521 99.7266 6.71612 99.6769C8.11475 99.6046 9.51339 99.5594 10.912 99.5052C11.13 99.4961 11.348 99.4961 11.5659 99.4826C12.2925 99.4328 12.3107 99.4102 12.5014 98.7187C12.5422 98.5741 12.6013 98.4385 12.6603 98.2803H12.6558ZM8.90035 101.006C9.31812 101.806 9.63145 102.538 10.0583 103.198C10.4443 103.795 11.2299 103.944 11.8838 103.668C12.4514 103.428 12.7057 102.972 12.624 102.335C12.5377 101.648 12.1018 101.06 11.5205 101.019C10.6986 100.965 9.87213 101.006 8.90035 101.006Z" fill="white"/>
<path d="M39.2707 28.3575C39.2071 26.9202 39.9473 25.849 41.1915 25.162C42.4358 24.475 43.7118 24.6377 44.9106 25.3744C46.2139 26.179 47.0222 27.3858 47.0903 28.8683C47.1947 31.1734 45.3329 32.8593 43.1759 32.7554C41.2369 32.6605 39.1027 30.5271 39.2707 28.3621V28.3575ZM45.8779 29.8672C46.064 28.3847 44.0251 26.0253 42.6674 25.7812C42.6083 25.7722 42.5447 25.7496 42.4857 25.7405C41.1643 25.5552 40.0426 26.7711 40.3605 28.0502C40.7329 29.5327 41.632 30.6401 42.9035 31.4446C43.571 31.865 44.3112 31.9373 45.0151 31.5214C45.6508 31.1463 45.9641 30.5632 45.8779 29.8672Z" fill="white"/>
<path d="M158.686 27.8287C158.854 29.8039 156.842 32.0232 154.585 32.0458C152.605 32.0684 150.735 30.1565 150.816 28.231C150.912 25.9982 152.855 24.0953 155.126 24.1134C157.01 24.127 158.845 25.7451 158.681 27.8287H158.686ZM155.616 25.0129C155.189 25.1665 154.717 25.2524 154.345 25.492C153.164 26.2604 152.36 27.3406 152.006 28.7056C151.811 29.4514 152.074 30.1068 152.674 30.6039C153.396 31.2051 154.345 31.2232 155.262 30.622C156.193 30.0164 156.874 29.1757 157.328 28.1768C157.487 27.8242 157.555 27.4039 157.564 27.0106C157.582 25.8355 156.838 25.1168 155.621 25.0129H155.616Z" fill="white"/>
<path d="M95.1752 8.31636C95.0934 6.66209 95.7156 5.41008 97.0643 4.56487C98.3948 3.73321 100.992 3.82361 102.019 5.96603C102.854 7.71522 102.804 9.46893 101.678 11.1548C100.547 12.8498 96.978 13.3741 95.5703 10.504C95.2161 9.78532 95.1298 9.0305 95.1752 8.31636ZM96.5965 8.46552C96.701 8.98982 96.7963 9.76272 97.0234 10.4949C97.2777 11.3266 97.8953 11.869 98.7944 11.9051C99.6572 11.9413 100.257 11.4577 100.597 10.6803C101.342 8.9853 101.251 7.28583 100.443 5.6632C99.8116 4.39311 97.977 4.41571 97.2323 5.63156C96.7418 6.43158 96.6964 7.32651 96.5965 8.46552Z" fill="white"/>
<path d="M12.1472 82.7364C10.5397 82.7274 9.20914 82.2347 8.22828 80.924C6.79786 79.0075 7.70152 76.2911 9.8131 75.4323C11.9474 74.5645 14.8218 75.7216 15.7073 77.8143C16.552 79.8166 15.1942 82.6099 12.5877 82.7138C12.4333 82.7183 12.2789 82.7319 12.1517 82.7364H12.1472ZM10.526 76.5713C10.2309 76.6391 9.68595 76.6843 9.22276 76.8922C8.01031 77.4391 7.71969 79.0392 8.72779 79.8979C10.1401 81.0957 11.8384 81.5251 13.6684 81.2404C14.4676 81.1138 15.0988 80.6482 15.2578 79.7624C15.4076 78.9171 15.0898 78.2663 14.4131 77.7555C13.3278 76.9374 12.0609 76.7069 10.526 76.5668V76.5713Z" fill="white"/>
<path d="M32.1686 44.8552C32.1459 45.9581 31.5919 46.5547 30.6246 46.8214C30.4884 47.2869 30.3976 47.7434 30.225 48.1683C30.0752 48.5344 29.8618 48.887 29.6165 49.1988C29.0489 49.9356 28.3224 50.1887 27.5822 49.9491C26.6694 49.6553 26.0291 48.8734 26.0745 47.9468C26.1018 47.3683 26.2834 46.7988 26.4106 46.2247C26.4787 45.9264 26.5695 45.6281 26.6603 45.3343C27.0599 44.0281 26.2153 43.4947 25.1709 43.2552C24.4352 43.088 23.6496 44.1772 23.9494 44.8914C24.0311 45.0857 24.1946 45.2485 24.2899 45.4383C24.3853 45.6236 24.4988 45.8315 24.5034 46.0304C24.5124 46.4372 24.1219 46.9208 23.8267 46.9208C23.3454 46.9208 23.2228 46.5411 23.1183 46.1841C22.7233 44.8507 23.7314 42.7625 25.021 42.193C25.3889 42.0303 25.734 41.9715 26.0882 42.1704C26.5468 42.4235 27.0191 42.6586 27.4459 42.9569C28.3859 43.6123 29.3032 44.3038 30.2296 44.9818C30.7473 45.3614 31.2604 45.5739 31.769 44.9547C31.828 44.8869 31.9824 44.8959 32.1595 44.8507L32.1686 44.8552ZM27.3733 44.7287C27.2507 45.61 27.0872 46.392 27.0509 47.183C27.0191 47.9016 27.455 48.3852 28.0817 48.5434C28.6493 48.6836 29.1715 48.5028 29.4803 48.0553C29.8163 47.5626 29.8754 46.5954 29.4894 46.2247C28.8991 45.6507 28.2588 45.1219 27.3733 44.7287Z" fill="white"/>
<path d="M157.578 167.692C157.687 166.499 158.132 166.069 159.471 165.794C159.599 165.45 159.712 165.066 159.88 164.713C160.252 163.941 160.757 163.285 161.637 163.041C163.086 162.643 164.339 163.882 163.931 165.333C163.79 165.834 163.536 166.304 163.322 166.788C163.15 167.186 162.927 167.561 162.782 167.968C162.428 168.949 163.467 170.155 164.494 169.979C165.207 169.857 165.738 168.912 165.429 168.153C165.211 167.62 165.243 167.204 165.638 166.802C165.942 166.49 166.283 166.508 166.46 166.892C166.583 167.163 166.669 167.498 166.628 167.782C166.415 169.265 165.565 170.314 164.267 171.032C163.881 171.245 163.486 171.254 163.122 171.019C162.705 170.752 162.278 170.485 161.928 170.146C161.238 169.482 160.598 168.763 159.93 168.072C159.78 167.918 159.608 167.782 159.435 167.647C158.713 167.082 158.699 167.086 157.909 167.588C157.837 167.633 157.737 167.642 157.573 167.688L157.578 167.692ZM161.81 168.248C161.91 168.203 162.01 168.158 162.11 168.112C162.378 167.367 162.673 166.63 162.895 165.875C163.045 165.36 162.832 164.885 162.428 164.555C162.042 164.243 161.556 164.239 161.106 164.424C160.284 164.759 159.966 166.038 160.539 166.797C160.925 167.308 161.379 167.769 161.805 168.253L161.81 168.248Z" fill="white"/>
<path d="M13.8411 109.598C13.7503 111.356 13.0282 112.49 11.5933 113.146C9.67242 114.023 7.82422 113.919 6.19854 112.522C4.90435 111.41 4.58648 109.525 5.34483 107.934C5.59004 107.419 6.18946 107.202 6.68443 107.374C7.31563 107.591 7.45186 108.097 7.01138 108.599C6.88877 108.739 6.73892 108.852 6.60723 108.983C5.63999 109.919 5.85796 111.162 7.11128 111.609C8.45088 112.088 9.79957 112.02 11.1028 111.446C11.3798 111.324 11.6478 111.143 11.8748 110.94C13.1191 109.824 12.7694 108.572 11.7885 107.555C11.6614 107.424 11.4525 107.36 11.3481 107.22C11.2572 107.098 11.1664 106.845 11.23 106.759C11.3072 106.651 11.5706 106.565 11.7023 106.615C12.4924 106.899 13.1009 107.446 13.4551 108.187C13.6867 108.68 13.7503 109.25 13.8456 109.607L13.8411 109.598Z" fill="white"/>
<path d="M10.5942 96.9424C10.903 96.6757 11.0756 96.5311 11.2436 96.382C11.6523 96.0113 12.1291 95.6904 12.4515 95.261C12.8239 94.7638 12.8375 94.1672 12.4833 93.6022C12.1336 93.0418 11.5932 92.983 11.012 93.0418C10.567 93.087 10.2945 93.3536 10.0765 93.7243C9.64969 94.4429 9.25916 95.1932 8.73695 95.8396C7.71976 97.0961 5.5764 96.7842 5.06326 95.2881C4.86346 94.7051 4.92703 94.0045 4.97699 93.3672C5.01785 92.8519 5.22674 92.3547 5.38114 91.7807H7.51087C7.51996 92.2689 7.21571 92.3547 6.87967 92.4677C6.19398 92.6937 5.68084 93.105 5.55369 93.8734C5.45833 94.4565 5.70355 94.9537 6.21214 95.1706C6.72528 95.3921 7.12943 95.3017 7.51995 94.8136C7.74701 94.5243 7.91956 94.1898 8.11483 93.8734C8.40545 93.3988 8.66883 92.9016 8.99578 92.4542C10.131 90.8903 12.6922 91.5276 13.228 93.0282C13.6367 94.1717 13.5096 95.2836 13.0736 96.3774C12.9419 96.7074 12.6831 96.9153 12.3016 96.9741C11.8203 97.0509 11.3435 97.2272 10.5988 96.9469L10.5942 96.9424Z" fill="white"/>
<path d="M145.558 17.1846C145.481 17.8128 145.213 18.4004 144.604 19.1597C144.541 18.8433 144.495 18.6354 144.459 18.423C144.377 17.9755 144.354 17.5055 144.205 17.0761C143.996 16.4795 143.464 16.258 142.874 16.2399C142.093 16.2173 141.612 16.9812 141.925 17.745C142.066 18.084 142.293 18.3868 142.497 18.6942C142.724 19.0287 142.988 19.336 143.21 19.6705C143.968 20.8185 143.946 21.8717 143.165 22.8344C142.424 23.7429 141.326 24.0683 140.149 23.5485C139.459 23.2412 138.855 22.7169 138.251 22.2468C137.974 22.0299 137.883 21.6683 138.042 21.3157C138.229 20.8999 138.142 20.3259 138.778 20.0095C138.851 20.3485 138.878 20.6106 138.964 20.8592C139.132 21.3519 139.259 21.8762 139.536 22.3056C139.963 22.961 140.89 23.1191 141.525 22.7395C142.175 22.3553 142.402 21.5372 142.011 20.7959C141.798 20.3891 141.494 20.0276 141.239 19.6434C141.003 19.2818 140.726 18.9337 140.558 18.5405C140.186 17.6682 140.327 16.8275 140.962 16.1269C141.607 15.4218 142.42 15.1958 143.333 15.5393C143.705 15.6794 144.059 15.8919 144.377 16.1314C144.79 16.4478 145.154 16.823 145.553 17.1891L145.558 17.1846Z" fill="white"/>
<path d="M17.4011 144.618C17.2558 144.866 17.1196 145.124 16.9652 145.368C16.5747 145.987 16.4702 146.629 16.8335 147.289C17.0697 147.718 17.4011 148.048 17.937 147.994C18.4819 147.94 18.8861 147.646 19.0041 147.108C19.0949 146.692 19.0949 146.254 19.104 145.824C19.1177 145.269 19.0949 144.717 19.0949 144.161C19.0949 143.162 19.8124 142.267 21.0203 141.96C22.1147 141.684 23.2182 142.037 23.8085 142.963C24.1673 143.528 24.4079 144.175 24.6486 144.808C24.8711 145.386 24.7667 145.892 24.1718 146.24C23.8449 146.43 23.6269 146.841 23.0138 146.692C23.1682 146.389 23.309 146.136 23.4271 145.879C23.754 145.156 23.9538 144.437 23.4997 143.668C23.1773 143.122 22.696 142.882 22.1193 142.9C21.3927 142.923 20.8705 143.379 20.7524 144.071C20.6661 144.582 20.6979 145.115 20.6661 145.635C20.6344 146.186 20.6661 146.756 20.5345 147.284C20.3074 148.238 19.4855 148.875 18.5319 148.961C17.5601 149.047 16.5838 148.505 16.2069 147.587C15.9616 146.991 15.8027 146.358 15.6438 145.734C15.6074 145.589 15.671 145.327 15.7845 145.25C16.2205 144.934 16.6973 144.672 17.1559 144.392C17.2331 144.469 17.3103 144.545 17.3875 144.622L17.4011 144.618Z" fill="white"/>
<path d="M11.398 89.7465C11.8112 89.5025 12.0837 89.3307 12.3652 89.177C12.9601 88.8516 13.4187 88.4222 13.6049 87.7442C13.7911 87.0663 13.5504 86.3476 13.01 86.0267C12.4106 85.6696 11.6477 85.7736 11.1437 86.3295C10.8349 86.673 10.5942 87.0753 10.3127 87.4459C10.0311 87.8166 9.77227 88.2053 9.44532 88.5307C8.70967 89.2765 7.79239 89.4075 6.88419 88.9465C6.11221 88.5533 5.56729 87.4821 5.75347 86.5826C5.88516 85.9498 6.0668 85.3216 6.30294 84.7204C6.38467 84.517 6.698 84.2956 6.91143 84.2865C7.42003 84.2594 7.9377 84.3543 8.4463 84.3995C8.4463 84.9193 8.11934 84.9193 7.86959 84.9962C7.3837 85.1453 6.94776 85.3713 6.64351 85.7916C6.20303 86.3973 6.26661 87.2561 6.77974 87.6403C7.31558 88.0471 8.12842 87.916 8.59615 87.2968C9.06387 86.6821 9.53614 86.0583 9.9085 85.3849C10.7032 83.9656 13.4323 84.1961 14.1226 85.9453C14.6402 87.2516 14.2406 88.4267 13.6594 89.5883C13.6094 89.6878 13.4868 89.7963 13.3824 89.8143C12.783 89.9183 12.179 90.0674 11.3889 89.7465H11.398Z" fill="white"/>
<path d="M139.618 181.518C139.573 181.31 139.509 181.143 139.509 180.98C139.532 178.829 141.689 177.269 143.837 177.839C146.166 178.449 147.969 181.604 147.129 183.9C146.525 185.541 144.972 186.291 143.564 186.499C143.419 186.522 143.251 186.485 143.106 186.436C142.733 186.309 142.329 185.627 142.465 185.315C142.661 184.867 143.078 184.962 143.437 185.017C143.864 185.08 144.282 185.247 144.704 185.265C145.412 185.292 145.876 184.867 145.989 184.189C146.321 182.178 145.099 180.076 143.542 179.249C142.252 178.567 140.69 179.195 140.195 180.583C140.081 180.908 140.127 181.328 139.614 181.523L139.618 181.518Z" fill="white"/>
<path d="M92.1963 4.9313C92.2916 5.60476 92.3779 6.22398 92.4733 6.87032C91.9283 6.911 91.8784 6.54489 91.724 6.30534C91.2881 5.6138 90.6886 5.25673 89.8486 5.38328C89.3218 5.46464 88.9631 5.76747 88.8541 6.22398C88.7405 6.69405 88.9631 7.23191 89.4262 7.48503C89.7532 7.6613 90.1119 7.7743 90.4571 7.90989C90.9793 8.10877 91.5242 8.25792 92.0192 8.51104C93.6494 9.32913 93.8038 11.6298 92.3007 12.6738C91.2472 13.4061 90.062 13.3699 88.8949 13.1077C88.1865 12.9496 87.7915 11.7789 88.1729 10.9924C88.509 11.3495 88.8041 11.6975 89.1402 12.0094C89.6488 12.4795 90.2618 12.6603 90.9475 12.5066C91.4243 12.3981 91.8466 12.1586 91.9692 11.6614C92.1009 11.1145 92.1554 10.5269 91.6014 10.1472C91.2517 9.90316 90.8657 9.7088 90.4752 9.52801C89.9121 9.27038 89.3173 9.08054 88.7633 8.80483C87.8596 8.36188 87.6189 7.56638 87.6961 6.62625C87.7688 5.74035 88.35 5.23865 89.0857 4.92226C89.4717 4.75954 89.9303 4.72338 90.3572 4.7279C90.9112 4.73694 91.4652 4.84542 92.1963 4.9313Z" fill="white"/>
<path d="M36.2509 37.0269C36.8821 37.063 37.3135 37.0947 37.7449 37.1127C38.3579 37.1399 38.9165 36.9817 39.3797 36.5704C39.8519 36.15 39.9927 35.3726 39.7066 34.8754C39.3842 34.324 38.8802 34.1251 38.1808 34.3375C37.4089 34.5726 36.6641 34.9025 35.8876 35.0924C34.6616 35.3907 33.6852 34.8347 33.3991 33.7545C33.2175 33.0765 33.4037 32.4528 33.8169 31.9239C34.1757 31.4629 34.6161 31.0652 35.0339 30.6448C35.27 30.4053 35.5289 30.1883 35.815 29.9307C36.4189 30.3465 37.0093 30.69 37.4497 31.5126C36.923 31.4674 36.5733 31.4267 36.2237 31.4041C35.5834 31.3589 34.9885 31.4313 34.548 31.9872C34.2211 32.403 34.1393 32.968 34.3891 33.3612C34.6298 33.7409 35.0702 33.8856 35.6288 33.7138C36.1011 33.5692 36.5597 33.3658 37.0274 33.2031C37.3771 33.081 37.7313 32.959 38.09 32.8641C38.9937 32.6245 39.752 32.8821 40.3424 33.5918C40.9645 34.3421 40.9645 35.1918 40.6057 36.037C40.1607 37.0901 39.2707 37.7139 38.2898 38.2246C38.1854 38.2789 38.031 38.3467 37.9402 38.3105C37.3271 38.0664 36.7005 37.8269 36.2554 37.0314L36.2509 37.0269Z" fill="white"/>
<path d="M184.592 64.1684C184.765 63.9244 184.933 63.6758 185.11 63.4317C185.482 62.93 185.605 62.3786 185.437 61.7684C185.26 61.1266 184.883 60.8373 184.234 60.8418C183.607 60.8463 183.298 61.0723 183.139 61.7503C183.039 62.1661 183.017 62.6046 182.985 63.0339C182.953 63.4633 182.962 63.9018 182.935 64.3311C182.88 65.2939 182.367 66.0216 181.504 66.3334C180.651 66.6408 179.715 66.6634 178.943 66.008C177.949 65.1673 177.59 64.0419 177.567 62.7899C177.567 62.6497 177.599 62.4464 177.695 62.3695C178.14 62.0079 178.612 61.6825 179.084 61.339C179.411 61.8 179.107 62.026 178.957 62.2656C178.621 62.8079 178.412 63.3774 178.485 64.0238C178.607 65.1357 179.538 65.7052 180.578 65.3029C181.177 65.0724 181.377 64.5526 181.436 63.9741C181.509 63.269 181.573 62.5594 181.595 61.8497C181.641 60.3989 182.799 59.7841 183.68 59.7661C184.806 59.748 185.546 60.2813 185.986 61.5605C186.168 62.0802 186.25 62.6407 186.341 63.1876C186.368 63.3413 186.304 63.6125 186.195 63.6712C185.728 63.9289 185.305 64.3221 184.738 64.3402C184.692 64.2814 184.642 64.2181 184.597 64.1594L184.592 64.1684Z" fill="white"/>
<path d="M30.2613 35.5352C30.9334 35.8154 31.5237 36.1634 32.0414 36.9318C31.6509 36.9499 31.3966 36.986 31.1468 36.968C30.4566 36.9137 29.8481 37.0584 29.394 37.6143C29.0216 38.0708 28.9672 38.6313 29.2396 38.9883C29.4985 39.3273 29.9662 39.4358 30.5156 39.2369C30.8925 39.1013 31.2422 38.8934 31.6146 38.7397C32.1005 38.5409 32.5818 38.3194 33.0859 38.1838C34.7978 37.7092 36.3145 39.7748 35.6107 41.2076C35.1293 42.1929 34.4663 42.9568 33.5218 43.4992C33.1994 43.6845 32.8497 43.7206 32.55 43.5082C32.164 43.2325 31.5056 43.2325 31.4556 42.4551C31.7372 42.4777 31.9733 42.4777 32.2004 42.5229C33.0359 42.6901 33.7352 42.4008 34.3437 41.8765C34.8569 41.4336 34.9522 40.8324 34.6661 40.281C34.3755 39.7251 33.8669 39.5126 33.154 39.7115C32.7998 39.811 32.4637 39.9827 32.1186 40.1273C31.778 40.272 31.442 40.4392 31.0969 40.5748C30.0116 40.9952 29.0988 40.7782 28.5085 39.9827C28.0181 39.3228 28.0998 38.0392 28.7129 37.2934C29.2033 36.6968 29.73 36.1363 30.2613 35.5352Z" fill="white"/>
<path d="M174.175 53.1087C172.867 53.3528 171.659 52.7381 170.919 51.5539C169.43 49.1719 170.892 46.5188 173.403 45.773C175.674 45.095 177.881 46.2611 178.489 49.1765C178.616 49.7776 178.144 50.3109 177.495 50.3968C177.1 50.4511 176.873 50.2612 176.886 49.8906C176.9 49.5561 176.991 49.2217 177.081 48.8962C177.436 47.599 176.446 46.5549 175.106 46.8261C174.039 47.0386 173.131 47.5312 172.381 48.3267C171.137 49.6556 171.505 51.6579 173.158 52.4398C173.381 52.5438 173.644 52.5754 173.853 52.6929C173.984 52.7698 174.057 52.946 174.18 53.1087H174.175Z" fill="white"/>
<path d="M186.899 71.188C187.131 70.8625 187.226 70.6637 187.376 70.5326C187.966 70.0038 187.953 69.3258 187.862 68.6433C187.785 68.0918 187.38 67.7529 186.858 67.7212C186.309 67.6896 185.905 67.9427 185.787 68.5303C185.619 69.3755 185.519 70.2388 185.414 71.0976C185.169 73.0953 182.812 73.5157 181.686 72.6886C181.064 72.2321 180.678 71.5993 180.474 70.867C180.342 70.3925 180.251 69.8953 180.228 69.4071C180.219 69.1631 180.337 68.8241 180.519 68.6794C180.914 68.3585 181.391 68.137 181.809 67.8884C182.195 68.2546 181.909 68.4354 181.79 68.6749C181.532 69.1902 181.196 69.7054 181.109 70.2569C180.969 71.1473 181.645 71.8885 182.463 71.9111C183.157 71.9337 183.675 71.6038 183.861 70.9258C183.993 70.4512 184.025 69.954 184.102 69.4659C184.175 69.0094 184.22 68.5438 184.338 68.1009C184.574 67.2105 185.264 66.8082 186.109 66.6681C186.917 66.5325 187.598 66.8398 188.03 67.5269C188.289 67.9336 188.475 68.4037 188.593 68.8738C188.725 69.4071 188.743 69.9721 188.815 70.5687C188.257 70.8535 187.776 71.2874 186.899 71.188Z" fill="white"/>
<path d="M190.75 124.758C190.114 124.667 189.583 124.595 189.011 124.518C189.111 123.917 189.574 123.976 189.878 123.844C190.641 123.519 191.041 122.995 191.05 122.226C191.054 121.797 190.923 121.44 190.528 121.209C190.101 120.961 189.669 120.979 189.315 121.286C188.993 121.566 188.743 121.928 188.457 122.254C188.053 122.719 187.68 123.221 187.24 123.65C185.964 124.902 183.512 123.894 183.339 122.109C183.23 121.011 183.548 120.03 184.088 119.103C184.175 118.954 184.343 118.787 184.497 118.76C185.096 118.651 185.709 118.552 186.459 118.954C186.114 119.139 185.877 119.243 185.669 119.383C185.21 119.686 184.683 119.939 184.329 120.342C183.698 121.056 183.807 121.951 184.465 122.489C185.083 122.99 186.036 122.85 186.622 122.15C186.999 121.698 187.331 121.209 187.708 120.757C188.175 120.192 188.729 119.772 189.524 119.772C191.013 119.768 192.058 120.983 191.69 122.452C191.49 123.243 191.077 123.98 190.75 124.771V124.758Z" fill="white"/>
<path d="M187.026 131.519C187.358 131.406 187.685 131.298 188.016 131.185C188.816 130.905 189.192 130.389 189.206 129.603C189.215 129.169 189.106 128.794 188.707 128.577C188.293 128.355 187.848 128.346 187.476 128.649C187.117 128.938 186.795 129.282 186.472 129.612C186.191 129.901 185.941 130.222 185.655 130.498C184.779 131.339 183.77 131.465 182.658 130.891C181.791 130.444 181.259 129.345 181.45 128.283C181.527 127.863 181.663 127.442 181.827 127.045C182.431 125.571 183.08 125.323 184.624 125.973C184.465 126.353 184.075 126.331 183.78 126.439C183.085 126.701 182.494 127.058 182.204 127.781C181.945 128.423 182.081 129.038 182.59 129.458C183.067 129.851 183.825 129.928 184.329 129.567C184.701 129.296 185.01 128.938 185.351 128.622C185.778 128.22 186.164 127.759 186.645 127.433C187.953 126.557 189.665 127.361 189.887 128.92C189.978 129.558 189.878 130.15 189.551 130.71C189.397 130.977 189.256 131.253 189.115 131.528C188.775 132.206 188.747 132.229 187.953 132.053C187.639 131.98 187.335 131.863 187.031 131.763C187.031 131.682 187.031 131.605 187.031 131.524L187.026 131.519Z" fill="white"/>
<path d="M81.1435 12.3212C81.6748 12.3754 81.8609 12.7325 82.1198 12.972C82.7192 13.5189 83.4049 13.6997 84.1859 13.5054C84.7536 13.3652 85.0396 13.0353 85.1168 12.4884C85.2258 11.6929 85.0805 11.2635 84.4947 10.9878C84.0225 10.7663 83.5048 10.6352 83.0007 10.4725C82.6738 10.3686 82.3377 10.3008 82.0153 10.1923C81.0572 9.87139 80.3715 8.92221 80.4396 8.02728C80.5123 7.1007 81.3887 6.15605 82.3877 6.05661C83.1506 5.97978 83.9316 6.04305 84.7581 6.04305C84.9443 6.61256 85.3257 7.12782 84.9579 8.04084C84.749 7.72897 84.6219 7.53009 84.4902 7.33574C84.0179 6.65324 83.3277 6.5764 82.583 6.67584C82.0199 6.75267 81.7202 7.04647 81.6657 7.55269C81.6021 8.12672 81.811 8.56062 82.3196 8.75498C82.7237 8.90865 83.1551 8.99453 83.5729 9.10753C83.9907 9.22053 84.4221 9.30188 84.8308 9.44652C85.7708 9.78099 86.293 10.4545 86.3656 11.4488C86.4428 12.4613 86.1159 13.2703 85.1759 13.772C84.2677 14.2557 83.3095 14.3641 82.2923 14.224C81.8655 14.1653 81.6021 13.9845 81.4749 13.5958C81.3478 13.2025 81.039 12.8545 81.1298 12.3121L81.1435 12.3212Z" fill="white"/>
<path d="M145.149 22.9566C145.19 23.395 145.226 23.7476 145.254 24.0956C145.313 24.8414 145.549 25.4923 146.243 25.8764C146.452 25.994 146.702 26.0753 146.938 26.0934C147.942 26.1793 148.469 25.5872 148.242 24.6018C148.169 24.2809 147.978 23.9781 147.815 23.6843C147.538 23.2007 147.211 22.7487 146.952 22.256C146.543 21.4831 146.548 20.7057 147.097 19.9961C147.642 19.2955 148.428 19.1102 149.186 19.4175C150.062 19.7746 150.862 20.326 151.688 20.8051C151.779 20.8594 151.838 21.0085 151.856 21.1215C151.929 21.5148 151.216 22.5543 150.666 22.7894C150.612 22.3148 150.576 21.8628 150.503 21.4108C150.399 20.7599 149.754 20.1814 149.1 20.1317C148.305 20.0729 147.828 20.6153 148.105 21.3566C148.287 21.8402 148.623 22.2651 148.882 22.717C149.141 23.169 149.413 23.621 149.649 24.0866C150.308 25.3928 149.014 26.9793 147.724 26.9883C146.194 27.0019 145.185 26.1522 144.314 25.0403C144.241 24.9499 144.195 24.8188 144.182 24.7013C144.136 24.2945 144.586 23.4312 145.14 22.9476L145.149 22.9566Z" fill="white"/>
<path d="M66.0764 185.609C65.981 185.202 65.9492 184.926 65.8493 184.678C65.6677 184.221 65.5088 183.737 65.2227 183.349C64.7413 182.693 63.7014 182.549 63.1293 182.978C62.5344 183.426 62.4209 184.37 62.9249 185.071C63.2156 185.473 63.5788 185.817 63.8967 186.196C64.3962 186.802 64.8095 187.435 64.7186 188.289C64.6142 189.265 64.0057 189.93 63.0112 190.061C62.1984 190.169 61.4763 189.993 60.8406 189.46C60.4864 189.166 60.1004 188.904 59.6781 188.587C59.7962 187.982 59.8552 187.326 60.5454 186.721C60.6317 187.249 60.6771 187.629 60.7543 188.004C60.9223 188.804 61.4536 189.301 62.1893 189.383C63.043 189.473 63.6469 188.714 63.2882 187.945C63.1111 187.561 62.8114 187.227 62.5389 186.892C62.2483 186.531 61.8941 186.214 61.6262 185.839C61.0132 184.976 60.9768 184.036 61.4763 183.123C61.9622 182.237 62.8023 181.957 63.7741 182.029C64.8503 182.11 65.7177 182.635 66.4851 183.344C66.5941 183.444 66.7303 183.615 66.7121 183.733C66.6259 184.325 66.7121 184.976 66.0719 185.609H66.0764Z" fill="white"/>
<path d="M19.6081 151.796C20.5844 150.842 20.8296 150.697 21.5108 150.693C21.3973 150.964 21.2974 151.208 21.1975 151.448C20.9114 152.13 20.975 152.786 21.4063 153.382C21.6743 153.753 22.0557 153.992 22.528 153.888C23.0411 153.775 23.1955 153.355 23.1773 152.889C23.1546 152.365 23.082 151.845 23.0229 151.326C22.9821 150.959 22.8822 150.593 22.8731 150.223C22.8595 149.237 23.3317 148.532 24.1945 148.18C25.0482 147.827 26.2289 147.999 26.7738 148.695C27.2643 149.319 27.623 150.046 27.9999 150.747C28.3087 151.321 28.1543 151.823 27.6412 152.221C27.3642 152.433 27.0781 152.641 26.7965 152.853L26.6331 152.731C26.6648 152.541 26.6512 152.324 26.7375 152.162C27.0645 151.547 27.0009 150.892 26.9418 150.25C26.8919 149.694 26.3379 149.156 25.7975 149.034C25.1254 148.88 24.4715 149.328 24.4397 150.065C24.408 150.801 24.5169 151.543 24.5624 152.284C24.576 152.528 24.5941 152.776 24.5987 153.021C24.6123 153.915 24.1128 154.462 23.3227 154.77C22.5325 155.077 21.8377 154.81 21.2701 154.268C20.5436 153.576 20.1076 152.682 19.5945 151.787L19.6081 151.796Z" fill="white"/>
<path d="M120.796 193.338C121.05 193.536 121.236 193.645 121.372 193.803C121.885 194.386 122.544 194.458 123.248 194.345C123.806 194.26 124.07 193.97 124.133 193.437C124.206 192.813 124.042 192.452 123.502 192.244C123.098 192.09 122.666 192.013 122.244 191.918C121.849 191.832 121.445 191.792 121.054 191.692C119.728 191.349 119.097 190.594 119.075 189.351C119.052 188.203 119.756 187.245 120.945 186.883C121.418 186.738 121.917 186.653 122.408 186.625C123.638 186.549 124.11 187.028 124.201 188.515C123.942 188.348 123.738 188.253 123.584 188.108C123.111 187.661 122.562 187.416 121.917 187.38C120.95 187.331 120.346 187.774 120.237 188.61C120.142 189.315 120.668 190.038 121.472 190.241C122.072 190.395 122.694 190.472 123.293 190.617C124.097 190.811 124.833 191.123 125.132 191.995C125.618 193.423 124.792 194.779 123.27 194.996C122.721 195.073 122.153 195.06 121.595 195.096C121.277 195.114 121.032 195.005 120.968 194.68C120.891 194.282 120.514 193.934 120.791 193.342L120.796 193.338Z" fill="white"/>
<path d="M82.4286 190.106C82.1788 189.631 82.415 189.455 82.6102 189.261C84.1587 187.742 86.7335 188.009 87.9641 189.821C89.4127 191.95 88.568 196.167 85.2485 196.804C84.0588 197.03 82.969 196.619 82.0381 195.891C81.8337 195.729 81.7656 195.281 81.7928 194.978C81.811 194.757 82.0471 194.458 82.2606 194.364C82.583 194.219 82.8464 194.468 83.0144 194.752C83.1415 194.965 83.2414 195.195 83.3686 195.403C83.8817 196.239 84.7082 196.425 85.5119 195.869C86.3021 195.322 86.6563 194.49 86.8606 193.609C87.1058 192.547 87.1876 191.462 86.6926 190.431C86.0659 189.12 84.5402 188.709 83.3095 189.509C83.0325 189.69 82.7601 189.88 82.424 190.106H82.4286Z" fill="white"/>
<path d="M72.8107 187.783C72.7199 187.511 72.6291 187.236 72.5428 186.965C72.2885 186.165 71.898 185.487 70.9852 185.288C70.3903 185.157 69.8772 185.256 69.5003 185.78C69.0871 186.35 69.0507 186.815 69.4776 187.398C69.75 187.769 70.0997 188.085 70.4085 188.429C70.7354 188.8 71.0987 189.148 71.3757 189.554C72.2976 190.901 71.4575 192.646 69.8318 192.754C69.4095 192.782 68.9417 192.727 68.5603 192.56C67.8882 192.257 67.2707 191.841 66.585 191.444C66.8938 190.852 66.7257 190.169 67.4023 189.649C67.4886 189.997 67.5794 190.246 67.6067 190.499C67.6793 191.182 68.0744 191.629 68.642 191.954C69.1597 192.253 69.7455 192.194 70.0997 191.828C70.4766 191.444 70.5039 190.784 70.1315 190.3C69.9453 190.056 69.7001 189.857 69.4867 189.636C69.078 189.215 68.6239 188.822 68.2651 188.361C67.4114 187.267 67.8065 185.441 69.0371 184.831C69.7955 184.451 70.6174 184.569 71.4075 184.75C71.7072 184.818 71.9933 184.958 72.2658 185.107C73.4964 185.767 73.6826 186.431 72.8198 187.787L72.8107 187.783Z" fill="white"/>
<path d="M130.981 186.074C130.672 185.871 130.418 185.726 130.182 185.55C129.651 185.148 129.047 185.066 128.411 185.125C127.734 185.188 127.212 185.649 127.099 186.251C126.976 186.91 127.316 187.53 127.993 187.796C128.275 187.909 128.588 187.95 128.892 187.995C129.478 188.077 130.073 188.099 130.65 188.212C131.771 188.434 132.33 189.098 132.375 190.192C132.416 191.218 131.776 192.158 130.772 192.416C130.146 192.578 129.492 192.66 128.842 192.737C128.692 192.755 128.425 192.646 128.375 192.529C128.179 192.063 127.757 191.656 127.939 190.915C128.197 191.105 128.425 191.227 128.593 191.403C129.137 191.973 129.814 191.968 130.5 191.833C131.013 191.733 131.376 191.25 131.385 190.766C131.394 190.237 131.027 189.776 130.436 189.677C129.791 189.568 129.142 189.527 128.493 189.451C127.503 189.329 126.558 189.103 126.168 188.036C125.759 186.924 125.913 185.988 126.753 185.243C127.534 184.547 128.465 184.257 129.496 184.257C130.418 184.257 130.977 184.89 130.972 186.065L130.981 186.074Z" fill="white"/>
<path d="M129.896 11.928C129.741 11.6749 129.56 11.4353 129.433 11.1732C129.328 10.9517 129.251 10.7076 129.215 10.4681C129.074 9.58671 127.92 9.27484 127.194 9.69066C126.072 10.328 125.555 11.363 125.282 12.5246C125.15 13.0806 125.159 13.7043 125.237 14.2738C125.446 15.7744 126.917 16.6196 128.37 16.127C128.679 16.023 128.992 15.9281 129.296 15.8287C129.492 16.3032 129.183 16.4298 128.969 16.5699C127.421 17.5778 124.991 16.9541 124.092 15.3224C122.943 13.2433 123.911 10.215 126.059 9.17088C127.448 8.49742 129.519 8.93133 130.509 10.1065C131.063 10.7619 130.904 11.2817 129.896 11.9235V11.928Z" fill="white"/>
<path d="M187.521 109.11C187.185 109.458 186.99 109.255 186.795 109.11C185.782 108.382 184.969 106.778 185.809 105.051C186.409 103.822 187.412 103.121 188.788 102.981C190.25 102.836 191.608 103.008 192.825 103.975C194.365 105.196 194.215 107.745 193.443 108.893C193.166 109.304 192.744 109.463 192.308 109.282C192.099 109.196 191.849 109.001 191.804 108.816C191.763 108.644 191.94 108.378 192.085 108.215C192.267 108.012 192.526 107.876 192.744 107.704C193.534 107.081 193.597 106.177 192.871 105.471C192.653 105.259 192.394 105.056 192.112 104.943C190.882 104.436 189.628 104.201 188.302 104.608C186.318 105.218 185.778 107.103 187.167 108.649C187.285 108.785 187.385 108.934 187.517 109.105L187.521 109.11Z" fill="white"/>
<path d="M30.384 163.719C30.4294 164.311 30.4748 164.858 30.5111 165.405C30.5656 166.236 31.0969 166.788 31.9234 166.801C33.4673 166.824 35.7696 164.998 35.7832 163.253C35.7923 162.01 35.0612 161.066 33.817 160.84C33.4718 160.776 33.1358 160.695 32.8043 160.528C33.5854 159.931 34.4028 160.103 35.1384 160.451C36.805 161.237 37.5724 162.987 36.9049 164.912C36.2419 166.815 34.3937 167.922 32.382 167.782C30.6065 167.656 29.4667 166.105 29.1034 164.89C28.8673 164.103 29.3032 163.683 30.384 163.723V163.719Z" fill="white"/>
<path d="M64.4869 14.0388C64.5323 11.4489 66.3033 9.69518 69.0325 10.0975C69.5956 10.1788 69.9907 10.9562 69.75 11.4625C69.6047 11.7743 69.3413 11.8421 69.0507 11.7065C68.8009 11.589 68.5784 11.4173 68.3468 11.2591C67.2252 10.5088 66.2534 10.8387 65.9809 12.1404C65.6086 13.9439 66.1535 15.5258 67.5203 16.7371C68.7691 17.8445 70.4856 17.4106 71.2485 15.901C71.2758 15.8467 71.2712 15.7563 71.3121 15.7292C71.471 15.6298 71.6436 15.5529 71.8116 15.4671C71.8434 15.6343 71.9342 15.8151 71.8933 15.9597C71.3439 17.9304 68.9916 19.0016 67.1071 18.1338C65.2862 17.2931 64.7094 15.675 64.4869 14.0343V14.0388Z" fill="white"/>
<path d="M25.9973 50.5818C26.1563 50.8123 26.3742 51.0247 26.4605 51.2823C27.3687 53.9852 25.1845 56.2542 22.7414 55.9288C20.9523 55.6892 19.5627 54.8033 18.9769 53.0406C18.3276 51.088 19.2267 49.5332 20.648 48.5117C21.1975 48.1139 21.7379 48.245 22.1012 48.7738C22.3691 49.1625 22.2964 49.4834 21.8423 49.6597C21.529 49.7818 21.1793 49.8089 20.8433 49.8631C19.9124 50.0168 19.4129 50.7942 19.6762 51.6891C20.1213 53.1988 22.1148 54.6045 23.6723 54.5141C25.3298 54.4191 26.3379 52.9547 25.8384 51.3863C25.7703 51.1694 25.7476 50.9388 25.7067 50.7128L25.9973 50.5863V50.5818Z" fill="white"/>
<path d="M164.666 162.503C163.953 162.028 164.012 161.405 164.081 160.862C164.403 158.232 167.455 156.84 169.693 158.299C170.206 158.634 170.701 159.045 171.096 159.511C172.736 161.454 172.159 164.383 169.498 165.586C169.28 165.685 168.899 165.658 168.708 165.527C168.485 165.373 168.29 165.048 168.277 164.781C168.267 164.632 168.617 164.41 168.849 164.311C169.067 164.216 169.335 164.234 169.584 164.207C170.633 164.08 171.133 163.475 171.001 162.435C170.847 161.192 170.025 160.397 169.067 159.723C168.336 159.208 167.527 158.914 166.605 159.131C165.62 159.362 164.921 160.135 164.803 161.138C164.753 161.558 164.721 161.983 164.671 162.503H164.666Z" fill="white"/>
<path d="M13.7774 114.145C13.9454 114.538 14.068 114.728 14.1089 114.936C14.5176 116.825 14.5539 117.404 14.2905 118.059C14.1679 117.883 14.0544 117.757 13.9908 117.607C13.8092 117.205 13.4868 117.07 13.0781 117.128C11.5432 117.363 10.0129 117.598 8.48257 117.86C7.93765 117.955 7.58345 118.254 7.67881 118.896C7.69697 119.027 7.54258 119.185 7.42905 119.411C6.67979 118.679 6.51177 117.747 5.86694 116.884C6.78423 116.712 7.50171 116.568 8.22373 116.446C9.63145 116.211 11.0437 115.98 12.456 115.777C13.0872 115.686 13.5049 115.447 13.514 114.742C13.514 114.611 13.623 114.484 13.7774 114.141V114.145Z" fill="white"/>
<path d="M169.008 154.665C168.585 154.937 168.299 155.126 168.009 155.312C167.945 155.248 167.886 155.185 167.822 155.122C168.317 153.996 169.126 153.079 169.839 152.098C169.911 152.116 169.984 152.134 170.057 152.152C170.057 152.369 170.111 152.595 170.057 152.799C169.938 153.296 170.125 153.635 170.515 153.911C171.578 154.656 172.627 155.429 173.708 156.157C174.629 156.781 174.657 156.758 175.56 156.089C175.606 156.058 175.678 156.058 175.783 156.03C175.837 156.112 175.978 156.238 175.955 156.302C175.647 157.12 175.538 158.019 174.938 158.837C172.958 157.364 171.047 155.908 168.999 154.661L169.008 154.665Z" fill="white"/>
<path d="M65.0773 19.2594C64.2871 19.9736 62.2891 20.8549 61.6624 20.8143C61.6624 20.7284 61.6261 20.6063 61.667 20.5657C62.2618 20.0414 62.1983 19.4628 61.8759 18.821C61.3491 17.7724 60.8768 16.6921 60.3501 15.6435C59.8279 14.604 59.7961 14.604 58.6563 14.7531C58.6018 14.7621 58.5427 14.7169 58.402 14.6672C58.5064 14.491 58.5745 14.2966 58.7062 14.1655C59.0831 13.7994 59.4827 13.4559 59.8869 13.1169C60.3137 12.7598 60.5726 12.796 60.836 13.3067C61.2583 14.1339 61.6261 14.9836 62.0257 15.8243C62.4253 16.6605 62.8522 17.4876 63.22 18.3374C63.4743 18.925 63.8603 19.2187 64.5096 19.169C64.6504 19.16 64.8003 19.2142 65.0818 19.2594H65.0773Z" fill="white"/>
<path d="M37.3363 172.908C36.4054 172.813 35.7605 172.298 35.034 171.999C34.7524 171.886 34.757 171.602 34.925 171.371C35.0521 171.195 35.2111 171.046 35.3609 170.892C36.5688 169.649 37.7586 168.393 38.9937 167.181C39.5341 166.652 39.7385 166.146 39.3298 165.468C39.2889 165.405 39.3252 165.292 39.3252 165.134C40.0473 165.287 40.3424 165.907 40.8011 166.3C41.2552 166.689 41.6729 167.123 42.1724 167.597C41.9363 167.678 41.8273 167.755 41.7819 167.728C40.9736 167.254 40.4105 167.584 39.8565 168.212C39.1027 169.066 38.2717 169.862 37.4997 170.702C36.7369 171.534 36.7505 171.543 37.2636 172.506C37.3045 172.583 37.2999 172.677 37.3408 172.903L37.3363 172.908Z" fill="white"/>
<path d="M91.2109 197.559C91.338 194.938 91.7831 192.56 91.6786 190.174C91.338 189.97 91.052 189.803 90.7432 189.622C91.338 189.242 93.1771 189.342 94.2034 189.771C94.1853 189.826 94.1807 189.929 94.1535 189.934C93.2952 190.11 93.0682 190.671 93.05 191.484C93.0273 192.501 92.8684 193.514 92.7821 194.531C92.6549 196.022 92.6595 196.022 93.9491 196.691C93.6812 197.247 93.1045 197.116 92.6776 197.252C92.2508 197.387 91.7967 197.442 91.2109 197.564V197.559Z" fill="white"/>
<path d="M15.7392 58.5415C15.4985 57.8771 15.6121 56.6567 16.0207 55.8657C16.2887 55.9832 16.5702 56.0872 16.8336 56.2228C18.4593 57.059 20.0804 57.8997 21.7061 58.7404C21.8423 58.8127 21.9922 58.8579 22.1284 58.9302C22.5644 59.1562 22.9458 59.1878 23.2591 58.7178C23.35 58.5822 23.5271 58.5053 23.7223 58.3607C23.7723 58.5596 23.8585 58.6952 23.8222 58.772C23.3636 59.7121 22.8958 60.6523 22.41 61.5788C22.3691 61.6557 22.2056 61.6647 22.0467 61.728C22.0104 61.5608 21.9286 61.4252 21.9649 61.3393C22.2646 60.589 21.7788 60.2545 21.2293 59.9743C20.0168 59.3551 18.7999 58.7313 17.5738 58.1392C16.4794 57.6104 16.3886 57.642 15.7301 58.5415H15.7392Z" fill="white"/>
<path d="M119.56 7.31315C120.637 7.23631 121.513 7.17303 122.539 7.09619C122.394 7.72897 122.299 8.20356 122.181 8.66911C121.799 10.1607 121.4 11.6522 121.027 13.1483C120.8 14.0523 120.836 14.102 121.84 15.0602C120.65 15.2094 119.674 14.6263 118.63 14.5133C118.489 14.4997 118.371 14.3325 118.239 14.2331C118.321 14.1201 118.357 14.0297 118.393 14.0297C119.352 14.0432 119.624 13.424 119.788 12.633C120.033 11.4579 120.323 10.2917 120.609 9.12562C120.755 8.53803 120.664 8.0996 120.019 7.87361C119.874 7.82389 119.783 7.5979 119.556 7.31767L119.56 7.31315Z" fill="white"/>
<path d="M192.911 97.4122C193.547 98.2755 193.615 99.184 194.056 100.093C193.647 100.142 193.356 100.201 193.066 100.206C191.322 100.237 189.578 100.255 187.835 100.273C187.135 100.282 186.422 100.242 186.291 101.2C186.282 101.281 186.059 101.331 185.841 101.444V97.9637C186.377 97.9953 186.282 98.5241 186.654 98.8541C187.553 98.8767 188.575 98.9083 189.592 98.9174C190.246 98.9219 190.9 98.8993 191.554 98.8631C192.453 98.8179 192.512 98.7546 192.703 97.8687C192.721 97.7829 192.775 97.706 192.907 97.4077L192.911 97.4122Z" fill="white"/>
<path d="M152.837 179.471C152.342 180.443 151.702 181.048 151.08 181.844C150.825 181.523 150.626 181.306 150.462 181.066C149.44 179.588 148.414 178.119 147.424 176.623C147.061 176.076 146.661 175.85 146.035 176.131C145.935 176.176 145.803 176.149 145.617 176.158C145.808 175.389 146.52 175.295 146.975 174.946C147.438 174.594 147.856 174.083 148.691 174.024C148.473 174.454 148.319 174.761 148.119 175.154C148.505 175.765 148.909 176.42 149.331 177.066C149.672 177.582 150.053 178.074 150.389 178.589C151.148 179.765 151.348 179.855 152.842 179.471H152.837Z" fill="white"/>
<path d="M171.124 40.1548C171.392 40.2135 171.56 40.209 171.673 40.2859C172.191 40.6294 172.695 40.9955 173.204 41.348C173.503 41.5559 173.521 41.791 173.258 42.0351C173.099 42.1842 172.917 42.3017 172.74 42.4328C171.473 43.382 170.202 44.3266 168.94 45.2758C168.79 45.3888 168.672 45.538 168.522 45.6464C168.104 45.9538 167.868 46.2973 168.168 46.8306C168.227 46.9346 168.177 47.1064 168.086 47.2871C167.214 46.5097 166.492 45.6374 165.843 44.5119C166.101 44.5119 166.251 44.4667 166.31 44.521C166.882 45.0046 167.4 44.8057 167.909 44.417C168.749 43.7797 169.593 43.1424 170.429 42.5051C171.546 41.6509 171.573 41.565 171.11 40.1593L171.124 40.1548Z" fill="white"/>
<path d="M33.322 175.136C33.3311 175.81 32.9042 176.257 32.2367 176.266C31.6827 176.275 31.2921 175.882 31.3103 175.335C31.3285 174.766 31.8098 174.264 32.3684 174.237C32.9314 174.21 33.3129 174.567 33.3174 175.132L33.322 175.136Z" fill="white"/>
<path d="M59.1149 9.70427C59.0922 10.2647 58.7017 10.6851 58.2067 10.6851C57.6754 10.6851 57.1032 10.1246 57.1214 9.60936C57.135 9.13477 57.63 8.62854 58.075 8.62402C58.6336 8.62402 59.1376 9.14381 59.1149 9.69975V9.70427Z" fill="white"/>
<path d="M12.1472 55.7257C11.5387 55.7438 11.1073 55.3144 11.1073 54.6771C11.1073 54.1211 11.3752 53.859 11.9837 53.8319C12.6422 53.8047 13.1099 54.207 13.1053 54.7946C13.1008 55.3325 12.7148 55.7076 12.1517 55.7257H12.1472Z" fill="white"/>
<path d="M177.072 38.8482C177.032 39.4177 176.573 39.8471 176.055 39.8064C175.51 39.7657 175.07 39.2685 175.12 38.7532C175.174 38.2199 175.665 37.8222 176.205 37.8719C176.786 37.9306 177.109 38.2922 177.068 38.8436L177.072 38.8482Z" fill="white"/>
<path d="M178.789 159.547C179.302 159.538 179.715 159.945 179.733 160.483C179.752 160.975 179.22 161.495 178.716 161.486C178.258 161.477 177.84 160.993 177.84 160.474C177.84 159.949 178.239 159.561 178.784 159.547H178.789Z" fill="white"/>
<path d="M122.785 4.12687C122.181 4.14043 121.727 3.74268 121.717 3.2003C121.713 2.72571 122.172 2.28276 122.689 2.26468C123.166 2.24661 123.67 2.69859 123.693 3.16866C123.72 3.69749 123.32 4.11783 122.78 4.12687H122.785Z" fill="white"/>
<path d="M91.6604 202.59C91.1155 202.59 90.7159 202.219 90.7022 201.691C90.6886 201.184 91.1064 200.728 91.6013 200.705C92.0554 200.683 92.6549 201.239 92.6594 201.691C92.6639 202.115 92.1417 202.586 91.6604 202.59Z" fill="white"/>
<path d="M2.97437 118.33C2.97437 118.891 2.58838 119.275 2.03438 119.257C1.53032 119.243 1.09438 118.791 1.08984 118.29C1.08984 117.77 1.51216 117.363 2.05254 117.372C2.59746 117.381 2.96982 117.77 2.96982 118.33H2.97437Z" fill="white"/>
<path d="M154.871 184.641C154.885 185.17 154.472 185.64 153.99 185.649C153.486 185.658 152.996 185.224 152.978 184.754C152.955 184.207 153.327 183.796 153.872 183.769C154.422 183.742 154.862 184.122 154.876 184.641H154.871Z" fill="white"/>
<path d="M198.075 100.233C197.53 100.246 197.107 99.8578 197.116 99.347C197.126 98.8724 197.598 98.3707 198.038 98.3662C198.492 98.3662 198.987 98.8408 199.01 99.3018C199.033 99.799 198.61 100.215 198.079 100.228L198.075 100.233Z" fill="white"/>
</svg>
