<svg width="186" height="74" viewBox="0 0 186 74" fill="none" xmlns="http://www.w3.org/2000/svg">
<path d="M94.344 22.928V23.048C93.84 23.024 93.072 23 92.256 23C91.368 23 90.696 23.024 90.168 23.048V22.928C91.056 22.784 91.368 22.664 91.368 20.744V14.048C89.784 14.024 88.2 14.024 86.64 14.024C85.152 14.024 83.688 14.024 82.224 14.048V20.744C82.224 22.664 82.536 22.784 83.424 22.928V23.048C82.92 23.024 82.152 23 81.336 23C80.448 23 79.776 23.024 79.248 23.048V22.928C80.136 22.784 80.448 22.664 80.448 20.744V7.856C80.448 5.936 80.136 5.816 79.248 5.672V5.552C79.776 5.576 80.448 5.6 81.336 5.6C82.152 5.6 82.92 5.576 83.424 5.552V5.672C82.536 5.816 82.224 5.936 82.224 7.856V13.304C83.688 13.328 85.152 13.328 86.64 13.328C88.2 13.328 89.784 13.328 91.368 13.304V7.856C91.368 5.936 91.056 5.816 90.168 5.672V5.552C90.696 5.576 91.368 5.6 92.256 5.6C93.072 5.6 93.84 5.576 94.344 5.552V5.672C93.456 5.816 93.144 5.936 93.144 7.856V20.744C93.144 22.664 93.456 22.784 94.344 22.928ZM105.524 21.896L105.572 22.016C105.212 22.592 104.684 23.24 103.844 23.24C102.98 23.24 102.5 22.592 102.5 21.728C101.564 22.64 100.292 23.24 98.9237 23.24C96.8837 23.24 95.8517 21.968 95.8517 20.6C95.8517 18.92 97.3397 17.552 99.7157 17.552C100.7 17.552 101.78 17.84 102.5 18.344V14.288C102.5 12.776 101.924 11.912 100.316 11.912C99.0197 11.912 97.6037 12.872 97.5317 14.936H96.3077C96.6437 12.776 98.4437 11.48 100.508 11.48C102.236 11.48 104.036 12.032 104.036 14.6V20.912C104.036 21.896 104.204 22.256 104.732 22.256C104.948 22.256 105.188 22.208 105.524 21.896ZM102.5 21.248V18.776C101.996 18.296 101.108 18.008 100.196 18.008C98.4677 18.008 97.5797 19.256 97.5797 20.456C97.5797 21.536 98.2997 22.568 99.7637 22.568C100.868 22.568 101.804 22.04 102.5 21.248ZM110.212 22.928V23.048C109.684 23.024 109.3 23 108.412 23C107.524 23 107.14 23.024 106.612 23.048V22.928C107.332 22.784 107.644 22.664 107.644 20.744V13.544C107.644 12.68 107.62 12.44 106.9 12.248V12.128C107.62 12.08 108.556 11.888 109.18 11.6V20.744C109.18 22.664 109.492 22.784 110.212 22.928ZM109.396 8.888C109.396 9.344 109.036 9.704 108.532 9.704C108.076 9.704 107.716 9.344 107.716 8.888C107.716 8.384 108.076 8.024 108.532 8.024C109.036 8.024 109.396 8.384 109.396 8.888ZM115.274 22.928V23.048C114.746 23.024 114.362 23 113.474 23C112.586 23 112.202 23.024 111.674 23.048V22.928C112.394 22.784 112.706 22.664 112.706 20.744V13.424C112.706 12.56 112.682 12.32 111.962 12.128V12.008C112.682 11.96 113.618 11.768 114.242 11.48V12.584C114.77 12.128 115.586 11.48 116.642 11.48C117.89 11.48 118.178 12.368 118.178 13.472H116.642C116.642 12.584 116.306 12.224 115.754 12.224C115.37 12.224 114.89 12.392 114.242 13.136V20.744C114.242 22.664 114.554 22.784 115.274 22.928ZM125.846 19.016H125.966C125.942 19.232 125.918 19.424 125.918 19.616C125.918 21.584 127.79 22.64 129.686 22.64C131.342 22.64 132.95 21.608 132.95 19.4C132.95 14.6 125.75 14.72 125.75 9.488C125.75 6.896 127.622 5.192 130.19 5.192C131.582 5.192 132.446 5.576 133.382 5.576C133.526 5.576 133.646 5.576 133.79 5.552C133.742 6.056 133.718 6.488 133.718 7.136C133.718 7.496 133.718 8.096 133.742 8.456H133.598C133.238 6.584 131.99 5.696 130.238 5.696C128.726 5.696 127.31 6.512 127.31 8.408C127.31 12.992 134.462 12.872 134.462 18.368C134.462 21.368 132.278 23.24 129.47 23.24C127.862 23.24 127.166 22.784 126.014 22.784C125.87 22.784 125.798 22.784 125.654 22.808C125.678 22.688 125.678 22.4 125.678 22.184C125.678 21.632 125.558 21.128 125.558 20.528C125.558 20.096 125.63 19.496 125.846 19.016ZM145.555 21.896L145.603 22.016C145.243 22.592 144.715 23.24 143.875 23.24C143.011 23.24 142.531 22.592 142.531 21.728C141.595 22.64 140.323 23.24 138.955 23.24C136.915 23.24 135.883 21.968 135.883 20.6C135.883 18.92 137.371 17.552 139.747 17.552C140.731 17.552 141.811 17.84 142.531 18.344V14.288C142.531 12.776 141.955 11.912 140.347 11.912C139.051 11.912 137.635 12.872 137.563 14.936H136.339C136.675 12.776 138.475 11.48 140.539 11.48C142.267 11.48 144.067 12.032 144.067 14.6V20.912C144.067 21.896 144.235 22.256 144.763 22.256C144.979 22.256 145.219 22.208 145.555 21.896ZM142.531 21.248V18.776C142.027 18.296 141.139 18.008 140.227 18.008C138.499 18.008 137.611 19.256 137.611 20.456C137.611 21.536 138.331 22.568 139.795 22.568C140.899 22.568 141.835 22.04 142.531 21.248ZM150.291 22.928V23.048C149.763 23.024 149.379 23 148.491 23C147.603 23 147.219 23.024 146.691 23.048V22.928C147.411 22.784 147.723 22.664 147.723 20.744V6.656C147.723 5.792 147.699 5.552 146.979 5.36V5.24C147.699 5.192 148.635 5 149.259 4.712V20.744C149.259 22.664 149.571 22.784 150.291 22.928ZM157.75 23.144C154.102 23.144 151.894 20.96 151.894 17.384C151.894 13.928 154.39 11.48 157.702 11.48C161.038 11.48 163.438 14 163.438 17.384C163.438 20.528 161.254 23.144 157.75 23.144ZM157.654 22.832C160.894 22.832 161.446 19.928 161.446 17.216C161.446 14.264 160.63 11.792 157.534 11.792C154.366 11.792 153.886 15.104 153.886 17.6C153.886 20.288 154.582 22.832 157.654 22.832ZM175.963 22.928V23.048C175.435 23.024 175.051 23 174.163 23C173.275 23 172.891 23.024 172.363 23.048V22.928C173.083 22.784 173.395 22.664 173.395 20.744V15.512C173.395 12.536 171.931 11.96 170.467 11.96C169.579 11.96 168.427 12.32 167.563 12.944V20.744C167.563 22.664 167.875 22.784 168.595 22.928V23.048C168.067 23.024 167.683 23 166.795 23C165.907 23 165.523 23.024 164.995 23.048V22.928C165.715 22.784 166.027 22.664 166.027 20.744V13.424C166.027 12.56 166.003 12.32 165.283 12.128V12.008C166.003 11.96 166.939 11.768 167.563 11.48V12.44C168.643 11.768 169.891 11.48 171.067 11.48C172.675 11.48 174.931 11.96 174.931 15.392V20.744C174.931 22.664 175.243 22.784 175.963 22.928Z" fill="#333333"/>
<path d="M11.036 72.764V73.074C9.672 73.012 8.68 72.95 6.386 72.95C4.092 72.95 3.1 73.012 1.736 73.074V72.764C3.596 72.392 4.402 72.082 4.402 67.122V34.262C4.402 32.03 4.216 31.348 1.674 30.914V30.604C3.534 30.48 6.634 30.17 8.37 29.24V32.216C11.966 29.736 15.128 29.24 17.608 29.24C26.226 29.24 31.62 36.308 31.62 44.616C31.62 53.978 24.366 59.372 16.802 59.372C13.454 59.372 10.788 58.442 8.37 56.83V67.122C8.37 72.082 9.176 72.392 11.036 72.764ZM8.37 33.828V55.28C9.92 56.706 12.586 58.07 16.182 58.07C20.398 58.07 26.35 55.714 26.35 44.678C26.35 37.3 22.258 30.79 15.686 30.79C13.578 30.79 11.222 31.286 8.37 33.828ZM44.6453 58.814V59.124C43.2813 59.062 42.2893 59 39.9953 59C37.7013 59 36.7093 59.062 35.3453 59.124V58.814C37.2053 58.442 38.0113 58.132 38.0113 53.172V34.572C38.0113 32.34 37.9493 31.72 36.0893 31.224V30.914C37.9493 30.79 40.3673 30.294 41.9793 29.55V53.172C41.9793 58.132 42.7853 58.442 44.6453 58.814ZM42.5373 22.544C42.5373 23.722 41.6073 24.652 40.3053 24.652C39.1273 24.652 38.1973 23.722 38.1973 22.544C38.1973 21.242 39.1273 20.312 40.3053 20.312C41.6073 20.312 42.5373 21.242 42.5373 22.544ZM72.9193 54.536L73.1673 54.784C70.8733 57.636 67.5253 59.62 62.8753 59.62C53.0173 59.62 48.1813 52.242 48.1813 44.74C48.1813 36.68 53.3273 29.24 63.6193 29.24C69.5713 29.24 73.2293 31.968 73.9733 35.378H69.5093C69.1373 33.208 67.7733 30.046 63.2473 30.046C56.1793 30.046 53.3273 37.052 53.3273 43.562C53.3273 52.614 57.8533 58.256 64.9213 58.256C68.0213 58.256 70.7493 56.892 72.9193 54.536ZM102.042 56.148L102.166 56.458C101.236 57.946 99.8723 59.62 97.7023 59.62C95.4703 59.62 94.2303 57.946 94.2303 55.714C91.8123 58.07 88.5263 59.62 84.9923 59.62C79.7223 59.62 77.0563 56.334 77.0563 52.8C77.0563 48.46 80.9003 44.926 87.0383 44.926C89.5803 44.926 92.3703 45.67 94.2303 46.972V36.494C94.2303 32.588 92.7423 30.356 88.5883 30.356C85.2403 30.356 81.5823 32.836 81.3963 38.168H78.2343C79.1023 32.588 83.7523 29.24 89.0843 29.24C93.5483 29.24 98.1983 30.666 98.1983 37.3V53.606C98.1983 56.148 98.6323 57.078 99.9963 57.078C100.554 57.078 101.174 56.954 102.042 56.148ZM94.2303 54.474V48.088C92.9283 46.848 90.6343 46.104 88.2783 46.104C83.8143 46.104 81.5203 49.328 81.5203 52.428C81.5203 55.218 83.3803 57.884 87.1623 57.884C90.0143 57.884 92.4323 56.52 94.2303 54.474ZM122.151 36.37H121.841C121.221 33.208 119.051 30.046 114.897 30.046C111.859 30.046 109.441 32.03 109.441 35.502C109.441 42.756 123.081 41.454 123.081 51.684C123.081 57.078 117.935 59.62 113.161 59.62C111.363 59.62 108.387 59.248 105.349 57.636C105.721 55.59 105.535 52.738 106.093 50.258H106.403C106.341 50.63 106.341 51.064 106.341 51.436C106.341 55.342 108.139 58.752 113.161 58.752C116.447 58.752 118.865 56.706 118.865 52.8C118.865 44.802 105.411 46.29 105.411 36.804C105.411 31.534 110.619 29.24 115.145 29.24C117.625 29.24 120.539 29.798 122.213 30.294C122.089 30.914 122.027 31.41 122.027 32.278C122.027 33.518 122.089 34.386 122.151 36.37ZM144.553 36.37H144.243C143.623 33.208 141.453 30.046 137.299 30.046C134.261 30.046 131.843 32.03 131.843 35.502C131.843 42.756 145.483 41.454 145.483 51.684C145.483 57.078 140.337 59.62 135.563 59.62C133.765 59.62 130.789 59.248 127.751 57.636C128.123 55.59 127.937 52.738 128.495 50.258H128.805C128.743 50.63 128.743 51.064 128.743 51.436C128.743 55.342 130.541 58.752 135.563 58.752C138.849 58.752 141.267 56.706 141.267 52.8C141.267 44.802 127.813 46.29 127.813 36.804C127.813 31.534 133.021 29.24 137.547 29.24C140.027 29.24 142.941 29.798 144.615 30.294C144.491 30.914 144.429 31.41 144.429 32.278C144.429 33.518 144.491 34.386 144.553 36.37ZM164.848 59.372C155.424 59.372 149.72 53.73 149.72 44.492C149.72 35.564 156.168 29.24 164.724 29.24C173.342 29.24 179.542 35.75 179.542 44.492C179.542 52.614 173.9 59.372 164.848 59.372ZM164.6 58.566C172.97 58.566 174.396 51.064 174.396 44.058C174.396 36.432 172.288 30.046 164.29 30.046C156.106 30.046 154.866 38.602 154.866 45.05C154.866 51.994 156.664 58.566 164.6 58.566Z" fill="#333333"/>
</svg>
